SplineFontDB: 3.0
FontName: Crimson-BoldItalic
FullName: Crimson Bold Italic
FamilyName: Crimson
Weight: Bold
Copyright: Copyright (c) 2010, Sebastian Kosch (sebastian@aldusleaf.org),\nwith Reserved Font Name "Crimson".\nThis Font Software is licensed under the SIL Open Font License, Version 1.1.\nThis license is available with a FAQ at: http://scripts.sil.org/OFL
UComments: "2010-5-14: Created." 
Version: 0.8
ItalicAngle: -11
UnderlinePosition: -102
UnderlineWidth: 51
Ascent: 717
Descent: 307
LayerCount: 2
Layer: 0 0 "Back"  1
Layer: 1 0 "Fore"  0
XUID: [1021 85 519305545 5082149]
FSType: 0
OS2Version: 0
OS2_WeightWidthSlopeOnly: 0
OS2_UseTypoMetrics: 1
CreationTime: 1273891947
PfmFamily: 17
TTFWeight: 700
TTFWidth: 5
LineGap: 92
VLineGap: 0
OS2TypoAscent: 717
OS2TypoAOffset: 0
OS2TypoDescent: -307
OS2TypoDOffset: 0
OS2TypoLinegap: 92
OS2WinAscent: 0
OS2WinAOffset: 1
OS2WinDescent: 0
OS2WinDOffset: 1
HheadAscent: 717
HheadAOffset: 0
HheadDescent: -307
HheadDOffset: 0
OS2SubXSize: 665
OS2SubYSize: 716
OS2SubXOff: 27
OS2SubYOff: 143
OS2SupXSize: 665
OS2SupYSize: 716
OS2SupXOff: -93
OS2SupYOff: 491
OS2StrikeYSize: 51
OS2StrikeYPos: 265
OS2Vendor: 'PfEd'
Lookup: 1 0 0 "'ccmp' Turkish i"  {"'ccmp' Turkish i-1"  } ['ccmp' ('latn' <'TRK ' > ) ]
Lookup: 1 0 0 "'onum' Oldstyle Figures lookup 3"  {"'onum' Oldstyle Figures lookup 3-1" ("onum" ) } ['onum' ('DFLT' <'dflt' > 'grek' <'dflt' > 'latn' <'TRK ' 'dflt' > ) ]
Lookup: 1 0 0 "'pnum' Proportional Numbers lookup 12"  {"'pnum' Proportional Numbers lookup 12-1" ("prop" ) } ['pnum' ('DFLT' <'dflt' > 'grek' <'dflt' > 'latn' <'TRK ' 'dflt' > ) ]
Lookup: 4 0 1 "'liga' Standard Ligatures lookup 0"  {"'liga' Standard Ligatures lookup 0-1"  } ['liga' ('DFLT' <'dflt' > 'cyrl' <'dflt' > 'grek' <'dflt' > 'latn' <'TRK ' 'dflt' > ) ]
Lookup: 258 0 0 "'kern' Horizontal Kerning in Latin lookup 0"  {"'kern' Horizontal Kerning in Latin lookup 0 kerning class 1" [153,0,0] } ['kern' ('latn' <'TRK ' 'dflt' > ) ]
MarkAttachClasses: 1

StartChar: exclam
Encoding: 33 33 1
Width: 257
Flags: W
HStem: -11 138<48.8519 122.295> 622 20G<188.795 219.795>
VStem: 23.2949 227
LayerCount: 2
Fore
SplineSet
23.2949 60 m 0
 30.2949 97 64.2949 127 99.2949 127 c 27
 133.295 127 156.295 97 149.295 60 c 0
 142.295 23 109.295 -11 74.2949 -11 c 27
 38.2949 -11 16.2949 23 23.2949 60 c 0
205.295 642 m 0
 234.295 642 258.295 617 250.295 574 c 0
 245.295 546 171.295 309 142.295 221 c 0
 135.295 201 119.295 190 105.295 190 c 0
 100.295 190 99.2949 200 99.2949 212 c 0
 102.295 279 121.295 524 131.295 575 c 0
 139.295 617 172.295 642 205.295 642 c 0
EndSplineSet
EndChar

StartChar: quotedbl
Encoding: 34 34 2
Width: 334
Flags: W
HStem: 434 264<141.076 142.903 295.076 296.903>
VStem: 105.076 101<565.027 671.25> 259.076 101<565.027 671.25>
LayerCount: 2
Fore
SplineSet
332.076 698 m 27
 360.076 698 371.076 692 360.076 633 c 0
 349.076 577 314.076 516 295.076 449 c 0
 292.076 439 281.076 434 274.076 434 c 0
 267.076 434 258.076 439 259.076 447 c 0
 268.076 537 259.076 590 259.076 636 c 1
 262.076 654 295.076 698 332.076 698 c 27
178.076 698 m 27
 206.076 698 217.076 692 206.076 633 c 0
 195.076 577 160.076 516 141.076 449 c 0
 138.076 439 127.076 434 120.076 434 c 0
 113.076 434 104.076 439 105.076 447 c 0
 114.076 537 105.076 590 105.076 636 c 1
 108.076 654 141.076 698 178.076 698 c 27
EndSplineSet
EndChar

StartChar: numbersign
Encoding: 35 35 3
Width: 487
VWidth: 0
Flags: W
HStem: 170 67<41.3047 110 192 250 332 400.695> 311 67<89.3047 158 240 298 380 448.695>
LayerCount: 2
Fore
SplineSet
380 378 m 1
 380 378 422 378 451 378 c 0
 456 378 458 377 458 373 c 3
 458 357 444 311 433 311 c 2
 361 311 l 1
 332 237 l 1
 403 237 l 2
 408 237 410 235 410 231 c 3
 410 215 396 170 385 170 c 2
 313 170 l 1
 262 24 l 2
 261 21 252 16 224 16 c 0
 213 16 197 18 197 21 c 0
 197 21 198 23 198 24 c 0
 199 28 250 170 250 170 c 1
 173 170 l 1
 122 24 l 2
 121 21 112 16 84 16 c 0
 73 16 57 18 57 21 c 0
 57 21 58 23 58 24 c 0
 59 28 110 170 110 170 c 1
 39 170 l 2
 34 170 32 172 32 176 c 3
 32 192 46 237 57 237 c 2
 129 237 l 1
 158 311 l 1
 87 311 l 2
 82 311 80 313 80 317 c 3
 80 333 94 378 105 378 c 2
 177 378 l 1
 228 524 l 2
 229 527 243 532 271 532 c 0
 282 532 293 529 293 526 c 0
 293 526 292 525 292 524 c 0
 291 520 240 378 240 378 c 1
 317 378 l 1
 368 524 l 2
 369 527 383 532 411 532 c 0
 422 532 433 529 433 526 c 0
 433 526 432 525 432 524 c 0
 431 520 380 378 380 378 c 1
298 311 m 1
 221 311 l 1
 192 237 l 1
 269 237 l 1
 298 311 l 1
EndSplineSet
EndChar

StartChar: dollar
Encoding: 36 36 4
Width: 492
UnlinkRmOvrlpSave: 1
Flags: W
HStem: -10 40<173.408 254.179> 603 40<266.191 328.734>
VStem: 38.0967 39<102.904 189.319> 413.097 36<451.013 546.787>
LayerCount: 2
Fore
SplineSet
149.097 -65 m 9
 381.097 670 l 17
 383.708 677.361 357.529 684.75 349.331 683.854 c 9
 117.923 -49.8613 l 17
 115.311 -57.2227 140.553 -64.957 149.097 -65 c 9
325.097 643 m 0
 233.097 643 121.097 568 102.097 469 c 0
 83.0967 369 139.097 327 195.097 280 c 0
 233.097 247 310.097 191 297.097 123 c 0
 284.097 55 237.097 30 192.097 30 c 0
 111.097 30 75.0967 132 77.0967 184 c 0
 77.0967 190 74.0967 192 67.0967 192 c 0
 62.0967 192 43.0967 184 38.0967 178 c 1
 34.0967 151 27.0967 57 28.0967 15 c 1
 79.0967 2 140.097 -10 193.097 -10 c 0
 291.097 -10 402.097 62 422.097 168 c 0
 444.097 282 380.097 323 329.097 365 c 0
 282.097 404 217.097 459 229.097 519 c 0
 241.097 583 286.097 603 321.097 603 c 0
 390.097 603 416.097 512 413.097 458 c 0
 413.097 450 435.097 451 438.097 451 c 0
 442.097 451 445.097 453 449.097 457 c 1
 458.097 516 464.097 565 470.097 616 c 1
 418.097 628 378.097 643 325.097 643 c 0
EndSplineSet
EndChar

StartChar: percent
Encoding: 37 37 5
Width: 700
Flags: W
HStem: -1 30<463.867 514.384> 271 29<497.587 546.326> 341 30<173.95 224.467> 613 29<207.671 256.41>
LayerCount: 2
Fore
SplineSet
529.022 271 m 0
 474.772 271 446.971 159 452.074 86 c 0
 453.193 70 460.061 29 483.016 29 c 0
 537.266 29 563.915 142 559.158 210 c 0
 557.621 232 549.138 271 529.022 271 c 0
534.592 300 m 0
 594.266 300 644.39 279 649.914 200 c 0
 656.557 105 559.979 -1 473.18 -1 c 0
 413.504 -1 365.726 33 361.252 97 c 0
 354.607 192 447.791 300 534.592 300 c 0
239.106 613 m 0
 184.856 613 157.055 501 162.158 428 c 0
 163.277 412 170.145 371 193.1 371 c 0
 247.35 371 273.999 484 269.242 552 c 0
 267.705 574 259.222 613 239.106 613 c 0
244.676 642 m 0
 304.35 642 354.474 621 359.998 542 c 0
 366.641 447 270.062 341 183.263 341 c 0
 123.588 341 75.8105 375 71.3359 439 c 0
 64.6914 534 157.875 642 244.676 642 c 0
590.432 618 m 2
 144.432 -14 l 1
 144.432 -14 110.432 -6 110.432 5 c 0
 110.432 7 111.432 9 112.432 11 c 26
 559.432 643 l 1
 559.432 643 591.432 634 591.432 623 c 0
 591.432 621 591.432 619 590.432 618 c 2
EndSplineSet
EndChar

StartChar: ampersand
Encoding: 38 38 6
Width: 809
UnlinkRmOvrlpSave: 1
Flags: W
HStem: -5 50<339.745 511.022> 483 53<341.295 471.5>
VStem: -10 62<89 176.646> 121 129<144.451 341.837> 391 148<385.598 479.196> 447 36<129.72 183.521> 613 63<133.806 233.688> 728 76<444.215 506.732>
LayerCount: 2
Fore
SplineSet
448 536 m 27xf7
 495 536 539 503 539 456 c 27
 539 287 226 242 170 227 c 0
 101 208 52 196 52 155 c 3
 52 138 60 130 73 118 c 0
 85.5137 106.449 93 95 93 79 c 3
 93 46 69 25 39 25 c 27
 26 25 17 27 7 30 c 1
 -5 50 -10 80 -10 98 c 0
 -10 170 36 225 116 252 c 0
 192.788 277.916 391 300 391 437 c 3xfb
 391 466 373 483 354 483 c 3
 287 483 250 355 250 248 c 3
 250 127 320 45 424 45 c 27
 517 45 613 99 613 192 c 0
 613 209 607 228 601 234 c 1
 547 214 483 193 483 149 c 3
 483 134 484 131 485 121 c 1
 481 119 468 125 461 131 c 1
 458 136 447 149 447 176 c 3
 447 251 489 266 576 318 c 0
 644 359 728 417 728 546 c 1
 737 547 747 543 753 540 c 1
 777 522 804 478 804 431 c 27
 804 346 738 294 668 260 c 1
 672 251 676 237 676 222 c 0
 676 86 534 -5 393 -5 c 0
 264 -5 121 70 121 214 c 3
 121 364 269 536 448 536 c 27xf7
EndSplineSet
EndChar

StartChar: quotesingle
Encoding: 39 39 7
Width: 180
Flags: W
HStem: 434 264<141.076 142.903>
VStem: 105.076 101<565.027 671.25>
LayerCount: 2
Back
SplineSet
106 698 m 2
 121 698 l 2
 137 698 151 692 151 633 c 0
 151 577 123 516 117 449 c 0
 116 439 108 434 101 434 c 0
 94 434 87 439 86 447 c 0
 77 537 52 594 52 635 c 0
 52 653 80 698 106 698 c 2
EndSplineSet
Fore
SplineSet
178.076 698 m 27
 206.076 698 217.076 692 206.076 633 c 0
 195.076 577 160.076 516 141.076 449 c 0
 138.076 439 127.076 434 120.076 434 c 0
 113.076 434 104.076 439 105.076 447 c 0
 114.076 537 105.076 590 105.076 636 c 1
 108.076 654 141.076 698 178.076 698 c 27
EndSplineSet
EndChar

StartChar: parenleft
Encoding: 40 40 8
Width: 277
VWidth: 0
Flags: W
HStem: -121 12<213.625 218.781>
VStem: 39.1826 293
LayerCount: 2
Fore
SplineSet
323.183 748 m 1
 329.183 746 333.183 739 332.183 735 c 1
 257.183 664 88.1826 418 110.183 164 c 0
 122.183 23 159.183 -54 219.183 -109 c 1
 219.183 -112 219.183 -119 213.183 -121 c 1
 143.183 -99 54.1826 4 39.1826 177 c 0
 13.1826 474 226.183 676 323.183 748 c 1
EndSplineSet
EndChar

StartChar: parenright
Encoding: 41 41 9
Width: 275
VWidth: 0
Flags: W
HStem: 736 12<75.5556 80.7108>
VStem: -37.8467 292
LayerCount: 2
Fore
SplineSet
-28.8467 -121 m 1
 -34.8467 -119 -38.8467 -112 -37.8467 -108 c 1
 37.1533 -37 206.153 209 184.153 463 c 0
 172.153 604 135.153 681 75.1533 736 c 1
 75.1533 739 75.1533 746 81.1533 748 c 1
 151.153 726 239.153 623 254.153 450 c 0
 280.153 153 68.1533 -49 -28.8467 -121 c 1
EndSplineSet
EndChar

StartChar: asterisk
Encoding: 42 42 10
Width: 425
Flags: W
HStem: 428 80<82.1873 171.375> 462 54<261.475 285.088> 472 28<188.545 232.749> 645 20G<215.5 245.5>
VStem: 165 76<307.43 384.921> 233 53<465 469 500.002 513.969>
LayerCount: 2
Fore
SplineSet
270 516 m 0x54
 295 516 333 635 390 635 c 0
 404 635 417 626 417 602 c 0
 417 540 286 524 286 492 c 0x54
 286 465 407 485 407 424 c 0
 407 400 382 378 362 378 c 0
 319 378 292 462 267 462 c 0
 244 462 259 396 241 339 c 0
 232 309 211 301 197 301 c 0
 181 301 165 317 165 334 c 0x58
 165 374 233 438 233 464 c 0
 233 469 232 472 225 472 c 0x34
 204 472 143 428 105 428 c 0
 88 428 73 442 73 458 c 0
 73 471 81 508 135 508 c 0x94
 164 508 195 500 215 500 c 0x34
 237 500 237 503 237 510 c 0
 237 534 184 573 184 616 c 0
 184 641 203 665 228 665 c 0
 263 665 261 624 261 584 c 0
 261 578 256 516 270 516 c 0x54
EndSplineSet
EndChar

StartChar: plus
Encoding: 43 43 11
Width: 467
Flags: W
HStem: 213 51<26.5193 197 261 429.797>
LayerCount: 2
Back
SplineSet
211 19 m 25
 306 521 l 25
 294.499 39.166 l 25
 383 504 l 25
EndSplineSet
Fore
SplineSet
28 213 m 2
 25 213 23 216 23 221 c 0
 23 234 28 251 38 264 c 1
 205 264 l 1
 238 435 l 2
 240 448 283 451 287 451 c 0
 295 451 297 447 296 443 c 2
 261 264 l 1
 429 264 l 2
 431 264 432 261 432 256 c 0
 432 243 430 225 419 213 c 1
 253 213 l 1
 218 39 l 2
 216 29 191 23 175 23 c 0
 165 23 160 27 161 31 c 2
 197 213 l 1
 28 213 l 2
EndSplineSet
EndChar

StartChar: comma
Encoding: 44 44 12
Width: 214
Flags: W
HStem: -123 258
VStem: 9 119<26.6182 112.658> 44 84<-24.5 111.882>
LayerCount: 2
Back
SplineSet
195 116 m 0
 200 10 146 -95 27 -162 c 0
EndSplineSet
Fore
SplineSet
-30 -103 m 1xc0
 -22 -98 44 -49 44 0 c 0xa0
 44 29 9 29 9 68 c 0
 9 107 50 135 93 135 c 0
 105 135 120 129 125 123 c 1
 127 118 128 112 128 101 c 0
 128 69 118 25 99 -10 c 0
 67 -67 36 -91 -14 -123 c 1
 -22 -121 -30 -113 -30 -103 c 1xc0
EndSplineSet
EndChar

StartChar: hyphen
Encoding: 45 45 13
Width: 365
Flags: W
VStem: 48 257<206.461 266.565>
LayerCount: 2
Fore
SplineSet
72 267 m 2
 299 279 l 2
 304 279 305 272 305 267 c 0
 305 254 289 205 279 204 c 10
 53 193 l 2
 50 193 48 200 48 208 c 0
 48 219 61 266 72 267 c 2
EndSplineSet
EndChar

StartChar: period
Encoding: 46 46 14
Width: 217
Flags: W
HStem: -11 138<32.8519 106.295>
VStem: 7.29492 126<15.7561 102.617>
LayerCount: 2
Fore
SplineSet
7.29492 60 m 0
 14.2949 97 48.2949 127 83.2949 127 c 27
 117.295 127 140.295 97 133.295 60 c 0
 126.295 23 93.2949 -11 58.2949 -11 c 27
 22.2949 -11 0.294922 23 7.29492 60 c 0
EndSplineSet
EndChar

StartChar: slash
Encoding: 47 47 15
Width: 404
VWidth: 0
Flags: W
LayerCount: 2
Fore
SplineSet
466 755 m 1
 42 -12 l 2
 39 -17 11 -34 -12 -34 c 0
 -16 -34 -23 -30 -24 -28 c 9
 401 739 l 2
 406 747 436 761 454 761 c 0
 460 761 464 758 466 755 c 1
EndSplineSet
EndChar

StartChar: zero
Encoding: 48 48 16
Width: 526
Flags: W
HStem: -5 38<188.75 244.2> 604 38<281.932 337.996>
LayerCount: 2
Fore
SplineSet
169 152 m 0
 169 93 181 33 213 33 c 0
 274 33 358 239 358 462 c 0
 358 494 357 604 314 604 c 0
 251 604 169 398 169 152 c 0
45 295 m 0
 83 488 217 642 325 642 c 0
 455 642 513 503 480 334 c 0
 447 165 320 -5 196 -5 c 0
 83 -5 12 126 45 295 c 0
EndSplineSet
Substitution2: "'pnum' Proportional Numbers lookup 12-1" zero.prop
Substitution2: "'onum' Oldstyle Figures lookup 3-1" zero.onum
EndChar

StartChar: one
Encoding: 49 49 17
Width: 527
Flags: W
HStem: -3 29<104.209 166.18 314.124 366.062> 622 20G<388.5 418.5>
VStem: 103 321
LayerCount: 2
Fore
SplineSet
188 479 m 1
 181 483 178 495 178 502 c 0
 178 504 179 507 182 510 c 1
 284 565 363 609 414 642 c 9
 416 642 l 2
 421 642 426 619 424 606 c 1
 424 606 396 550 375 439 c 2
 319 135 l 2
 313 102 308 73 309 46 c 0
 310 35 360 26 367 26 c 0
 370 26 368 15 367 8 c 0
 366 3 365 -1 364 -3 c 1
 327 -1 243 2 206 2 c 0
 169 2 141 -1 103 -3 c 1
 99 2 104 26 109 26 c 0
 120 26 168 35 173 46 c 0
 182 66 186 84 189 103 c 2
 250 415 l 2
 262 475 268 506 249 506 c 0
 242 506 206 488 188 479 c 1
EndSplineSet
Substitution2: "'pnum' Proportional Numbers lookup 12-1" one.prop
Substitution2: "'onum' Oldstyle Figures lookup 3-1" one.onum
EndChar

StartChar: two
Encoding: 50 50 18
Width: 526
Flags: W
HStem: 0 110<169 388.021> 557 85<261.69 378.5>
VStem: 352 142<402.658 532.171>
LayerCount: 2
Fore
SplineSet
494 490 m 0
 494 404 435 338 358 270 c 0
 267 190 167 110 169 110 c 9
 341 110 l 2
 394 110 414 144 426 176 c 0
 428 181 433 185 441 185 c 0
 448 185 454 181 458 178 c 1
 437 128 387 18 379 0 c 9
 379 0 46 0 39 0 c 1
 35 0 31 10 32 22 c 1
 87 72 201 191 257 260 c 0
 319 336 352 406 352 468 c 0
 352 520 323 557 269 557 c 0
 211 557 165 502 158 493 c 1
 149 493 140 505 139 513 c 1
 150 538 245 642 342 642 c 0
 415 642 494 587 494 490 c 0
EndSplineSet
Substitution2: "'pnum' Proportional Numbers lookup 12-1" two.prop
Substitution2: "'onum' Oldstyle Figures lookup 3-1" two.onum
EndChar

StartChar: three
Encoding: 51 51 19
Width: 528
Flags: W
HStem: -5 38<184.623 276.128> 315 32<202.051 248.342> 563 79<269.23 373.5>
VStem: 53 111<50.5783 113.444> 341 131<144.812 294.683> 361 114<444.921 538.359>
LayerCount: 2
Fore
SplineSet
350 642 m 0xf4
 397 642 475 615 475 515 c 0xf4
 475 429 390 383 352 372 c 1
 408 365 472 311 472 237 c 0
 472 83 310 -5 197 -5 c 0
 130 -5 85 13 62 29 c 1
 58 34 53 48 53 59 c 0
 53 113 90 126 112 126 c 0
 148 126 155 97 164 78 c 0
 176 54 202 33 227 33 c 0
 284 33 341 103 341 216 c 0xf8
 341 283 317 321 249 321 c 0
 235 321 218 318 206 315 c 1
 203 320 202 328 202 333 c 0
 202 337 204 344 206 347 c 1
 271 355 361 398 361 474 c 0
 361 534 326 563 284 563 c 0
 228 563 178 498 169 490 c 1
 161 490 149 504 149 513 c 1
 178 563 270 642 350 642 c 0xf4
EndSplineSet
Substitution2: "'pnum' Proportional Numbers lookup 12-1" three.prop
Substitution2: "'onum' Oldstyle Figures lookup 3-1" three.onum
EndChar

StartChar: four
Encoding: 52 52 20
Width: 526
Flags: W
HStem: -5 21G<299 328> 175 67<124 289 428 483.066> 622 20G<475.5 483.5>
LayerCount: 2
Fore
SplineSet
479 642 m 0
 488 642 502 624 500 616 c 2
 428 242 l 25
 481 242 l 18
 487 242 489 234 489 226 c 0
 489 208 479 184 472 175 c 1
 414 175 l 25
 381 2 l 1
 381 2 346 -5 310 -5 c 0
 288 -5 255 -2 256 5 c 2
 289 175 l 25
 34 175 l 1
 28 179 25 192 26 198 c 1
 451 626 l 2
 461 636 472 642 479 642 c 0
344 465 m 25
 124 242 l 25
 301 242 l 25
 344 465 l 25
EndSplineSet
Substitution2: "'pnum' Proportional Numbers lookup 12-1" four.prop
Substitution2: "'onum' Oldstyle Figures lookup 3-1" four.onum
EndChar

StartChar: five
Encoding: 53 53 21
Width: 527
Flags: W
HStem: -5 38<181.623 272.944> 331 85<208.005 301.743> 530 105<229.214 427.826>
VStem: 50 111<50.5783 113.444> 338 128<153.553 295.326>
LayerCount: 2
Fore
SplineSet
466 247 m 0
 466 93 307 -5 194 -5 c 0
 127 -5 82 13 59 29 c 1
 55 34 50 48 50 59 c 0
 50 113 87 126 109 126 c 0
 145 126 152 97 161 78 c 0
 173 54 199 33 224 33 c 0
 281 33 338 103 338 216 c 0
 338 290 301 331 232 331 c 3
 212 331 176 325 157 319 c 1
 154 321 149 328 145 333 c 1
 179 468 205 591 214 635 c 1
 305 635 417 635 467 646 c 1
 473 642 477 634 477 631 c 1
 477 612 440 554 430 540 c 1
 385 530 251 530 234 530 c 1
 231 518 215 438 205 392 c 1
 233 410 287 416 298 416 c 0
 375 416 466 358 466 247 c 0
EndSplineSet
Substitution2: "'pnum' Proportional Numbers lookup 12-1" five.prop
Substitution2: "'onum' Oldstyle Figures lookup 3-1" five.onum
EndChar

StartChar: six
Encoding: 54 54 22
Width: 527
VWidth: 0
Flags: W
HStem: -6 35<191.496 252.772> 322 52<256.404 354.089> 618 24<462.426 484.264>
VStem: 42 130<88.2117 285.473> 318 131<131.284 310.01>
LayerCount: 2
Fore
SplineSet
327 374 m 0
 404 374 449 316 449 228 c 0
 449 98 338 -6 211 -6 c 0
 131 -6 42 64 42 178 c 0
 42 270 81 372 169 467 c 0
 236 540 352 624 480 642 c 1
 486 638 486 624 485 618 c 1
 362 566 281 490 228 376 c 0
 187 287 172 202 172 133 c 0
 172 64 193 29 219 29 c 0
 275 29 318 151 318 228 c 0
 318 277 307 322 266 322 c 0
 257 322 249 322 243 319 c 1
 240 321 238 326 238 334 c 3
 238 346 290 374 327 374 c 0
EndSplineSet
Substitution2: "'pnum' Proportional Numbers lookup 12-1" six.prop
Substitution2: "'onum' Oldstyle Figures lookup 3-1" six.onum
EndChar

StartChar: seven
Encoding: 55 55 23
Width: 527
Flags: W
HStem: -10 21G<70.5 75> 526 110<124.813 385>
LayerCount: 2
Fore
SplineSet
36 13 m 1
 87 73 263 334 385 526 c 1
 170 526 l 2
 124 526 99 480 80 442 c 0
 78 439 77 437 68 436 c 0
 59 435 50 440 47 444 c 1
 69 493 121 605 134 636 c 1
 149 636 402 637 402 637 c 2
 435 637 480 641 486 641 c 0
 492 641 491 631 490 626 c 0
 488 617 474 598 453 565 c 2
 88 -8 l 1
 84 -10 76 -10 74 -10 c 0
 67 -10 32 -6 36 13 c 1
EndSplineSet
Substitution2: "'pnum' Proportional Numbers lookup 12-1" seven.prop
Substitution2: "'onum' Oldstyle Figures lookup 3-1" seven.onum
EndChar

StartChar: eight
Encoding: 56 56 24
Width: 527
Flags: W
HStem: -6 37<190.379 274.069> 608 34<283.884 350.843>
LayerCount: 2
Fore
SplineSet
330 642 m 0
 412 642 505 608 483 493 c 0
 469 420 407 379 349 355 c 0
 345 353 346 351 348 349 c 0
 408 297 456 231 442 162 c 0
 418 45 306 -6 209 -6 c 0
 107 -6 25 71 44 168 c 0
 61 256 139 288 191 311 c 0
 194 312 195 316 193 317 c 0
 159 347 119 411 133 485 c 0
 150 570 229 642 330 642 c 0
321 608 m 0
 285 608 252 566 252 508 c 0
 252 451 280 413 314 383 c 0
 316 382 317 381 318 381 c 0
 319 381 321 381 323 384 c 0
 349 420 369 465 369 519 c 0
 369 554 362 608 321 608 c 0
228 31 m 0
 273 31 306 75 313 120 c 0
 327 208 237 276 228 284 c 0
 226 285 226 285 224 285 c 0
 223 285 222 284 221 283 c 0
 201 250 185 212 176 151 c 0
 165 74 187 31 228 31 c 0
EndSplineSet
Substitution2: "'pnum' Proportional Numbers lookup 12-1" eight.prop
Substitution2: "'onum' Oldstyle Figures lookup 3-1" eight.onum
EndChar

StartChar: nine
Encoding: 57 57 25
Width: 527
VWidth: 0
Flags: W
HStem: -6 24<42.7364 64.5737> 262 52<172.911 270.596> 607 35<274.228 335.504>
VStem: 78 131<325.99 504.716> 355 130<350.527 547.788>
LayerCount: 2
Fore
SplineSet
200 262 m 0
 123 262 78 320 78 408 c 0
 78 538 189 642 316 642 c 0
 396 642 485 572 485 458 c 0
 485 366 446 264 358 169 c 0
 291 96 175 12 47 -6 c 1
 41 -2 41 12 42 18 c 1
 165 70 246 146 299 260 c 0
 340 349 355 434 355 503 c 0
 355 572 334 607 308 607 c 0
 252 607 209 485 209 408 c 0
 209 359 220 314 261 314 c 0
 270 314 278 314 284 317 c 1
 287 315 289 310 289 302 c 3
 289 290 237 262 200 262 c 0
EndSplineSet
Substitution2: "'pnum' Proportional Numbers lookup 12-1" nine.prop
Substitution2: "'onum' Oldstyle Figures lookup 3-1" nine.onum
EndChar

StartChar: colon
Encoding: 58 58 26
Width: 242
Flags: W
HStem: -11 138<43.8519 117.295> 305 138<104.852 178.295>
VStem: 18.2949 187
LayerCount: 2
Fore
SplineSet
79.2949 376 m 0
 86.2949 413 120.295 443 155.295 443 c 27
 189.295 443 212.295 413 205.295 376 c 0
 198.295 339 165.295 305 130.295 305 c 27
 94.2949 305 72.2949 339 79.2949 376 c 0
18.2949 60 m 0
 25.2949 97 59.2949 127 94.2949 127 c 27
 128.295 127 151.295 97 144.295 60 c 0
 137.295 23 104.295 -11 69.2949 -11 c 27
 33.2949 -11 11.2949 23 18.2949 60 c 0
EndSplineSet
EndChar

StartChar: semicolon
Encoding: 59 59 27
Width: 238
Flags: W
HStem: 305 138<101.557 175>
VStem: 21 119<26.6182 112.658> 56 84<-24.5 111.882> 76 126<331.756 418.617>
LayerCount: 2
Fore
SplineSet
-18 -103 m 1xc0
 -10 -98 56 -49 56 0 c 0xa0
 56 29 21 29 21 68 c 0
 21 107 62 135 105 135 c 0
 117 135 132 129 137 123 c 1
 139 118 140 112 140 101 c 0
 140 69 130 25 111 -10 c 0
 79 -67 48 -91 -2 -123 c 1
 -10 -121 -18 -113 -18 -103 c 1xc0
202 376 m 0x90
 195 339 162 305 127 305 c 27
 91 305 69 339 76 376 c 0
 83 413 117 443 152 443 c 27
 186 443 209 413 202 376 c 0x90
EndSplineSet
EndChar

StartChar: less
Encoding: 60 60 28
Width: 465
Flags: W
LayerCount: 2
Fore
SplineSet
103.667 209 m 1
 369.667 51 l 1
 369.667 51 371.667 50 370.667 45 c 0
 369.667 38 350.667 -15 344.667 -15 c 0
 343.667 -15 342.667 -14 340.667 -13 c 2
 28.667 177 l 2
 16.667 185 16.667 200 19.667 217 c 0
 21.667 228 30.667 236 40.667 241 c 2
 424.667 428 l 2
 426.667 429 428.667 430 429.667 430 c 0
 432.667 430 433.667 423 433.667 386 c 0
 433.667 373 429.667 364 429.667 364 c 1
 103.667 209 l 1
EndSplineSet
EndChar

StartChar: equal
Encoding: 61 61 29
Width: 542
Flags: W
HStem: 164 51<53.5193 456.797> 304 51<80.5193 483.797>
LayerCount: 2
Fore
SplineSet
55 164 m 2
 52 164 50 167 50 172 c 0
 50 185 55 202 65 215 c 1
 456 215 l 2
 458 215 459 212 459 207 c 0
 459 194 457 176 446 164 c 1
 55 164 l 2
82 304 m 2
 79 304 77 307 77 312 c 0
 77 325 82 342 92 355 c 1
 483 355 l 2
 485 355 486 352 486 347 c 0
 486 334 484 316 473 304 c 1
 82 304 l 2
EndSplineSet
EndChar

StartChar: greater
Encoding: 62 62 30
Width: 467
Flags: W
LayerCount: 2
Fore
SplineSet
340.756 209 m 1
 74.7559 364 l 1
 74.7559 364 71.7559 367 73.7559 373 c 0
 87.7559 410 97.7559 430 100.756 430 c 0
 101.756 430 102.756 429 104.756 428 c 2
 415.756 241 l 2
 423.756 236 429.756 228 427.756 217 c 0
 424.756 200 418.756 185 402.756 177 c 2
 17.7559 -13 l 2
 15.7559 -14 13.7559 -15 12.7559 -15 c 0
 6.75586 -15 7.75586 38 8.75586 45 c 0
 9.75586 50 12.7559 51 12.7559 51 c 1
 340.756 209 l 1
EndSplineSet
EndChar

StartChar: question
Encoding: 63 63 31
Width: 375
Flags: W
HStem: -11 138<65.8519 139.295> 573 73<188.795 291.307>
VStem: 40.2949 126<15.7561 102.617> 78.2949 92.0001<252.115 335.273> 300.295 73<484.874 568.113>
LayerCount: 2
Fore
SplineSet
40.2949 60 m 0xe8
 47.2949 97 81.2949 127 116.295 127 c 27
 150.295 127 173.295 97 166.295 60 c 0
 159.295 23 126.295 -11 91.2949 -11 c 27
 55.2949 -11 33.2949 23 40.2949 60 c 0xe8
204.295 215 m 1
 204.295 209 196.295 198 191.295 195 c 1
 167.295 195 78.2949 246 78.2949 302 c 3
 78.2949 368 133.295 394 159.295 412 c 0
 186.272 430.677 235.939 449.494 269.295 477.161 c 0
 289.199 493.672 300.295 509.334 300.295 534 c 3
 300.295 558 288.295 573 263.295 573 c 0
 233.295 573 202.295 522 172.295 522 c 0
 126.295 522 114.295 571 129.295 609 c 1
 141.295 624 165.295 646 212.295 646 c 0
 295.295 646 373.295 574 373.295 500 c 0
 373.295 445 360.261 403.53 285.295 357 c 0
 269.302 347.073 235.974 332.585 209.295 315.044 c 0
 187.596 300.778 170.295 284.492 170.295 267 c 3xd8
 170.295 238 196.295 220 204.295 215 c 1
EndSplineSet
EndChar

StartChar: at
Encoding: 64 64 32
Width: 778
Flags: W
HStem: -17 78<449.5 549.073> -7 88<231 352> 394 55<390.816 498> 540 42<372.064 570.576>
VStem: 30 52<19.9337 256.798> 173 126<86.0352 221.784> 688 57<193.413 422.987>
LayerCount: 2
Back
SplineSet
16.835 228 m 0
 58.0439 440 259.477 612 465.478 612 c 0
 671.478 612 806.044 440 764.835 228 c 0
 723.626 16 522.193 -156 316.193 -156 c 0
 110.193 -156 -24.374 16 16.835 228 c 0
67.6406 227 m 0
 103.345 410.68 277.156 560.76 455.696 560.76 c 0
 634.236 560.76 749.704 410.68 714 227 c 0
 678.296 43.3193 504.483 -106.761 325.943 -106.761 c 0
 147.403 -106.761 31.9365 43.3193 67.6406 227 c 0
EndSplineSet
Fore
SplineSet
525 132 m 2x7e
 515 84 519 61 548 61 c 3
 593 61 688 162 688 300 c 0
 688 439 624 540 465 540 c 3
 326 540 82 382 82 142 c 0
 82 61 102 -12 172 -76 c 0
 186.177 -88.9619 207 -100 215 -104 c 1
 209 -109 194 -114 181 -114 c 0
 174 -114 142 -106 121 -88 c 0
 62.8584 -38.1641 30 31 30 131 c 0
 30 383 275 582 483 582 c 3
 668 582 745 447 745 314 c 0
 745 93 547 -17 474 -17 c 0xbe
 425 -17 399 9 399 58 c 0
 399 62 400 70 401 77 c 0
 402 85 404 92 405 96 c 1
 384 59 319 -7 259 -7 c 0
 203 -7 173 47 173 115 c 0
 173 294 353 449 480 449 c 0
 516 449 567 438 587 431 c 1
 525 132 l 2x7e
424 394 m 0
 356 394 299 270 299 152 c 0
 299 104 313 81 335 81 c 0x7e
 369 81 419 182 439 281 c 2
 459 382 l 1
 452 390 438 394 424 394 c 0
EndSplineSet
EndChar

StartChar: A
Encoding: 65 65 33
Width: 620
Flags: W
HStem: -4 37<-58.1378 -1.666 89.8266 143.938 316.736 378.581 534.011 581.608> 225 48<197.378 354.377> 642 20G<391.378 400.378>
LayerCount: 2
Fore
SplineSet
61.3779 134 m 2
 355.378 624 l 2
 363.378 637 386.378 662 396.378 662 c 0
 404.378 662 413.378 658 414.378 655 c 1
 507.378 148 l 2
 513.378 117 515.378 97 519.378 76 c 0
 527.378 35 577.378 33 584.378 33 c 1
 587.378 24 582.378 0 578.378 -4 c 1
 541.378 -2 496.378 4 455.378 4 c 0
 412.378 4 347.378 -2 313.378 -4 c 1
 309.378 1 316.378 33 321.378 33 c 1
 337.378 33 364.378 39 379.378 51 c 0
 386.378 56 390.378 61 391.378 68 c 0
 393.378 77 364.378 220 364.378 220 c 1
 364.378 220 362.378 224 359.378 224 c 0
 324.378 226 293.378 225 270.378 225 c 0
 232.378 225 206.378 225 173.378 224 c 0
 170.378 224 166.378 221 165.378 219 c 1
 165.378 219 131.378 163 115.378 135 c 0
 101.378 110 83.3779 74 82.3779 67 c 0
 77.3779 41 140.378 33 147.378 33 c 1
 151.378 26 144.378 0 140.378 -4 c 1
 108.378 0 82.3779 4 41.3779 4 c 0
 -1.62207 4 -27.6221 0 -60.6221 -4 c 1
 -63.6221 0 -61.6221 21 -55.6221 32 c 1
 -44.6221 32 3.37793 48 15.3779 64 c 0
 36.3779 92 44.3779 106 61.3779 134 c 2
315.378 476 m 1
 197.378 280 l 1
 197.378 280 197.378 276 199.378 276 c 0
 217.378 274 254.378 273 275.378 273 c 0
 304.378 273 321.378 273 350.378 275 c 0
 352.378 275 354.378 280 354.378 280 c 1
 315.378 476 l 1
EndSplineSet
EndChar

StartChar: B
Encoding: 66 66 34
Width: 589
Flags: W
HStem: -3 42<-2.34674 65.9248 207.271 323.007> 332 39<262.021 360.387> 620 40<117.469 170.952 312.359 403.761>
LayerCount: 2
Fore
SplineSet
262.021 371 m 1
 310.021 371 l 2
 356.021 371 397.021 412 412.021 487 c 0
 430.021 582 408.021 620 361.021 620 c 0
 340.021 620 319.021 619 312.021 608 c 0
 305.021 596 302.021 576 296.021 547 c 2
 262.021 371 l 1
254.021 332 m 1
 211.021 109 l 2
 210.021 103 202.021 63 207.021 51 c 0
 212.021 40 239.021 39 263.021 39 c 0
 306.021 39 368.021 73 388.021 176 c 0
 403.021 251 390.021 332 302.021 332 c 2
 254.021 332 l 1
396.021 660 m 0
 482.021 660 576.021 618 553.021 502 c 0
 537.021 422 453.021 376 426.021 366 c 0
 418.021 363 419.021 360 420.021 360 c 0
 465.021 354 557.021 296 537.021 192 c 0
 524.021 126 473.021 67 408.021 30 c 0
 346.021 -5 277.021 -4 208.021 -3 c 0
 169.021 -3 28.0205 -2 -7.97949 -3 c 1
 -10.9795 3 -6.97949 27 -0.979492 34 c 1
 11.0205 35 55.0205 38 62.0205 51 c 0
 73.0205 71 79.0205 102 87.0205 145 c 2
 159.021 513 l 2
 167.021 556 174.021 587 170.021 607 c 0
 168.021 620 125.021 622 113.021 623 c 1
 110.021 630 116.021 654 121.021 660 c 1
 162.021 657 214.021 657 253.021 657 c 0
 292.021 657 342.021 660 396.021 660 c 0
EndSplineSet
EndChar

StartChar: C
Encoding: 67 67 35
Width: 646
Flags: W
HStem: -7 44<290.36 452.302> 624 43<359.26 523.328>
VStem: 52 144<163.523 404.486> 591 34<480.548 544.905>
LayerCount: 2
Fore
SplineSet
443 624 m 0
 312 624 196 478 196 268 c 0
 196 176 234 37 365 37 c 0
 412 37 455 55 485 80 c 0
 531 118 571 196 574 204 c 1
 588 204 599 199 605 192 c 1
 603 181 551 48 537 40 c 0
 481 9 423 -7 337 -7 c 0
 142 -7 52 142 52 276 c 0
 52 526 266 667 443 667 c 0
 504 667 585 650 638 638 c 1
 638 627 627 506 625 494 c 0
 624 488 614 480 603 480 c 3
 598 480 594 480 591 484 c 1
 589 523 561 624 443 624 c 0
EndSplineSet
EndChar

StartChar: D
Encoding: 68 68 36
Width: 720
Flags: W
HStem: -3 42<-2.34674 65.9248 209.858 370.117> 620 40<117.469 170.952 312.359 444.554>
LayerCount: 2
Fore
SplineSet
296.021 547 m 2
 217.021 141 l 2
 216.021 135 205.021 82 209.021 62 c 0
 212.021 48 239.021 39 263.021 39 c 0
 415.021 39 500.021 119 538.021 314 c 0
 576.021 510 499.021 620 361.021 620 c 0
 340.021 620 319.021 619 312.021 608 c 0
 305.021 596 302.021 576 296.021 547 c 2
396.021 660 m 0
 611.021 660 726.021 522 686.021 317 c 0
 641.021 83 461.021 -3 260.021 -3 c 0
 221.021 -3 28.0205 -2 -7.97949 -3 c 1
 -10.9795 3 -6.97949 27 -0.979492 34 c 1
 11.0205 35 55.0205 38 62.0205 51 c 0
 73.0205 71 79.0205 102 87.0205 145 c 2
 159.021 513 l 2
 167.021 556 174.021 587 170.021 607 c 0
 168.021 620 125.021 622 113.021 623 c 1
 110.021 630 116.021 654 121.021 660 c 1
 162.021 657 214.021 657 253.021 657 c 0
 292.021 657 341.021 659 396.021 660 c 0
EndSplineSet
EndChar

StartChar: E
Encoding: 69 69 37
Width: 572
Flags: W
HStem: -3 37<-4.57755 62.5325> -2.28906 44.2891<208.689 404.783> 310 47<260.989 385.542> 620 37<119.119 170.762 312.359 486.326>
VStem: 407.021 29<234.175 275.196> 444.021 29<399.002 434.894> 519.021 36<511.277 581.026>
LayerCount: 2
Back
SplineSet
106.96 2 m 0x76
 48.96 2 33.96 -2 -12.04 -4 c 17
 -13.04 -3 -14.04 0 -14.04 5 c 0
 -14.04 17 -8.04004 30 -6.04004 30 c 0
 4.95996 30 45.96 42 52.96 55 c 0
 63.96 74 70.96 106 77.96 143 c 2
 150.96 521 l 2
 153.96 539 161.96 576 160.96 599 c 1
 158.96 611 120.96 628 109.96 628 c 0
 108.96 628 107.96 631 107.96 635 c 0
 107.96 644 109.96 657 114.96 662 c 1xae
 114.96 662 194.96 659 245.96 659 c 24
 362.96 660 445.96 664 546.96 664 c 1
 544.96 634 544.96 603 544.96 573 c 0
 544.96 553 544.96 534 544.96 516 c 1
 541.96 513 529.96 511 522.96 511 c 0
 515.96 511 511.96 513 510.96 518 c 0
 496.96 568 447.96 610 398.96 610 c 2
 363.96 610 l 2
 325.96 610 304.96 609 300.96 597 c 0
 293.96 578 284.96 542 280.96 519 c 2
 250.96 365 l 2
 249.96 360 269.96 359 289.96 359 c 2
 368.96 359 l 2
 398.96 359 400.96 362 426.96 421 c 0
 428.96 426 435.96 428 442.96 428 c 0
 449.96 428 459.96 426 461.96 423 c 1
 425.96 234 l 1
 423.96 232 411.96 230 404.96 230 c 0
 397.96 230 392.96 233 391.96 238 c 0
 390.96 267 389.96 283 380.96 292 c 0
 370.96 302 349.96 304 305.96 304 c 0
 279.96 304 238.96 304 236.96 295 c 2
 207.96 141 l 2
 204.96 126 199.96 101 199.96 82 c 0
 199.96 60 201.96 54 260.96 54 c 2
 284.96 54 l 2
 319.96 54 364.96 65 394.96 80 c 0
 414.96 90 453.96 125 478.96 170 c 0
 480.96 174 485.96 176 492.96 176 c 0
 501.96 176 517.96 173 519.96 170 c 1
 491.96 116 450.96 42 435.96 -2 c 1
 334.96 -2 191.96 2 106.96 2 c 0x76
EndSplineSet
Fore
SplineSet
253.021 657 m 0xbe
 292.021 657 502.021 663 557.021 664 c 1
 554.021 614 555.021 561 555.021 516 c 1
 552.021 513 539.021 511 532.021 511 c 0
 525.021 511 520.021 514 519.021 519 c 0
 510.021 574 495.021 620 438.021 620 c 2
 361.021 620 l 0
 340.021 620 319.021 619 312.021 608 c 0
 305.021 596 302.021 576 296.021 547 c 2
 261.021 368 l 2
 260.021 362 279.021 357 299.021 357 c 2
 348.021 357 l 2
 403.021 357 418.021 369 444.021 427 c 0
 446.021 432 449.021 435 456.021 435 c 0
 463.021 435 471.021 433 473.021 430 c 1
 436.021 238 l 1
 434.021 236 425.021 234 418.021 234 c 0
 411.021 234 407.021 237 407.021 242 c 0
 405.021 290 394.021 299 386.021 303 c 0
 376.021 308 352.021 310 317.021 310 c 0
 291.021 310 249.021 308 247.021 296 c 2
 217.021 141 l 2
 216.021 135 205.021 82 209.021 62 c 0
 212.021 48 241.021 42 265.021 42 c 0
 327.021 42 l 2
 362.021 42 394.021 52 420.021 75 c 0
 444.021 96 463.021 125 488.021 170 c 0
 490.021 174 496.021 176 503.021 176 c 0
 512.021 176 527.021 173 529.021 170 c 1
 501.021 116 461.021 42 446.021 -2 c 1
 420.224 -2 245.671 -2 120.021 -2.28906 c 0x7e
 55.709 -2.4375 4.20801 -2.66113 -7.97949 -3 c 1
 -10.9795 3 -6.97949 27 -0.979492 34 c 1
 11.0205 35 55.0205 38 62.0205 51 c 0
 73.0205 71 79.0205 102 87.0205 145 c 2
 159.021 513 l 2
 167.021 556 174.021 587 170.021 607 c 0
 168.021 620 125.021 622 113.021 623 c 1
 110.021 630 116.021 654 121.021 660 c 1
 162.021 657 214.021 657 253.021 657 c 0xbe
EndSplineSet
EndChar

StartChar: F
Encoding: 70 70 38
Width: 525
Flags: W
HStem: -4 37<-4.82419 61.8944 206.897 267.309> 306 47<259.864 384.417> 620 37<118.994 170.637 312.234 486.201>
VStem: 405.896 29<230.175 271.196> 442.896 29<395.002 430.894> 518.896 36<511.277 581.026>
LayerCount: 2
Back
SplineSet
117.96 3 m 0xec
 59.96 3 38.96 -1 -12.04 -4 c 17
 -13.04 -3 -14.04 0 -14.04 5 c 0
 -14.04 17 -8.04004 30 -6.04004 30 c 0
 4.95996 30 45.96 42 52.96 55 c 0
 63.96 74 70.96 106 77.96 143 c 2
 150.96 521 l 2
 153.96 539 161.96 576 160.96 599 c 1
 158.96 611 120.96 628 109.96 628 c 0
 108.96 628 107.96 631 107.96 635 c 0
 107.96 644 109.96 657 114.96 662 c 1xdc
 114.96 662 194.96 659 245.96 659 c 24
 362.96 660 444.96 664 545.96 664 c 1
 543.96 634 543.96 603 543.96 573 c 0
 543.96 553 543.96 534 543.96 516 c 1
 540.96 513 528.96 511 521.96 511 c 0
 514.96 511 510.96 513 509.96 518 c 0
 495.96 568 446.96 610 397.96 610 c 2
 362.96 610 l 2
 324.96 610 303.96 609 299.96 597 c 0
 292.96 578 283.96 542 279.96 519 c 2
 249.96 365 l 2
 248.96 360 268.96 359 288.96 359 c 2
 367.96 359 l 2
 397.96 359 399.96 362 425.96 421 c 0
 427.96 426 434.96 428 441.96 428 c 0
 448.96 428 458.96 426 460.96 423 c 1
 424.96 234 l 1
 422.96 232 410.96 230 403.96 230 c 0
 396.96 230 391.96 233 390.96 238 c 0
 389.96 267 388.96 283 379.96 292 c 0
 369.96 302 348.96 304 304.96 304 c 0
 278.96 304 237.96 304 235.96 295 c 2
 206.96 141 l 2
 199.96 106 197.96 88 197.96 74 c 0
 197.96 31 273.96 30 280.96 30 c 0
 283.96 30 282.96 20 281.96 14 c 0
 280.96 9 278.96 -1 276.96 -4 c 1
 239.96 -2 159.96 3 117.96 3 c 0xec
EndSplineSet
Fore
SplineSet
252.896 657 m 0
 291.896 657 501.896 663 556.896 664 c 1
 553.896 614 554.896 561 554.896 516 c 1
 551.896 513 538.896 511 531.896 511 c 0
 524.896 511 519.896 514 518.896 519 c 0
 509.896 574 494.896 620 437.896 620 c 2
 360.896 620 l 0
 339.896 620 318.896 619 311.896 608 c 0
 304.896 596 301.896 576 295.896 547 c 2
 259.896 364 l 2
 258.896 358 277.896 353 297.896 353 c 2
 346.896 353 l 2
 401.896 353 416.896 365 442.896 423 c 0
 444.896 428 447.896 431 454.896 431 c 0
 461.896 431 469.896 429 471.896 426 c 1
 434.896 234 l 1
 432.896 232 423.896 230 416.896 230 c 0
 409.896 230 405.896 233 405.896 238 c 0
 403.896 286 392.896 295 384.896 299 c 0
 374.896 304 350.896 306 315.896 306 c 0
 289.896 306 247.896 304 245.896 292 c 2
 217.896 145 l 2
 209.896 102 202.896 71 206.896 51 c 0
 208.896 38 258.896 34 270.896 33 c 1
 273.896 26 268.896 2 263.896 -4 c 1
 228.896 0 162.896 3 123.896 3 c 0
 84.8965 3 27.8965 0 -9.10352 -4 c 1
 -12.1035 2 -7.10352 26 -1.10352 33 c 1
 10.8965 34 54.8965 38 61.8965 51 c 0
 72.8965 71 78.8965 102 86.8965 145 c 2
 158.896 513 l 2
 166.896 556 173.896 587 169.896 607 c 0
 167.896 620 124.896 622 112.896 623 c 1
 109.896 630 115.896 654 120.896 660 c 1
 161.896 657 213.896 657 252.896 657 c 0
EndSplineSet
EndChar

StartChar: G
Encoding: 71 71 39
Width: 678
Flags: W
HStem: -7 44<290.36 424.676> 274 37<403.178 457.658 608.574 658.751> 624 43<359.26 523.11>
VStem: 52 144<163.523 404.486> 461 105<101.752 214.497> 591 34<480.548 544.905>
LayerCount: 2
Fore
SplineSet
443 667 m 0
 504 667 585 650 638 638 c 1
 638 627 627 506 625 494 c 0
 624 488 614 480 603 480 c 3
 598 480 594 480 591 484 c 1
 589 523 560 624 443 624 c 0
 312 624 196 478 196 268 c 0
 196 176 234 37 365 37 c 0
 399 37 415 45 422 50 c 0
 426 53 430 58 432 67 c 0
 435 82 447 148 456 196 c 0
 460 216 462 225 461 247 c 0
 459 272 411 274 400 274 c 0
 395 274 401 306 407 311 c 1
 454 309 506 305 553 305 c 0
 592 305 625 309 663 311 c 1
 664 298 658 274 655 274 c 1
 648 274 620 268 608 261 c 0
 602 257 593 237 589 218 c 0
 582 181 573 132 566 98 c 0
 564 89 567 74 566 69 c 0
 564 58 542 42 529 36 c 0
 476 10 423 -7 337 -7 c 0
 142 -7 52 142 52 276 c 0
 52 526 266 667 443 667 c 0
EndSplineSet
EndChar

StartChar: H
Encoding: 72 72 40
Width: 707
Flags: W
HStem: -4 37<-4.82419 61.8944 206.897 259.309 349.298 415.894 560.897 613.309> 317 51<264.582 473.895> 625 37<117.483 169.895 314.898 381.494 471.483 523.895 668.898 735.494>
LayerCount: 2
Back
SplineSet
364.96 369 m 0
 408.96 369 475.96 369 476.96 375 c 2
 504.96 523 l 2
 507.96 541 513.96 574 513.96 600 c 0
 513.96 626 476.96 628 465.96 628 c 0
 464.96 628 463.96 630 463.96 634 c 0
 463.96 643 467.96 658 471.96 662 c 1
 513.96 660 560.96 656 603.96 656 c 0
 644.96 656 686.96 660 724.96 662 c 1
 724.96 660 724.96 658 724.96 656 c 3
 724.96 634 717.96 628 715.96 628 c 0
 708.96 628 664.96 615 658.96 604 c 0
 645.96 580 641.96 555 634.96 519 c 2
 560.96 139 l 2
 554.96 108 549.96 92 549.96 59 c 3
 549.96 43 591.96 30 598.96 30 c 0
 599.96 30 600.96 28 600.96 25 c 0
 600.96 17 596.96 2 592.96 -4 c 1
 555.96 -2 510.96 3 469.96 3 c 0
 426.96 3 383.96 -2 340.96 -4 c 1
 339.96 -3 339.96 -1 339.96 2 c 0
 339.96 12 342.96 30 344.96 30 c 0
 355.96 30 396.96 40 404.96 53 c 0
 414.96 70 424.96 117 428.96 135 c 2
 462.96 304 l 2
 462.96 305 l 3
 462.96 311 395.96 311 352.96 311 c 0
 305.96 311 240.96 311 238.96 303 c 2
 206.96 139 l 2
 200.96 108 196.96 92 196.96 59 c 3
 196.96 43 237.96 30 244.96 30 c 0
 245.96 30 246.96 28 246.96 25 c 0
 246.96 17 243.96 2 239.96 -4 c 1
 202.96 -2 153.96 3 112.96 3 c 0
 69.96 3 29.96 -2 -13.04 -4 c 1
 -14.04 -3 -14.04 -1 -14.04 2 c 0
 -14.04 12 -10.04 30 -8.04004 30 c 0
 2.95996 30 42.96 39 50.96 52 c 0
 60.96 69 72.96 117 75.96 135 c 2
 150.96 523 l 2
 153.96 539 159.96 579 159.96 596 c 0
 159.96 620 118.96 628 111.96 628 c 0
 110.96 628 110.96 629 110.96 632 c 0
 110.96 641 113.96 659 116.96 662 c 1
 158.96 660 195.96 656 238.96 656 c 0
 279.96 656 332.96 660 370.96 662 c 1
 370.96 661 370.96 659 370.96 657 c 3
 370.96 647 366.96 628 362.96 628 c 0
 355.96 628 309.96 615 303.96 604 c 0
 294.96 588 280.96 525 279.96 519 c 2
 252.96 378 l 2
 252.96 377 252.96 377 252.96 376 c 3
 252.96 371 262.96 369 364.96 369 c 0
EndSplineSet
Fore
SplineSet
252.896 655 m 0
 291.896 655 347.896 658 384.896 662 c 1
 387.896 656 383.896 632 377.896 625 c 1
 365.896 624 321.896 620 314.896 607 c 0
 303.896 587 296.896 556 288.896 513 c 2
 261.896 371 l 1
 261.896 369 262.896 368 262.896 368 c 1
 298.896 367 332.896 365 374.896 365 c 0
 408.896 365 449.896 367 483.896 368 c 1
 483.896 368 486.896 370 486.896 372 c 0
 512.896 513 l 2
 520.896 556 527.896 587 523.896 607 c 0
 521.896 620 479.896 624 467.896 625 c 1
 464.896 632 469.896 656 474.896 662 c 1
 509.896 658 567.896 655 606.896 655 c 0
 645.896 655 701.896 658 738.896 662 c 1
 741.896 656 737.896 632 731.896 625 c 1
 719.896 624 675.896 620 668.896 607 c 0
 657.896 587 650.896 556 642.896 513 c 2
 571.896 145 l 2
 563.896 102 556.896 71 560.896 51 c 0
 562.896 38 604.896 34 616.896 33 c 1
 619.896 26 614.896 2 609.896 -4 c 1
 574.896 0 516.896 3 477.896 3 c 0
 438.896 3 382.896 0 345.896 -4 c 1
 342.896 2 346.896 26 352.896 33 c 1
 364.896 34 408.896 38 415.896 51 c 0
 426.896 71 433.896 102 441.896 145 c 2
 473.896 310 l 0
 473.896 312 472.896 315 472.896 315 c 1
 438.896 316 402.896 317 364.896 317 c 0
 261.896 317 253.896 315 250.896 313 c 1
 249.896 312 248.896 309 248.896 309 c 1
 217.896 145 l 2
 209.896 102 202.896 71 206.896 51 c 0
 208.896 38 250.896 34 262.896 33 c 1
 265.896 26 260.896 2 255.896 -4 c 1
 220.896 0 162.896 3 123.896 3 c 0
 84.8965 3 27.8965 0 -9.10352 -4 c 1
 -12.1035 2 -7.10352 26 -1.10352 33 c 1
 10.8965 34 54.8965 38 61.8965 51 c 0
 72.8965 71 78.8965 102 86.8965 145 c 2
 158.896 513 l 2
 166.896 556 173.896 587 169.896 607 c 0
 167.896 620 125.896 624 113.896 625 c 1
 110.896 632 115.896 656 120.896 662 c 1
 155.896 658 213.896 655 252.896 655 c 0
EndSplineSet
EndChar

StartChar: I
Encoding: 73 73 41
Width: 353
Flags: W
HStem: -4 37<-4.82419 61.8944 206.897 259.309> 625 37<117.483 169.895 314.898 381.494>
LayerCount: 2
Fore
SplineSet
252.896 655 m 0
 291.896 655 347.896 658 384.896 662 c 1
 387.896 656 383.896 632 377.896 625 c 1
 365.896 624 321.896 620 314.896 607 c 0
 303.896 587 296.896 556 288.896 513 c 2
 217.896 145 l 2
 209.896 102 202.896 71 206.896 51 c 0
 208.896 38 250.896 34 262.896 33 c 1
 265.896 26 260.896 2 255.896 -4 c 1
 220.896 0 162.896 3 123.896 3 c 0
 84.8965 3 27.8965 0 -9.10352 -4 c 1
 -12.1035 2 -7.10352 26 -1.10352 33 c 1
 10.8965 34 54.8965 38 61.8965 51 c 0
 72.8965 71 78.8965 102 86.8965 145 c 2
 158.896 513 l 2
 166.896 556 173.896 587 169.896 607 c 0
 167.896 620 125.896 624 113.896 625 c 1
 110.896 632 115.896 656 120.896 662 c 1
 155.896 658 213.896 655 252.896 655 c 0
EndSplineSet
EndChar

StartChar: J
Encoding: 74 74 42
Width: 336
Flags: W
HStem: -218 24<-107.309 -88.766> 625 37<111.587 163.999 309.002 375.598>
LayerCount: 2
Fore
SplineSet
247 655 m 0
 286 655 342 658 379 662 c 1
 382 656 378 632 372 625 c 1
 360 624 316 620 309 607 c 0
 298 587 291 556 283 513 c 2
 211 143 l 2
 167 -85 -39 -200 -98 -218 c 1
 -103 -215 -109 -205 -109 -200 c 0
 -109 -197 -108 -195 -107 -194 c 1
 -4 -138 48 -31 80 135 c 2
 153 513 l 2
 161 556 168 587 164 607 c 0
 162 620 120 624 108 625 c 1
 105 632 110 656 115 662 c 1
 150 658 208 655 247 655 c 0
EndSplineSet
EndChar

StartChar: K
Encoding: 75 75 43
Width: 688
Flags: W
HStem: -4 37<-4.82419 61.1013 206.897 258.656 602.104 655.986> 625 37<117.483 169.895 314.898 381.494 487.944 533.848 642.341 721.948>
LayerCount: 2
Fore
SplineSet
520.896 141 m 0
 597.896 26 652.896 29 659.896 29 c 1
 662.896 22 655.896 0 654.896 -2 c 1
 627.896 -4 627.896 -6 589.896 -6 c 0
 490.896 -6 448.896 20 400.896 92 c 0
 377.896 126 303.896 244 266.896 302 c 0
 264.896 305 259.896 306 257.896 306 c 0
 253.896 306 250.896 304 247.896 300 c 1
 217.896 145 l 2
 209.896 102 202.896 71 206.896 51 c 0
 208.896 38 250.896 34 262.896 33 c 1
 265.896 26 260.896 2 255.896 -4 c 1
 220.896 0 162.896 3 123.896 3 c 0
 84.8965 3 27.8965 0 -9.10352 -4 c 1
 -12.1035 2 -7.10352 26 -1.10352 33 c 1
 10.8965 34 54.8965 38 61.8965 51 c 0
 72.8965 71 78.8965 102 86.8965 145 c 2
 158.896 513 l 2
 166.896 556 173.896 587 169.896 607 c 0
 167.896 620 125.896 624 113.896 625 c 1
 110.896 632 115.896 656 120.896 662 c 1
 155.896 658 213.896 655 252.896 655 c 0
 291.896 655 347.896 658 384.896 662 c 1
 387.896 656 383.896 632 377.896 625 c 1
 365.896 624 321.896 620 314.896 607 c 0
 303.896 587 296.896 556 288.896 513 c 2
 254.896 337 l 1
 302.896 372 341.896 403 368.896 428 c 0
 436.896 489 467.896 514 517.896 570 c 0
 529.896 583 532.896 596 533.896 603 c 0
 537.896 624 498.896 626 485.896 626 c 1
 482.896 634 485.896 653 490.896 662 c 1
 524.896 660 576.896 655 610.896 655 c 0
 651.896 655 691.896 658 726.896 662 c 1
 727.896 655 724.896 633 718.896 627 c 1
 709.896 626 643.896 619 604.896 583 c 2
 604.896 583 464.896 455 379.896 376 c 0
 372.896 369 371.896 365 374.896 360 c 0
 428.896 274 467.896 220 520.896 141 c 0
EndSplineSet
EndChar

StartChar: L
Encoding: 76 76 44
Width: 547
Flags: W
HStem: -3 37<-4.57755 62.5325> -2 44<208.689 404.783> 625 37<117.608 170.02 315.023 381.619>
LayerCount: 2
Back
SplineSet
206.96 139 m 2x60
 203.96 121 199.96 101 199.96 82 c 0
 199.96 61 201.96 54 260.96 54 c 2
 284.96 54 l 2xa0
 319.96 54 364.96 65 394.96 80 c 0
 414.96 90 453.96 125 478.96 170 c 0
 480.96 174 485.96 176 492.96 176 c 0
 501.96 176 517.96 173 519.96 170 c 1
 491.96 116 450.96 42 435.96 -2 c 1
 334.96 -2 203.96 2 118.96 2 c 0
 65.96 2 -12.04 -4 -12.04 -4 c 1
 -13.04 -2 -14.04 2 -14.04 5 c 0
 -14.04 17 -9.04004 30 -7.04004 30 c 0
 3.95996 30 48.96 45 54.96 56 c 0
 65.96 79 72.96 118 75.96 135 c 2
 150.96 523 l 2
 153.96 539 159.96 579 159.96 596 c 0
 159.96 620 118.96 628 111.96 628 c 0
 110.96 628 110.96 629 110.96 632 c 0
 110.96 641 113.96 659 116.96 662 c 1
 158.96 660 195.96 656 238.96 656 c 0
 279.96 656 332.96 660 370.96 662 c 1
 370.96 661 370.96 659 370.96 657 c 3
 370.96 647 366.96 628 362.96 628 c 0
 355.96 628 309.96 615 303.96 604 c 0
 294.96 588 280.96 525 279.96 519 c 2
 206.96 139 l 2x60
EndSplineSet
Fore
SplineSet
217.021 141 m 2xa0
 216.021 135 205.021 82 209.021 62 c 0
 212.021 48 241.021 42 265.021 42 c 0
 327.021 42 l 2
 362.021 42 394.021 52 420.021 75 c 0
 444.021 96 463.021 125 488.021 170 c 0
 490.021 174 496.021 176 503.021 176 c 0
 512.021 176 527.021 173 529.021 170 c 1
 501.021 116 461.021 42 446.021 -2 c 1
 420.021 -2 249.021 -2 124.021 -2 c 0x60
 58.0205 -2 5.02051 -3 -7.97949 -3 c 1
 -10.9795 3 -6.97949 27 -0.979492 34 c 1
 11.0205 35 55.0205 38 62.0205 51 c 0
 73.0205 71 79.0205 102 87.0205 145 c 2
 159.021 513 l 2
 167.021 556 174.021 587 170.021 607 c 0
 168.021 620 126.021 624 114.021 625 c 1
 111.021 632 116.021 656 121.021 662 c 1
 156.021 658 214.021 655 253.021 655 c 0
 292.021 655 348.021 658 385.021 662 c 1
 388.021 656 384.021 632 378.021 625 c 1
 366.021 624 322.021 620 315.021 607 c 0
 304.021 587 297.021 556 289.021 513 c 2
 217.021 141 l 2xa0
EndSplineSet
EndChar

StartChar: M
Encoding: 77 77 45
Width: 859
Flags: W
HStem: -4 37<-23.7596 45.7317 146.891 206.303 503.141 571.166 723.655 775.294> 625 37<138.723 187.974 819.159 872.566>
LayerCount: 2
Fore
SplineSet
241.627 656 m 0
 273.627 656 301.627 660 339.627 662 c 1
 354.627 598 396.627 408 433.627 238 c 1
 433.627 238 435.627 236 436.627 236 c 0
 437.627 236 441.627 241 441.627 242 c 2
 441.627 242 547.627 426 610.627 546 c 24
 633.627 589 662.627 658 662.627 658 c 1
 670.627 657 744.627 655 762.627 655 c 0
 794.627 655 834.627 660 872.627 662 c 1
 875.627 658 875.627 632 869.627 624 c 1
 862.627 624 829.627 620 818.627 613 c 0
 807.627 606 801.627 599 797.627 572 c 0
 786.627 502 748.627 280 729.627 152 c 0
 723.627 113 718.627 77 722.627 51 c 0
 725.627 37 770.627 33 777.627 33 c 1
 779.627 24 777.627 6 772.627 -4 c 1
 735.627 -2 688.627 4 647.627 4 c 0
 604.627 4 542.627 -2 499.627 -4 c 1
 496.627 0 501.627 25 505.627 33 c 1
 516.627 33 562.627 38 573.627 52 c 0
 579.627 60 586.627 77 588.627 87 c 0
 590.627 97 595.627 130 598.627 148 c 2
 657.627 497 l 2
 658.627 500 663.627 523 656.627 523 c 0
 654.627 523 653.627 521 650.627 516 c 2
 393.627 40 l 2
 388.627 31 362.627 -2 345.627 -2 c 0
 342.627 -2 340.627 -1 337.627 0 c 1
 231.627 523 l 1
 184.627 315 180.627 291 144.627 134 c 0
 139.627 112 134.627 72 134.627 65 c 0
 135.627 44 202.627 33 209.627 33 c 1
 210.627 26 208.627 6 203.627 -4 c 1
 166.627 -2 131.627 4 90.627 4 c 0
 47.626 4 15.626 -2 -27.374 -4 c 1
 -29.374 3 -26.374 22 -21.374 32 c 1
 -10.374 32 49.626 42 64.627 68 c 0
 70.627 78 88.627 140 92.627 156 c 0
 120.627 273 180.627 534 191.627 581 c 0
 192.627 588 193.627 596 190.627 603 c 0
 185.627 614 150.627 625 134.627 625 c 1
 130.627 633 139.627 660 141.627 662 c 1
 183.627 660 198.627 656 241.627 656 c 0
EndSplineSet
EndChar

StartChar: N
Encoding: 78 78 46
Width: 715
Flags: W
HStem: -4 37<-13.3195 59.541 152.803 215.372> 4 29<-14.4025 53.1689> 625 38<113.256 166.214 535.561 600.76 683.047 763.585> 625 30<540.564 598.858 687.493 766.038>
LayerCount: 2
Fore
SplineSet
220.606 655 m 0x90
 253.606 655 292.606 658 323.606 662 c 1
 343.606 584 456.606 401 541.606 248 c 1
 544.606 255 548.606 275 551.606 289 c 2
 587.606 476 l 0
 594.606 514 606.606 589 602.606 604 c 0
 598.606 622 542.606 626 531.606 626 c 1
 529.606 626 532.606 654 538.606 663 c 1x20
 580.606 661 607.606 655 650.606 655 c 0x10
 691.606 655 731.606 661 769.606 663 c 1
 770.606 657 767.606 635 759.606 625 c 1
 752.606 625 690.606 623 678.606 602 c 0
 671.606 588 651.606 515 644.606 479 c 2
 578.606 139 l 2
 567.606 81 563.606 51 555.606 -1 c 1
 552.606 -4 534.606 -5 531.606 -5 c 0
 523.606 -5 514.606 5 507.606 18 c 2
 225.606 519 l 1
 155.606 157 l 2
 148.606 121 144.606 74 146.606 60 c 0
 149.606 41 211.606 34 218.606 34 c 1
 222.606 24 215.606 2 212.606 -4 c 1xa0
 175.606 -2 137.606 4 96.6064 4 c 0x40
 53.6064 4 24.6064 -2 -18.3936 -4 c 1
 -21.3936 5 -12.3936 33 -10.3936 33 c 1
 0.606445 33 57.6064 41 68.6064 59 c 0
 77.6064 74 92.6064 122 99.6064 160 c 0
 124.606 291 143.159 383.086 168.606 514 c 0
 179.104 568 176.606 585 168.606 604 c 0
 162.606 617 122.606 625 111.606 625 c 0
 106.606 625 110.606 657 116.606 662 c 1
 144.606 660 177.606 655 220.606 655 c 0x90
EndSplineSet
EndChar

StartChar: O
Encoding: 79 79 47
Width: 705
Flags: W
HStem: -10 43<260.896 393.749> 624 43<333.848 462.469>
VStem: 49 144<149.833 390.06> 535 144<259.072 501.723>
LayerCount: 2
Fore
SplineSet
402 624 m 3
 264 624 193 409 193 244 c 0
 193 129 231 33 326 33 c 3
 461 33 535 245 535 410 c 0
 535 525 492 624 402 624 c 3
424 667 m 0
 588 667 679 522 679 393 c 0
 679 137 461 -10 295 -10 c 0
 155 -10 49 115 49 261 c 0
 49 510 259 667 424 667 c 0
EndSplineSet
EndChar

StartChar: P
Encoding: 80 80 48
Width: 557
Flags: W
HStem: -4 37<-4.82419 61.8944 206.897 259.309> 286 41<285.186 362.672> 620 40<117.344 170.827 312.234 402.308>
LayerCount: 2
Fore
SplineSet
572.896 465 m 0
 549.896 345 427.896 286 333.896 286 c 0
 306.896 286 293.778 295.839 286.896 301 c 0
 282.896 304 276.896 319 276.896 324 c 0
 276.896 328 279.896 331 281.896 331 c 1
 290.896 328 297.896 327 311.896 327 c 0
 357.896 327 418.896 385 431.896 451 c 0
 448.896 540 422.896 620 360.896 620 c 0
 339.896 620 318.896 619 311.896 608 c 0
 304.896 596 301.896 576 295.896 547 c 2
 217.896 145 l 2
 209.896 102 202.896 71 206.896 51 c 0
 208.896 38 250.896 34 262.896 33 c 1
 265.896 26 260.896 2 255.896 -4 c 1
 220.896 0 162.896 3 123.896 3 c 0
 84.8965 3 27.8965 0 -9.10352 -4 c 1
 -12.1035 2 -7.10352 26 -1.10352 33 c 1
 10.8965 34 54.8965 38 61.8965 51 c 0
 72.8965 71 78.8965 102 86.8965 145 c 2
 158.896 513 l 2
 166.896 556 173.896 587 169.896 607 c 0
 167.896 620 124.896 622 112.896 623 c 1
 109.896 630 115.896 654 120.896 660 c 1
 161.896 657 213.896 657 252.896 657 c 0
 291.896 657 341.896 660 396.896 660 c 0
 512.896 660 593.896 572 572.896 465 c 0
EndSplineSet
EndChar

StartChar: Q
Encoding: 81 81 49
Width: 706
Flags: W
HStem: -140 67<515.479 616.042> 624 43<334.848 463.469>
VStem: 50 144<149.415 390.06> 536 144<257.372 501.723>
LayerCount: 2
Fore
SplineSet
425 667 m 0
 589 667 680 522 680 393 c 0
 680 179 535 56 406 10 c 1
 486 -36 527 -73 623 -73 c 0
 646 -73 667 -68 674 -66 c 1
 681 -66 689 -70 693 -76 c 1
 681 -86 592 -140 535 -140 c 0
 429 -140 354.806 -57.9893 234 -8 c 0
 118 40 50 141 50 261 c 0
 50 510 260 667 425 667 c 0
403 624 m 0
 265 624 194 409 194 244 c 0
 194 129 232 33 327 33 c 0
 462 33 536 245 536 410 c 0
 536 525 493 624 403 624 c 0
EndSplineSet
EndChar

StartChar: R
Encoding: 82 82 50
Width: 645
Flags: W
HStem: -4 37<-4.82419 61.1013 206.897 257.755 572.818 634.709> 299 39<254.896 276.38> 620 40<117.344 170.827 312.234 407.118>
LayerCount: 2
Fore
SplineSet
252.896 657 m 0
 291.896 657 341.896 660 396.896 660 c 0
 512.896 660 584.896 582 560.896 458 c 0
 543.896 371 434.896 325 395.896 316 c 1
 444.896 218 449.896 200 494.896 130 c 0
 549.896 44 620.896 28 635.896 28 c 1
 638.896 21 634.896 -2 633.896 -4 c 1
 606.896 -6 612.896 -8 574.896 -8 c 0
 421.896 -8 386.896 65 369.896 99 c 0
 274.896 284 l 0
 274.896 284 267.896 299 260.896 299 c 0
 247.896 299 l 9
 217.896 145 l 2
 209.896 102 202.896 71 206.896 51 c 0
 208.896 38 250.896 34 262.896 33 c 1
 265.896 26 260.896 2 255.896 -4 c 1
 220.896 0 162.896 3 123.896 3 c 0
 84.8965 3 27.8965 0 -9.10352 -4 c 1
 -12.1035 2 -7.10352 26 -1.10352 33 c 1
 10.8965 34 54.8965 38 61.8965 51 c 0
 72.8965 71 78.8965 102 86.8965 145 c 2
 158.896 513 l 2
 166.896 556 173.896 587 169.896 607 c 0
 167.896 620 124.896 622 112.896 623 c 1
 109.896 630 115.896 654 120.896 660 c 1
 161.896 657 213.896 657 252.896 657 c 0
254.896 338 m 17
 297.896 338 l 0
 350.896 338 399.896 372 420.896 448 c 0
 440.896 520 436.896 620 360.896 620 c 0
 339.896 620 318.896 619 311.896 608 c 0
 304.896 596 301.896 576 295.896 547 c 2
 254.896 338 l 17
EndSplineSet
EndChar

StartChar: S
Encoding: 83 83 51
Width: 494
Flags: W
HStem: -10 42<135.381 257.585> 628 42<270.06 378.293>
VStem: 33.0859 40<107.755 197.152> 423.086 38<470.012 570.597>
LayerCount: 2
Back
SplineSet
305.16 670 m 0xf8
 360.16 670 396.16 653 456.16 642 c 1
 456.16 642 431.16 465 427.16 465 c 0
 423.16 465 418.16 465 413.16 465 c 0
 401.16 465 391.16 466 391.16 482 c 0xf4
 391.16 520 367.16 614 295.16 614 c 0
 221.16 614 201.16 537 201.16 511 c 0
 201.16 457 260.16 416 309.16 377 c 0
 355.16 340 411.16 316 411.16 228 c 0
 411.16 67 268.16 -10 167.16 -10 c 0
 112.16 -10 55.1602 2 2.16016 16 c 1
 2.16016 16 7.16016 59 7.16016 104 c 3
 7.16016 131 6.16016 176 6.16016 182 c 0
 6.16016 192 26.1602 190 30.1602 190 c 0
 34.1602 190 51.1602 186 54.1602 182 c 1
 54.1602 128 93.1602 47 160.16 47 c 0
 259.16 47 274.16 154 274.16 169 c 0
 274.16 223 207.16 263 170.16 295 c 0
 120.16 337 68.1602 373 68.1602 450 c 0
 68.1602 583 207.16 670 305.16 670 c 0xf8
EndSplineSet
Fore
SplineSet
332.086 670 m 0
 387.086 670 429.086 655 483.086 642 c 1
 477.086 589 470.086 537 461.086 476 c 1
 457.086 472 453.086 470 449.086 470 c 0
 446.086 470 423.086 469 423.086 477 c 0
 426.086 533 400.086 628 328.086 628 c 0
 292.086 628 245.086 608 232.086 541 c 0
 220.086 479 287.086 422 336.086 381 c 0
 389.086 337 456.086 294 433.086 175 c 0
 412.086 65 296.086 -10 194.086 -10 c 0
 139.086 -10 75.0859 2 22.0859 16 c 1
 21.0859 60 29.0859 158 33.0859 186 c 1
 38.0859 192 58.0859 200 63.0859 200 c 0
 70.0859 200 73.0859 198 73.0859 192 c 0
 71.0859 138 109.086 32 193.086 32 c 0
 240.086 32 288.086 58 302.086 129 c 0
 316.086 200 236.086 258 196.086 292 c 0
 138.086 341 79.0859 385 99.0859 489 c 0
 119.086 592 236.086 670 332.086 670 c 0
EndSplineSet
EndChar

StartChar: T
Encoding: 84 84 52
Width: 596
Flags: W
HStem: -4 37<116.402 182.998 328.001 380.413> 613 44<161.131 300 430 560.637>
VStem: 592 36<483.215 572.16>
LayerCount: 2
Fore
SplineSet
364 657 m 0
 528 657 l 0
 595 657 611 676 628 676 c 0
 635 676 636 675 639 673 c 1
 628 489 l 1
 625 486 608 482 600 482 c 0
 595 482 592 483 592 487 c 0
 595 552 564 613 517 613 c 2
 430 613 l 1
 339 145 l 2
 331 102 324 71 328 51 c 0
 330 38 372 34 384 33 c 1
 387 26 382 2 377 -4 c 1
 342 0 285 3 246 3 c 0
 207 3 150 0 113 -4 c 1
 110 2 114 26 120 33 c 1
 132 34 176 38 183 51 c 0
 194 71 201 102 209 145 c 2
 300 613 l 1
 213 613 l 2
 166 613 111 552 89 487 c 0
 87 483 84 482 79 482 c 0
 71 482 56 486 54 489 c 1
 114 673 l 1
 118 675 119 676 126 676 c 0
 143 676 152 657 219 657 c 0
 364 657 l 0
EndSplineSet
EndChar

StartChar: U
Encoding: 85 85 53
Width: 692
Flags: W
HStem: -9 72<269.176 398.791> 625 37<98.9545 151.366 296.369 362.965 528.954 587.547 679.635 753.965>
LayerCount: 2
Fore
SplineSet
234.367 655 m 0
 273.367 655 329.367 658 366.367 662 c 1
 369.367 656 365.367 632 359.367 625 c 1
 347.367 624 303.367 620 296.367 607 c 0
 285.367 587 278.367 556 270.367 513 c 2
 235.367 330 l 2
 222.367 262 214.367 212 225.367 159 c 0
 243.367 71 312.367 63 348.367 63 c 0
 422.367 63 512.367 134 546.367 309 c 2
 579.367 479 l 2
 587.367 522 594.367 581 590.367 601 c 0
 586.367 620 537.367 624 525.367 625 c 1
 522.367 632 527.367 656 532.367 662 c 1
 575.367 658 604.367 655 647.367 655 c 0
 688.367 655 718.367 660 757.367 662 c 1
 760.367 656 756.367 632 750.367 625 c 1
 738.367 624 686.367 622 674.367 601 c 0
 663.367 581 645.367 523 637.367 480 c 2
 599.367 286 l 2
 559.367 82 421.367 -9 287.367 -9 c 0
 209.367 -9 141.367 19 108.367 79 c 0
 81.3672 128 79.3672 197 99.3672 301 c 2
 140.367 513 l 2
 148.367 556 155.367 587 151.367 607 c 0
 149.367 620 107.367 624 95.3672 625 c 1
 92.3672 632 97.3672 656 102.367 662 c 1
 137.367 658 195.367 655 234.367 655 c 0
EndSplineSet
EndChar

StartChar: V
Encoding: 86 86 54
Width: 627
Flags: W
HStem: -11 21G<241.805 251.305> 625 37<62.253 105.92 264.084 325.526 499.253 563.151 641.809 713.403>
LayerCount: 2
Fore
SplineSet
196.805 655 m 0
 235.805 655 292.805 658 329.805 662 c 1
 332.805 656 327.805 632 321.805 625 c 1
 309.805 624 264.805 623 259.805 598 c 0
 256.805 582 261.805 551 267.805 523 c 0
 295.805 390 340.805 186 340.805 186 c 1
 340.805 186 513.805 493 528.805 521 c 0
 541.805 547 560.805 580 564.805 601 c 0
 567.805 619 506.805 624 494.805 625 c 1
 491.805 632 497.805 656 502.805 662 c 1
 545.805 658 568.805 655 611.805 655 c 0
 652.805 655 677.805 660 716.805 662 c 1
 719.805 656 715.805 632 709.805 625 c 1
 697.805 624 655.805 623 641.805 607 c 0
 623.805 587 605.805 557 586.805 524 c 0
 471.805 323 406.805 215 298.805 30 c 0
 287.805 12 256.805 -11 245.805 -11 c 0
 237.805 -11 238.805 -4 235.805 3 c 1
 131.805 510 l 2
 125.805 539 118.805 572 114.805 592 c 0
 108.805 618 69.8047 624 57.8047 625 c 1
 54.8047 632 60.8047 656 65.8047 662 c 1
 100.805 658 157.805 655 196.805 655 c 0
EndSplineSet
EndChar

StartChar: W
Encoding: 87 87 55
Width: 877
Flags: W
HStem: -11 21G<213.307 222.807 535.307 544.807> 625 37<63.7678 111.712 272.893 327.905 744.755 806.739 887.311 959.028>
LayerCount: 2
Fore
SplineSet
199.307 655 m 0
 238.307 655 294.307 658 331.307 662 c 1
 334.307 656 330.307 632 324.307 625 c 1
 312.307 624 264.307 620 264.307 586 c 0
 264.307 581 266.246 552.146 270.307 523 c 0
 287.307 401 308.307 251 308.307 251 c 1
 308.307 251 469.307 560 504.307 625 c 0
 514.307 644 530.307 662 540.307 662 c 0
 544.307 662 546.307 657 548.307 646 c 0
 577.307 478 623.307 214 623.307 214 c 1
 623.307 214 758.307 489 774.307 521 c 0
 786.307 547 804.307 580 808.307 601 c 0
 811.307 619 752.307 624 740.307 625 c 1
 737.307 632 743.307 656 748.307 662 c 1
 791.307 658 814.307 655 857.307 655 c 0
 898.307 655 924.307 660 963.307 662 c 1
 966.307 656 961.307 632 955.307 625 c 1
 943.307 624 901.307 623 887.307 607 c 0
 869.307 587 849.307 559 832.307 524 c 0
 738.307 335 681.307 225 586.307 40 c 0
 573.307 15 550.307 -11 539.307 -11 c 0
 531.307 -11 527.307 -4 524.307 3 c 1
 451.307 418 l 1
 451.307 418 334.307 188 260.307 44 c 0
 254.307 33 228.307 -11 217.307 -11 c 0
 209.307 -11 205.307 -4 202.307 3 c 1
 133.307 510 l 2
 130.307 540 128.307 549 122.307 590 c 0
 118.443 616.402 72.3066 624 60.3066 625 c 1
 56.3066 632 62.3066 656 67.3066 662 c 1
 102.307 658 160.307 655 199.307 655 c 0
EndSplineSet
EndChar

StartChar: X
Encoding: 88 88 56
Width: 659
Flags: W
HStem: -4 37<-53.5776 23.4418 123.068 187.504 317.167 373.639 556.225 612.507> 625 37<91.1981 148.485 313.133 369.317 484.321 539.485 648.207 719.291>
LayerCount: 2
Back
SplineSet
283.24 656 m 0
 329.24 656 380.24 660 418.24 662 c 1
 418.483 660.542 417.992 657.607 417.992 654 c 3
 417.992 642.764 413.025 625 409.24 625 c 0
 396.24 625 360.24 619 356.24 604 c 0
 355.24 598 356.24 588 359.24 582 c 2
 430.24 414 l 1
 489.24 478 584.24 571 588.24 594 c 0
 591.24 611 557.24 625 525.24 625 c 0
 523.301 625 523.745 629.814 523.745 636 c 3
 523.745 645.762 528.567 658.939 532.24 662 c 1
 566.24 660 612.24 656 646.24 656 c 0
 694.24 656 733.24 660 771.24 662 c 1
 771.68 660.679 771.618 658.146 771.618 655 c 3
 771.618 643.854 767.139 625 763.24 625 c 0
 756.24 625 703.24 618 672.24 586 c 2
 454.24 356 l 1
 508.24 229 566.24 93 576.24 76 c 0
 596.24 41 640.24 33 647.24 33 c 0
 650.24 33 646.24 18 645.24 11 c 0
 644.24 6 640.24 -2 639.24 -4 c 1
 602.24 -2 543.24 2 505.24 2 c 0
 453.24 2 409.24 -2 357.24 -4 c 1
 356.142 -2.62793 356.348 0.779297 356.348 5 c 3
 356.348 16.1562 362.612 33 366.24 33 c 0
 376.24 33 420.24 43 423.24 61 c 0
 424.24 64 424.24 69 423.24 72 c 2
 340.24 269 l 1
 319.24 245 173.24 83 170.24 66 c 0
 166.24 44 205.24 33 233.24 33 c 0
 236.24 33 234.24 19 233.24 12 c 0
 232.24 5 229.24 -2 228.24 -4 c 1
 198.24 -2 141.24 2 107.24 2 c 0
 59.2402 2 25.2402 -2 -12.7598 -4 c 1
 -12.7598 -1 -14.7598 5 -13.7598 10 c 0
 -12.7598 16 -8.75977 33 -5.75977 33 c 0
 1.24023 33 62.2402 44 82.2402 67 c 2
 313.24 332 l 1
 228.24 537 l 2
 217.24 563 203.24 600 192.24 610 c 0
 181.24 620 157.24 625 146.24 625 c 0
 144.197 625 144.87 630.341 144.87 637 c 3
 144.87 646.64 149.691 659.043 153.24 662 c 1
 198.24 660 237.24 656 283.24 656 c 0
EndSplineSet
Fore
SplineSet
239.021 656 m 0
 285.021 656 336.021 660 374.021 662 c 1
 375.021 656 370.021 625 365.021 625 c 1
 352.021 625 316.021 619 312.021 604 c 0
 311.021 598 312.021 588 315.021 582 c 2
 386.021 414 l 1
 438.021 471 520.021 551 540.021 584 c 0
 543.021 588 544.021 591 544.021 594 c 0
 547.021 611 514.021 625 482.021 625 c 1
 477.021 625 482.021 657 488.021 662 c 1
 520.021 658 576.021 655 610.021 655 c 0
 658.021 655 695.021 658 723.021 662 c 1
 725.021 656 720.021 625 715.021 625 c 1
 708.021 625 651.021 623 601.021 572 c 2
 402.021 369 l 1
 455.021 242 521.021 93 532.021 76 c 0
 552.021 41 603.021 33 616.021 33 c 1
 618.021 24 615.021 4 609.021 -4 c 1
 572.021 -2 499.021 2 461.021 2 c 0
 409.021 2 365.021 -2 313.021 -4 c 1
 309.021 1 317.021 33 322.021 33 c 0
 332.021 33 377.021 43 380.021 61 c 0
 381.021 64 380.021 69 379.021 72 c 2
 294.021 273 l 1
 276.021 253 164.021 130 129.021 83 c 0
 123.021 75 119.021 69 118.021 66 c 0
 113.021 42 161.021 33 189.021 33 c 1
 192.021 26 190.021 7 185.021 -4 c 1
 155.021 -2 97.0205 2 63.0205 2 c 0
 15.0205 2 -18.9795 -2 -56.9795 -4 c 1
 -59.9795 2 -55.9795 26 -49.9795 33 c 1
 -42.9795 33 22.0205 35 60.0205 79 c 2
 273.021 322 l 1
 185.021 537 l 2
 174.021 564 160.021 600 149.021 610 c 0
 138.021 620 99.0205 625 88.0205 625 c 1
 83.0205 625 89.0205 657 95.0205 662 c 1
 140.021 660 193.021 656 239.021 656 c 0
EndSplineSet
EndChar

StartChar: Y
Encoding: 89 89 57
Width: 576
Flags: W
HStem: -4 37<98.3071 164.903 309.906 362.318> 625 37<73.4927 116.784 276.184 337.503 452.492 511.509 590.668 661.503>
LayerCount: 2
Fore
SplineSet
190.905 145 m 2
 217.905 284 l 0
 218.905 291 217.905 296 215.905 304 c 0
 202.905 359 144.905 537 144.905 537 c 2
 135.905 565 133.905 572 126.905 592 c 0
 117.905 617 81.9053 624 69.9053 625 c 1
 66.9053 632 71.9053 656 76.9053 662 c 1
 111.905 658 169.905 655 208.905 655 c 0
 247.905 655 303.905 658 340.905 662 c 1
 343.905 656 339.905 632 333.905 625 c 1
 321.905 624 276.905 623 271.905 598 c 0
 270.905 594 273.905 589 275.905 582 c 2
 343.905 361 l 1
 347.905 356 447.905 498 503.905 578 c 0
 508.905 586 511.905 594 512.905 601 c 0
 515.905 619 460.905 624 448.905 625 c 1
 445.905 632 450.905 656 455.905 662 c 1
 498.905 658 515.905 655 558.905 655 c 0
 599.905 655 625.905 660 664.905 662 c 1
 667.905 656 663.905 632 657.905 625 c 1
 645.905 624 601.905 623 583.905 600 c 0
 559.905 571 393.905 357 355.905 298 c 0
 350.905 291 347.905 285 346.905 279 c 0
 320.905 145 l 2
 311.905 102 305.905 71 309.905 51 c 0
 311.905 38 353.905 34 365.905 33 c 1
 368.905 26 363.905 2 358.905 -4 c 1
 323.905 0 265.905 3 226.905 3 c 0
 187.905 3 131.905 0 94.9053 -4 c 1
 91.9053 2 95.9053 26 101.905 33 c 1
 113.905 34 157.905 38 164.905 51 c 0
 175.905 71 181.905 102 190.905 145 c 2
EndSplineSet
EndChar

StartChar: Z
Encoding: 90 90 58
Width: 608
Flags: W
HStem: 0 47<156.784 436.009> 610 45<213.326 460.897> 642 20G<149.784 167.784 590.284 631.784>
LayerCount: 2
Fore
SplineSet
290.784 610 m 2xc0
 191.784 610 162.784 536 129.784 474 c 0
 127.784 471 125.784 468 116.784 468 c 0
 106.784 468 92.7842 470 90.7842 473 c 1
 112.784 531 138.784 598 160.784 662 c 1xa0
 174.784 658 268.784 655 281.784 655 c 2
 411.784 656 l 2
 489.784 657 550.784 660 629.784 666 c 1
 633.784 665 634.784 643 632.784 633 c 1
 629.784 625 156.784 47 156.784 47 c 17
 357.784 47 l 2
 392.784 47 426.784 59 452.784 82 c 0
 476.784 103 493.784 125 518.784 170 c 0
 520.784 174 525.784 176 532.784 176 c 0
 541.784 176 557.784 173 559.784 170 c 1
 534.784 117 493.784 44 476.784 1 c 1
 437.784 1 -1.21582 0 -1.21582 0 c 1
 -13.2158 0 -25.2158 18 -21.2158 22 c 2
 461.784 610 l 1
 290.784 610 l 2xc0
EndSplineSet
EndChar

StartChar: bracketleft
Encoding: 91 91 59
Width: 263
Flags: W
HStem: 707 52<220.248 327.641>
LayerCount: 2
Fore
SplineSet
171.155 750 m 2
 173.155 755 176.155 759 180.155 759 c 0
 233.155 759 305.155 761 343.155 765 c 1
 346.155 762 348.155 759 348.155 753 c 0
 348.155 742 338.155 732 329.155 728 c 0
 297.155 714 246.155 709 227.155 707 c 0
 223.155 707 222.155 705 220.155 701 c 2
 70.1553 -56 l 2
 69.1553 -60 72.1553 -62 76.1553 -63 c 0
 95.1553 -68 139.155 -76 169.155 -95 c 0
 177.155 -100 185.155 -108 185.155 -115 c 0
 185.155 -124 181.155 -130 177.155 -133 c 1
 108.155 -120 34.1553 -108 10.1553 -107 c 0
 6.15527 -107 2.15527 -102 3.15527 -97 c 2
 171.155 750 l 2
EndSplineSet
EndChar

StartChar: backslash
Encoding: 92 92 60
Width: 390
Flags: W
VStem: 123 180
LayerCount: 2
Fore
SplineSet
303 -4 m 2
 306 -20 282 -40 271 -40 c 0
 267 -40 263 -40 259 -37 c 1
 207 269 123 755 123 755 c 1
 125 758 131 762 137 762 c 0
 158 762 177 735 179 725 c 2
 303 -4 l 2
EndSplineSet
EndChar

StartChar: bracketright
Encoding: 93 93 61
Width: 260
Flags: W
HStem: -133 42<-58.0608 13.7069> 728 37<94.1361 176.25>
VStem: -60 337
LayerCount: 2
Fore
SplineSet
102 765 m 1
 137 762 210 756 267 756 c 0
 275 756 278 749 277 745 c 0
 276 738 112 -97 112 -97 c 2
 111 -98 108 -105 100 -106 c 0
 35 -112 -14 -121 -53 -133 c 1
 -55 -132 -60 -126 -60 -119 c 0
 -60 -107 -43 -96 -33 -91 c 0
 -9 -79 27 -64 54 -56 c 0
 60 -54 62 -52 63 -48 c 2
 210 697 l 2
 211 702 209 705 203 706 c 0
 179 709 134 716 108 728 c 1
 97 734 93 746 93 755 c 0
 93 763 101 765 102 765 c 1
EndSplineSet
EndChar

StartChar: asciicircum
Encoding: 94 94 62
Width: 323
Flags: W
HStem: 469 221
VStem: 20 283
LayerCount: 2
Fore
SplineSet
20 499 m 1
 28 513 113 567 182 677 c 0
 187 686 187 690 194 690 c 0
 217 690 204 668 244 588 c 0
 260 558 302 505 303 500 c 1
 302 496 292 469 285 469 c 0
 270 469 211 525 177 582 c 1
 125 525 41 469 26 469 c 0
 20 469 20 485 20 499 c 1
EndSplineSet
EndChar

StartChar: underscore
Encoding: 95 95 63
Width: 474
Flags: W
HStem: -45 62<-28.2199 392.216>
LayerCount: 2
Fore
SplineSet
-35.6406 -35 m 1
 -35.6406 -35 -26.6406 17 -12.6406 17 c 2
 405.359 17 l 2
 408.359 17 407.359 13 407.359 9 c 0
 407.359 3 404.359 -13 392.359 -39 c 0
 389.359 -45 383.359 -45 383.359 -45 c 1
 -30.6406 -45 l 1
 -30.6406 -45 -37.6406 -45 -35.6406 -35 c 1
EndSplineSet
EndChar

StartChar: a
Encoding: 97 97 65
Width: 489
Flags: W
HStem: -8 86<69 190 281.5 384> 394 55<228.816 336>
VStem: 11 126<86.0352 221.784>
LayerCount: 2
Fore
SplineSet
318 449 m 0
 354 449 405 438 425 431 c 1
 363 132 l 2
 362 128 359 104 359 99 c 0
 359 90 363 78 373 78 c 0
 395 78 441 133 444 139 c 1
 451 139 458 118 458 112 c 1
 441 80 353 -8 299 -8 c 0
 264 -8 237 14 237 58 c 0
 237 62 238 70 239 77 c 0
 240 85 242 92 243 96 c 1
 222 59 157 -7 97 -7 c 0
 41 -7 11 47 11 115 c 0
 11 294 191 449 318 449 c 0
262 394 m 0
 194 394 137 270 137 152 c 0
 137 104 151 81 173 81 c 0
 207 81 257 182 277 281 c 2
 297 382 l 1
 290 390 276 394 262 394 c 0
EndSplineSet
EndChar

StartChar: b
Encoding: 98 98 66
Width: 465
Flags: W
HStem: -6 45<119.5 221.844> 361 88<257.5 374> 632 29<67.8327 125.927> 676 20G<240 253.5>
VStem: 128 129<558.143 680> 308 129<220.023 359.933>
LayerCount: 2
Fore
SplineSet
280 361 m 0
 235 361 175 255 158 167 c 0
 147 111 147 39 183 39 c 0
 247 39 308 206 308 302 c 0
 308 327 304 361 280 361 c 0
190 336 m 1
 218 379 298 449 346 449 c 0
 402 449 437 410 437 337 c 0
 437 149 265 -6 151 -6 c 0
 88 -6 35 38 35 107 c 0
 35 120 38 148 41 162 c 2
 119 560 l 2
 123 578 128 602 128 613 c 0
 128 632 83 632 67 632 c 1
 64 636 67 657 71 661 c 1
 126 666 229 688 251 696 c 1
 256 693 257 683 257 677 c 0
 257 669 249 626 244 602 c 2
 190 336 l 1
EndSplineSet
EndChar

StartChar: c
Encoding: 99 99 67
Width: 377
Flags: W
HStem: -6 83<105.5 204.587> 399 50<191.531 286>
VStem: 15 126<90.6136 245.809>
LayerCount: 2
Fore
SplineSet
266 449 m 0
 306 449 341 437 354 427 c 1
 360 418 369 400 369 377 c 0
 369 347 343 316 313 316 c 0
 288 316 272 334 262 353 c 0
 253 370 240 399 218 399 c 0
 181 399 141 275 141 170 c 0
 141 102 163 77 203 77 c 0
 248 77 300 137 303 140 c 1
 311 140 316 120 316 114 c 1
 301 91 211 -6 135 -6 c 0
 76 -6 15 37 15 131 c 0
 15 287 146 449 266 449 c 0
EndSplineSet
EndChar

StartChar: d
Encoding: 100 100 68
Width: 487
Flags: W
HStem: -7 88<68 189 287 383> 394 55<261 310> 632 29<280.833 338.927> 676 20G<453 466.5>
VStem: 10 126<86.0352 222.076> 341 129<557.234 680>
LayerCount: 2
Fore
SplineSet
287 353 m 0
 287 383 278 394 261 394 c 0
 193 394 136 270 136 152 c 0
 136 104 150 81 172 81 c 0
 206 81 264 201 276 281 c 2
 276 281 287 340 287 353 c 0
332 560 m 0
 335 578 341 602 341 613 c 0
 341 632 296 632 280 632 c 1
 277 636 280 657 284 661 c 1
 339 666 442 688 464 696 c 1
 469 693 470 683 470 677 c 0
 470 669 462 626 457 602 c 2
 362 132 l 2
 361 128 358 104 358 99 c 0
 358 90 362 78 372 78 c 0
 394 78 440 133 443 139 c 1
 450 139 457 118 457 112 c 1
 440 80 352 -8 298 -8 c 0
 276 -8 259 0 248 16 c 0
 242 25 236 36 236 58 c 0
 236 66 240 88 242 96 c 1
 221 59 156 -7 96 -7 c 0
 40 -7 10 47 10 115 c 0
 10 282 169 429 293 448 c 0
 299 449 304 449 310 449 c 1
 332 560 l 0
EndSplineSet
EndChar

StartChar: e
Encoding: 101 101 69
Width: 394
Flags: W
HStem: -6 83<95.5 223.5> 188 38<145 186.561> 412 37<205.991 293.5>
VStem: 16 124<91.9422 188.325> 260 119<301.561 411.54>
LayerCount: 2
Fore
SplineSet
268 449 m 0
 319 449 379 427 379 357 c 0
 379 254 204 188 142 188 c 1
 141 185 140 168 140 163 c 0
 140 126 151 77 201 77 c 0
 246 77 299 139 302 142 c 1
 311 142 317 118 317 112 c 1
 304 90 194 -6 131 -6 c 0
 60 -6 16 47 16 140 c 0
 16 288 153 449 268 449 c 0
145 226 m 1
 184 226 260 299 260 373 c 0
 260 391 256 412 234 412 c 0
 186 412 150 277 145 226 c 1
EndSplineSet
EndChar

StartChar: f
Encoding: 102 102 70
Width: 318
Flags: W
HStem: -218 46<-75 3.87445> 378 46<51.3211 107 231 334.157> 649 46<282.939 360>
LayerCount: 2
Fore
SplineSet
343 695 m 0
 377 695 406 685 417 677 c 1
 422 669 426 657 426 644 c 0
 426 619 411 595 388 595 c 0
 371 595 357 604 346 619 c 0
 337 632 327 649 309 649 c 0
 278 649 262 583 231 424 c 1
 331 424 l 2
 335 424 336 417 336 412 c 0
 336 402 330 386 325 378 c 1
 222 378 l 1
 222 378 191 184 167 58 c 0
 135 -106 22 -218 -58 -218 c 0
 -92 -218 -121 -208 -132 -200 c 1
 -137 -192 -141 -180 -141 -167 c 0
 -141 -142 -126 -118 -103 -118 c 0
 -86 -118 -72 -127 -61 -142 c 0
 -52 -155 -42 -172 -24 -172 c 0
 15 -172 20 -105 51 54 c 1
 107 378 l 1
 42 378 l 2
 41 378 40 379 40 381 c 0
 40 391 65 424 88 424 c 2
 115 424 l 1
 147 588 276 695 343 695 c 0
EndSplineSet
EndChar

StartChar: g
Encoding: 103 103 71
Width: 444
VWidth: 0
Flags: W
HStem: -226 48<95.4837 240.61> 394 55<364.776 443.808> 419 39<195.864 263.121>
VStem: -57 116<-144.29 -55.5235> 19 169<46.5 115.5> 41 114<206.832 360.454> 274 104<-135.113 10> 280 112<233.352 385.762>
LayerCount: 2
Fore
SplineSet
274 -113 m 0x92
 274 -72 174 -32 115 -14 c 1
 79 -33 59 -53 59 -84 c 0
 59 -149 112 -178 172 -178 c 0
 211 -178 274 -157 274 -113 c 0x92
235 419 m 0xa5
 186 421 158 344 155 277 c 0
 153 230 162 180 199 178 c 0
 243 176 278 242 280 302 c 0
 282 349 274 417 235 419 c 0xa5
364 394 m 1xc4
 368 388 392 360 392 309 c 0
 392 215 302 159 254 140 c 0
 226 129 188 126 188 105 c 0xc9
 188 75 378 60 378 -40 c 0
 378 -135 267 -226 121 -226 c 0
 11 -226 -57 -174 -57 -110 c 0xd2
 -57 -39 31 -13 79 4 c 1
 79 4 41 21 34 28 c 0
 26 36 19 37 19 56 c 0xc8
 19 81 116 133 164 144 c 1
 102 160 41 198 41 277 c 0
 41 376 125 458 223 458 c 1xa4
 262 458 293 445 318 434 c 0
 327 430 391 447 404 449 c 1
 417 445 455 424 455 412 c 0
 455 405 447 394 439 394 c 0
 425 394 377 394 364 394 c 1xc4
EndSplineSet
EndChar

StartChar: h
Encoding: 104 104 72
Width: 504
Flags: W
HStem: -8 86<303.5 405> 339 110<270.5 379> 632 29<70.8327 128.927> 676 20G<243 256.5>
VStem: 131 129<557.059 680> 257 123<34.1714 191.883> 301 122<220.031 398.174>
LayerCount: 2
Fore
SplineSet
247 602 m 0xfa
 247 602 192 323 190 314 c 0
 187 302 184 284 182 274 c 1
 212 342 301 449 351 449 c 3
 407 449 423 419 423 362 c 0xfa
 423 328 408 259 403 233 c 2
 384 132 l 2
 383 128 380 104 380 99 c 0
 380 90 384 78 394 78 c 0
 416 78 462 133 465 139 c 1
 472 139 479 118 479 112 c 1
 462 80 374 -8 320 -8 c 0
 287 -8 257 12 257 63 c 0xf4
 257 77 264 115 266 123 c 1
 289 242 l 2
 292 254 301 308 301 318 c 0
 301 328 296 339 285 339 c 0
 256 339 178 218 150 91 c 10
 130 0 l 17
 120 -3 85 -6 74 -6 c 0
 63 -6 27 -3 15 0 c 1
 21 31 121 554 122 560 c 0
 126 579 131 602 131 613 c 0
 131 632 86 632 70 632 c 1
 67 636 70 657 74 661 c 1
 129 666 232 688 254 696 c 1
 259 693 260 683 260 677 c 0
 260 669 250 616 247 602 c 0xfa
EndSplineSet
EndChar

StartChar: i
Encoding: 105 105 73
Width: 310
VWidth: 0
Flags: W
HStem: -8 86<106.5 208> 363 86<85 186> 540 147<162.393 243.607>
VStem: 60 123<34.1714 189.984> 111 122<251.016 405.986> 135 136<567.686 659.998>
LayerCount: 2
Fore
SplineSet
106 309 m 2xf0
 107 313 111 337 111 342 c 0
 111 351 106 363 96 363 c 0
 74 363 28 308 25 302 c 1
 18 302 11 323 11 329 c 1
 28 361 112 449 166 449 c 0
 206 449 233 424 233 378 c 0xe8
 233 364 226 328 224 318 c 0
 187 132 l 2
 186 128 183 104 183 99 c 0
 183 90 187 78 197 78 c 0
 219 78 265 133 268 139 c 1
 275 139 282 118 282 112 c 1
 265 80 177 -8 123 -8 c 0
 90 -8 60 12 60 63 c 0
 60 77 67 115 69 123 c 1
 106 309 l 2xf0
213 687 m 0
 247 687 271 660 271 625 c 0
 271 581 235 540 193 540 c 0
 159 540 135 568 135 603 c 0xe4
 135 647 171 687 213 687 c 0
EndSplineSet
Substitution2: "'ccmp' Turkish i-1" i.TRK
EndChar

StartChar: j
Encoding: 106 106 74
Width: 286
VWidth: 0
Flags: W
HStem: -218 22<-85.0631 -78.3737> 363 86<95 196> 541 148<185.393 266.607>
VStem: 121 122<247.039 405.986> 158 136<568.686 661.314>
LayerCount: 2
Fore
SplineSet
116 309 m 2xf0
 117 313 121 337 121 342 c 0
 121 351 116 363 106 363 c 0
 84 363 38 308 35 302 c 1
 28 302 21 323 21 329 c 1
 38 361 122 449 176 449 c 0
 216 449 243 424 243 378 c 0
 243 364 236 328 234 318 c 0
 234 318 211 195 196 120 c 0
 180 36 150 -20 109 -75 c 0
 66 -132 -51 -210 -79 -218 c 1
 -84 -218 -88 -205 -88 -196 c 1
 17 -115 47 -49 76 100 c 0
 116 309 l 2xf0
236 689 m 0
 270 689 294 661 294 626 c 0
 294 582 258 541 216 541 c 0
 182 541 158 569 158 604 c 0xe8
 158 648 194 689 236 689 c 0
EndSplineSet
EndChar

StartChar: k
Encoding: 107 107 75
Width: 503
VWidth: 0
Flags: W
HStem: -4 86<282.5 402> 374 75<295.91 405> 632 29<70.8327 128.927> 676 20G<243 256.5>
VStem: 131 129<553.063 680> 329 129<323.305 400>
LayerCount: 2
Back
SplineSet
360 131.97 m 2
 359.316 128 355.84 104.165 355.84 99.0166 c 0
 355.84 89.748 359.916 78 370.316 78 c 0
 392.156 78 438.316 133 441.316 139 c 1
 448.316 139 455.316 118.179 455.316 112 c 1
 438.316 80 350 -7.57129 295.54 -7.57129 c 0
EndSplineSet
Fore
SplineSet
376 449 m 3
 434 449 458 423 458 377 c 0
 458 311 361 255 286 230 c 1
 303 182 347 82 390 82 c 0
 414 82 450 127 458 138 c 1
 468 138 472 117 472 112 c 1
 462 85 381 -4 321 -4 c 0
 244 -4 192 137 171 208 c 1
 156 133 130 0 130 0 c 17
 120 -3 85 -6 74 -6 c 0
 63 -6 27 -3 15 0 c 1
 21 31 121 554 122 560 c 0
 126 579 131 602 131 613 c 0
 131 632 86 632 70 632 c 1
 67 636 70 657 74 661 c 1
 129 666 232 688 254 696 c 1
 259 693 260 683 260 677 c 0
 260 669 250 616 247 602 c 2
 198 341 l 17
 210 367 292 449 376 449 c 3
301 374 m 3
 242 374 179 272 179 248 c 1
 241 248 329 288 329 342 c 3
 329 352 324 374 301 374 c 3
EndSplineSet
EndChar

StartChar: l
Encoding: 108 108 76
Width: 283
Flags: W
HStem: -8 86<77.5 179> 632 29<73.8327 131.927> 676 20G<246 259.5>
VStem: 31 123<34.1714 191.016> 134 129<558.971 680>
LayerCount: 2
Fore
SplineSet
125 560 m 2xf0
 128 578 134 602 134 613 c 0
 134 632 89 632 73 632 c 1
 70 636 73 657 77 661 c 1
 132 666 235 688 257 696 c 1
 262 693 263 683 263 677 c 0xe8
 263 669 255 626 250 602 c 2
 158 132 l 2
 157 126 154 104 154 99 c 0
 154 90 158 78 168 78 c 0
 190 78 236 133 239 139 c 1
 246 139 253 118 253 112 c 1
 236 80 148 -8 94 -8 c 0
 61 -8 31 12 31 63 c 0
 31 77 38 115 40 123 c 1
 125 560 l 2xf0
EndSplineSet
EndChar

StartChar: m
Encoding: 109 109 77
Width: 755
Flags: W
HStem: -8 86<554.5 656> 429 20G<139 186 358 411 582.5 633>
VStem: 111 122<245.644 405.986> 333 122<247.375 398.174> 508 123<34.1714 183.248> 555 122<221.473 398.174>
LayerCount: 2
Fore
SplineSet
517 123 m 0xf8
 527 168 543 242 543 242 c 2
 546 254 555 308 555 318 c 0
 555 328 550 339 539 339 c 0
 510 339 432 218 404 91 c 1
 384 0 l 1
 374 -3 339 -6 328 -6 c 0
 317 -6 281 -3 269 0 c 1
 321 242 l 2
 324 254 333 308 333 318 c 0
 333 328 328 339 317 339 c 0
 288 339 210 218 182 91 c 2
 162 0 l 1
 152 -3 117 -6 106 -6 c 0
 95 -6 59 -3 47 0 c 1
 106 309 l 2
 107 313 111 337 111 342 c 0
 111 351 106 363 96 363 c 0
 74 363 28 308 25 302 c 1
 18 302 11 323 11 329 c 1
 28 361 112 449 166 449 c 0
 206 449 233 424 233 378 c 0
 233 364 226 328 224 318 c 0
 222 306 214 274 214 274 c 1
 244 342 333 449 383 449 c 0
 439 449 455 419 455 362 c 0
 455 346 452 321 448 297 c 1
 485 364 560 449 605 449 c 0
 661 449 677 419 677 362 c 0xf4
 677 325 662 260 657 233 c 0
 652 208 640 160 635 132 c 0
 633 122 631 104 631 99 c 0
 631 90 635 78 645 78 c 0
 667 78 713 133 716 139 c 1
 723 139 730 118 730 112 c 1
 713 80 625 -8 571 -8 c 0
 538 -8 508 12 508 63 c 0
 508 77 515 115 517 123 c 0xf8
EndSplineSet
EndChar

StartChar: n
Encoding: 110 110 78
Width: 536
Flags: W
HStem: -8 86<335.5 437> 339 110<302.5 411> 363 86<85 186>
VStem: 111 122<245.622 405.986> 289 123<34.1714 191.883> 333 122<220.031 398.174>
LayerCount: 2
Fore
SplineSet
224 318 m 0xb4
 222 306 214 273 214 274 c 1
 244 342 333 449 383 449 c 3
 439 449 455 419 455 362 c 0xd4
 455 328 440 259 435 233 c 2
 416 132 l 2
 415 128 412 104 412 99 c 0
 412 90 416 78 426 78 c 0
 448 78 494 133 497 139 c 1
 504 139 511 118 511 112 c 1
 494 80 406 -8 352 -8 c 0
 319 -8 289 12 289 63 c 0xd8
 289 77 296 115 298 123 c 1
 321 242 l 2
 324 254 333 308 333 318 c 0
 333 328 328 339 317 339 c 0xd4
 288 339 210 218 182 91 c 10
 162 0 l 17
 152 -3 117 -6 106 -6 c 0
 95 -6 59 -3 47 0 c 1
 106 309 l 2
 107 313 111 337 111 342 c 0
 111 351 106 363 96 363 c 0
 74 363 28 308 25 302 c 1
 18 302 11 323 11 329 c 1
 28 361 112 449 166 449 c 0
 206 449 233 424 233 378 c 0
 233 364 226 328 224 318 c 0xb4
EndSplineSet
EndChar

StartChar: o
Encoding: 111 111 79
Width: 455
Flags: W
HStem: -6 40<149.948 215.69> 409 40<220.831 285.47>
VStem: 15 125<55.3865 244.792> 296 125<195.799 392.267>
LayerCount: 2
Back
SplineSet
259 403 m 0
 175 403 124 258 124 158 c 0
 124 78 145 27 181 27 c 0
 264 27 312 173 312 273 c 0
 312 353 295 403 259 403 c 0
273 435 m 0
 353 435 390 374 390 288 c 0
 390 148 277 -5 162 -5 c 0
 82 -5 46 52 46 138 c 0
 46 278 158 435 273 435 c 0
262.64 449 m 3
 372.64 449 409.64 376 409.64 287 c 3
 409.64 137 302.64 -6 168.64 -6 c 3
 58.6396 -6 21.6396 67 21.6396 156 c 3
 21.6396 291 128.64 449 262.64 449 c 3
EndSplineSet
Fore
SplineSet
262 409 m 0
 187 409 140 235 140 125 c 0
 140 101 140 34 174 34 c 0
 249 34 296 209 296 312 c 0
 296 345 296 409 262 409 c 0
273 449 m 0
 356 449 421 416 421 297 c 0
 421 153 278 -6 158 -6 c 0
 75 -6 15 46 15 142 c 0
 15 286 153 449 273 449 c 0
EndSplineSet
EndChar

StartChar: p
Encoding: 112 112 80
Width: 496
Flags: W
HStem: -219 32<-53.3779 -10.5283> -210 30<137.7 183.529> -5 44<175.896 249.783> 365 84<297.886 402.896>
VStem: 339.896 129<221.407 360.245>
LayerCount: 2
Fore
SplineSet
300.896 365 m 0x38
 270.896 365 240.896 345 218.896 323 c 1
 213.896 296 183.896 149 183.896 149 c 2
 168.896 72 180.896 39 206.896 39 c 0
 277.896 39 339.896 215 339.896 299 c 0
 339.896 332 332.896 365 300.896 365 c 0x38
370.896 449 m 0
 434.896 449 468.896 398 468.896 328 c 0
 468.896 160 300.896 -5 178.896 -5 c 0
 172.896 -5 160.896 -4 151.896 0 c 1
 125.896 -126 l 2
 123.896 -135 122.896 -144 122.896 -154 c 0
 122.896 -159 126.896 -174 136.896 -177 c 0
 153.896 -181 180.896 -180 183.896 -180 c 0
 187.896 -181 184.896 -209 179.896 -211 c 1
 166.896 -211 155.896 -210 144.896 -210 c 0x78
 93.8965 -210 5.89648 -212 -52.1035 -219 c 1
 -57.1035 -218 -55.1035 -190 -50.1035 -187 c 1xb8
 -32.1035 -187 -19.1035 -182 -10.1035 -171 c 0
 -3.10352 -162 0.896484 -151 5.89648 -128 c 2
 80.8965 232 l 1
 32.8965 184 l 1
 28.8965 189 25.8965 204 25.8965 211 c 0
 25.8965 222 34.8965 234 40.8965 239 c 2
 91.8965 287 l 1
 121.896 444 l 1
 132.896 447 171.896 449 182.896 449 c 0
 193.896 449 230.896 446 240.896 441 c 1
 237.896 423 228.896 382 226.896 373 c 1
 254.896 404 319.896 449 370.896 449 c 0
EndSplineSet
EndChar

StartChar: q
Encoding: 113 113 81
Width: 454
Flags: W
HStem: -220 21G<123 142.5> -210 22<128 276 326.506 360.633> -7 88<65.5 188.5> 394 55<228.323 339.5>
VStem: 11 126<85.6669 220.771>
LayerCount: 2
Fore
SplineSet
357 -211 m 1x78
 343 -211 289 -210 276 -210 c 0x78
 218 -210 161 -216 124 -220 c 1xb8
 122 -218 122 -188 128 -188 c 0
 157 -185 185 -172 190 -146 c 2
 234 84 l 1
 212 49 153 -7 95 -7 c 0
 36 -7 11 56 11 114 c 0
 11 276 173 449 322 449 c 0
 357 449 393 443 419 427 c 1
 364 139 l 2
 363 135 312 -133 312 -133 c 2
 311 -140 310 -148 310 -154 c 0
 310 -170 317 -181 361 -181 c 0
 365 -181 362 -208 357 -211 c 1x78
287 341 m 0
 290 358 289 394 262 394 c 0
 195 394 137 272 137 157 c 0
 137 102 154 81 171 81 c 0
 206 81 259 186 276 275 c 0
 281 302 283 314 287 341 c 0
EndSplineSet
EndChar

StartChar: r
Encoding: 114 114 82
Width: 432
Flags: W
HStem: -6 21G<100.5 111.5> 346 103<300.5 402.104> 363 86<85 186>
VStem: 111 122<236.618 405.986> 210 236<253.5 401.5>
LayerCount: 2
Fore
SplineSet
375 449 m 3xc8
 404 449 413 445 430 436 c 1
 438 426 446 411 446 392 c 0
 446 344 415 320 388 320 c 0
 368 320 354 332 342 338 c 0
 332 343 331 346 315 346 c 0xc8
 286 346 210 218 182 91 c 10
 162 0 l 17
 152 -3 117 -6 106 -6 c 0
 95 -6 59 -3 47 0 c 1
 106 309 l 2
 107 313 111 337 111 342 c 0
 111 351 106 363 96 363 c 0
 74 363 28 308 25 302 c 1
 18 302 11 323 11 329 c 1
 28 361 112 449 166 449 c 0
 206 449 233 424 233 378 c 0xb0
 233 364 226 328 224 318 c 0
 222 306 210 253 210 254 c 1
 235 346 321 449 375 449 c 3xc8
EndSplineSet
EndChar

StartChar: s
Encoding: 115 115 83
Width: 366
Flags: W
HStem: -7 40<96 194.893> 410 39<154.539 249.5>
VStem: 54 92<280 381.074> 206 93<66.3106 168>
LayerCount: 2
Fore
SplineSet
223 449 m 3
 276 449 311 435 333 418 c 1
 342 408 344 386 344 378 c 3
 344 356 326 327 294 327 c 3
 269 327 248 354 235 373 c 0
 222 393 210 410 186 410 c 3
 164 410 146 391 146 364 c 0
 146 327 206 287 243 251 c 0
 267 228 299 199 299 137 c 0
 299 48 213 -7 116 -7 c 3
 76 -7 33 7 11 24 c 1
 2 35 -1 51 -1 62 c 3
 -1 88 18 116 47 116 c 3
 72 116 88 98 107 71 c 0
 124 47 136 33 161 33 c 3
 183 33 206 58 206 76 c 0
 206 120 141 160 103 202 c 0
 78 230 54 250 54 310 c 0
 54 390 126 449 223 449 c 3
EndSplineSet
EndChar

StartChar: t
Encoding: 116 116 84
Width: 328
Flags: W
HStem: -8 86<96.5 198> 378 46<44.3211 109 234 324.431>
VStem: 50 123<34.1714 190.195>
LayerCount: 2
Fore
SplineSet
118 424 m 1
 133 504 l 1
 144 518 235 570 243 570 c 0
 249 570 256 567 260 564 c 1
 234 424 l 1
 322 424 l 2
 326 424 326 417 326 412 c 0
 326 402 321 386 316 378 c 1
 225 378 l 1
 177 132 l 2
 176 126 173 104 173 99 c 0
 173 90 177 78 187 78 c 0
 209 78 255 133 258 139 c 1
 265 139 272 118 272 112 c 1
 255 80 167 -8 113 -8 c 0
 80 -8 50 12 50 63 c 0
 50 77 56 110 59 123 c 2
 109 378 l 1
 35 378 l 2
 34 378 33 379 33 381 c 0
 33 391 58 424 81 424 c 2
 118 424 l 1
EndSplineSet
EndChar

StartChar: u
Encoding: 117 117 85
Width: 533
Flags: W
HStem: -8 110<100.5 215.5> -8 86<328.5 430> 363 86<81 182>
VStem: 63 122<42.0872 220.113> 107 122<248.099 405.986> 282 123<34.1714 197.02>
LayerCount: 2
Fore
SplineSet
289 113 m 0x74
 293 134 298 155 301 166 c 1
 263 85 169 -8 126 -8 c 3xb4
 75 -8 63 17 63 78 c 0x74
 63 110 77 178 82 204 c 8
 90 245 96 268 102 309 c 18
 103 313 107 337 107 342 c 0
 107 351 102 363 92 363 c 0
 70 363 24 308 21 302 c 1
 14 302 7 323 7 329 c 1
 24 361 108 449 162 449 c 0
 202 449 229 424 229 378 c 0x6c
 229 364 222 328 220 318 c 0
 218 306 197 199 197 199 c 2
 195 187 185 133 185 123 c 0
 185 113 190 102 201 102 c 0xb4
 230 102 313 249 338 372 c 10
 352 441 l 17
 362 444 397 447 408 447 c 0
 419 447 455 444 467 441 c 1
 409 132 l 2
 408 127 405 104 405 99 c 0
 405 90 409 78 419 78 c 0
 441 78 487 133 490 139 c 1
 497 139 504 118 504 112 c 1
 487 80 399 -8 345 -8 c 0
 312 -8 282 12 282 63 c 0
 282 70 285 91 289 113 c 0x74
EndSplineSet
EndChar

StartChar: v
Encoding: 118 118 86
Width: 465
VWidth: 0
Flags: W
HStem: -5 21G<118 160.5> 356 93<73.5 185.5>
VStem: 92 122<112.541 355.991> 348 102<281.768 363.379>
LayerCount: 2
Fore
SplineSet
236 112 m 1
 268 135 302 170 324 211 c 0
 346 253 348 286 348 307 c 0
 348 332 331 364 306 384 c 1
 306 421 348 449 372 449 c 0
 410 449 450 425 450 357 c 0
 450 230 192 -5 129 -5 c 1
 107 45 92 168 92 290 c 2
 92 334 l 2
 92 343 91 356 81 356 c 0
 66 356 26 308 23 302 c 1
 16 302 9 323 9 329 c 1
 27 362 110 449 164 449 c 0
 207 449 214 423 214 393 c 2
 214 393 214 373 214 361 c 24
 214 341 l 2
 214 231 228 122 236 112 c 1
EndSplineSet
EndChar

StartChar: w
Encoding: 119 119 87
Width: 726
VWidth: 0
Flags: W
HStem: -5 22G<119 166 383 427> 356 93<72.5 184.5>
VStem: 91 122<125.4 355.991> 347 111<252.389 336.328> 609 102<281.171 363.221>
LayerCount: 2
Fore
SplineSet
458 406 m 1
 458 354 464 287 471 230 c 0
 479 168 489 117 493 112 c 1
 519 126 559 161 585 206 c 0
 607 244 609 279 609 302 c 0
 609 331 592 364 567 384 c 1
 567 421 609 449 633 449 c 0
 671 449 711 425 711 357 c 0
 711 230 464 -4 390 -4 c 1
 376 15 366 58 358 102 c 0
 352 135 348 168 347 192 c 1
 315 125 202 24 130 -5 c 1
 108 45 91 168 91 290 c 2
 91 334 l 2
 91 343 90 356 80 356 c 0
 65 356 25 308 22 302 c 1
 15 302 8 323 8 329 c 1
 26 362 109 449 163 449 c 0
 206 449 213 423 213 393 c 2
 213 393 213 373 213 361 c 0
 213 341 l 2
 213 231 227 131 235 121 c 1
 260 138 291 180 310 218 c 0
 324 246 339 287 345 323 c 1
 353 357 436 406 458 406 c 1
EndSplineSet
EndChar

StartChar: x
Encoding: 120 120 88
Width: 511
VWidth: 0
Flags: W
HStem: -8 86<273.5 377> -7 76<54 126.541> 356 93<113.5 218> 373 76<360.448 429.5>
LayerCount: 2
Fore
SplineSet
204 449 m 0x60
 232 449 246 422 254 393 c 2
 281 297 l 1
 321 375 l 1
 346 421 377 449 417 449 c 0
 442 449 476 440 489 428 c 1
 494 419 501 396 501 380 c 0
 501 353 482 319 446 319 c 0
 422 319 408 337 401 348 c 0
 395 358 386 373 379 373 c 0
 368 373 359 360 347 340 c 2
 295 251 l 1
 335 118 l 2
 341 99 349 78 366 78 c 0
 388 78 434 133 437 139 c 1
 444 139 451 118 451 112 c 1
 434 80 345 -8 291 -8 c 0x90
 256 -8 241 24 229 58 c 0
 229 60 219 96 205 143 c 1
 166 67 l 1
 141 21 110 -7 70 -7 c 0
 38 -7 19 0 3 11 c 1
 -4 17 -12 37 -12 59 c 0
 -12 86 5 123 41 123 c 0
 65 123 79 105 86 94 c 0
 92 85 101 69 108 69 c 0
 118 69 128 75 144 104 c 2
 191 189 l 1
 154 315 l 2
 151 324 141 356 121 356 c 0
 106 356 66 308 63 302 c 1
 56 302 49 323 49 329 c 1
 67 362 150 449 204 449 c 0x60
EndSplineSet
EndChar

StartChar: y
Encoding: 121 121 89
Width: 501
Flags: W
HStem: -218 80<-27.0667 60.5347> 356 93<58.5 200.5>
VStem: 142 121<26 268.767> 369 102<249.552 363.061>
LayerCount: 2
Fore
SplineSet
129 449 m 0
 272 449 263 87 263 26 c 1
 299 70 369 195 369 304 c 0
 369 343 342 372 327 384 c 1
 327 418 365 449 394 449 c 0
 430 449 471 426 471 356 c 0
 471 122 124 -218 -11 -218 c 0
 -47 -218 -76 -199 -76 -156 c 0
 -76 -139 -61 -114 -46 -106 c 1
 -31 -115 15 -138 53 -138 c 0
 115 -138 131 -106 133 -100 c 0
 143 -69 142 8 142 51 c 0
 142 165 120 356 71 356 c 0
 46 356 16 305 13 302 c 1
 5 303 -2 326 -1 329 c 1
 10 348 82 449 129 449 c 0
EndSplineSet
EndChar

StartChar: z
Encoding: 122 122 90
Width: 441
Flags: W
HStem: -3 98<250.833 329> 38 95<69.9431 188> 314 95<235 352.478> 352 98<94 172.167>
LayerCount: 2
Back
SplineSet
120 352 m 0
 159 352 187 314 253 314 c 0
EndSplineSet
Fore
SplineSet
170 450 m 0x10
 212 450 238 440 265 428 c 0
 283 420 309 409 348 409 c 0
 371 409 402 434 418 449 c 1
 438 449 438 430 439 421 c 0
 439 407 135 129 132 125 c 1
 137 127 161 133 174 133 c 0x60
 202 133 229 128 249 118 c 0
 266 110 293 95 314 95 c 0
 344 95 364 136 371 145 c 1
 381 145 388 129 389 121 c 1
 370 82 306 -3 253 -3 c 0x80
 211 -3 185 7 158 19 c 0
 140 27 114 38 75 38 c 0
 52 38 21 13 5 -2 c 1
 -15 -2 -15 17 -16 26 c 1
 -16 42 289 318 291 322 c 1
 286 320 262 314 249 314 c 0x60
 221 314 194 319 174 329 c 0
 157 337 130 352 109 352 c 0
 79 352 59 311 52 302 c 1
 42 302 35 318 34 326 c 1
 53 365 117 450 170 450 c 0x10
EndSplineSet
EndChar

StartChar: braceleft
Encoding: 123 123 91
Width: 248
Flags: W
HStem: -144 22<125.068 132.157> 718 22<285.793 301.728>
VStem: 22.9316 279
LayerCount: 2
Fore
SplineSet
127.932 404 m 0
 132.932 432 126.932 455 123.932 481 c 0
 119.932 503 117.932 526 122.932 554 c 0
 141.932 654 249.932 730 294.932 740 c 1
 300.932 740 305.932 726 301.932 718 c 1
 272.932 704 215.932 657 204.932 599 c 0
 196.932 560 201.932 540 206.932 516 c 0
 210.932 495 215.932 471 207.932 432 c 0
 192.932 356 120.932 303 90.9316 298 c 1
 118.932 293 170.932 240 155.932 164 c 0
 147.932 125 134.932 101 122.932 80 c 0
 108.932 56 95.9316 36 87.9316 -3 c 0
 76.9316 -61 114.932 -108 137.932 -122 c 1
 138.932 -130 128.932 -144 122.932 -144 c 1
 81.9316 -134 3.93164 -58 22.9316 42 c 0
 28.9316 73 42.9316 98 55.9316 122 c 0
 68.9316 145 81.9316 166 86.9316 192 c 0
 96.9316 245 63.9316 275 28.9316 287 c 1
 27.9316 289 26.9316 294 27.9316 298 c 0
 28.9316 302 30.9316 307 32.9316 309 c 1
 72.9316 321 117.932 351 127.932 404 c 0
EndSplineSet
EndChar

StartChar: bar
Encoding: 124 124 92
Width: 200
Flags: W
LayerCount: 2
Fore
SplineSet
172.15 757 m 1
 179.15 762 190.15 766 203.15 766 c 0
 211.15 766 220.15 763 219.15 756 c 2
 49.1504 -116 l 17
 38.1504 -124 21.1504 -125 14.1504 -125 c 0
 5.15039 -125 1.15039 -119 2.15039 -115 c 2
 2.15039 -115 102.15 418 172.15 757 c 1
EndSplineSet
EndChar

StartChar: braceright
Encoding: 125 125 93
Width: 248
Flags: W
HStem: -144 22<-41.1149 -23.6304> 718 22<128.026 135.253>
VStem: -40.1787 277
LayerCount: 2
Fore
SplineSet
136.821 740 m 1
 177.821 730 255.821 654 236.821 554 c 0
 230.821 525 218.821 501 205.821 478 c 0
 192.821 454 178.821 431 173.821 404 c 0
 163.821 351 196.821 321 231.821 309 c 1
 232.821 307 232.821 302 231.821 298 c 0
 230.821 294 229.821 289 227.821 287 c 1
 187.821 275 142.821 245 132.821 192 c 0
 127.821 166 131.821 144 135.821 121 c 0
 139.821 97 142.821 72 136.821 42 c 0
 117.821 -58 9.82129 -134 -35.1787 -144 c 1
 -41.1787 -144 -44.1787 -130 -40.1787 -122 c 1
 -12.1787 -108 43.8213 -61 54.8213 -3 c 0
 61.8213 35 57.8213 56 52.8213 79 c 0
 48.8213 100 43.8213 124 51.8213 164 c 0
 66.8213 240 139.821 293 169.821 298 c 1
 141.821 303 88.8213 356 103.821 432 c 0
 112.821 476 125.821 499 139.821 522 c 0
 152.821 544 164.821 564 171.821 599 c 0
 182.821 657 144.821 704 122.821 718 c 1
 121.821 726 130.821 740 136.821 740 c 1
EndSplineSet
EndChar

StartChar: asciitilde
Encoding: 126 126 94
Width: 538
Flags: W
HStem: 245 61<309.229 443.173> 298 61<113.017 246.942>
LayerCount: 2
Fore
SplineSet
193 359 m 0x40
 280 359 315 306 402 306 c 0
 438 306 464 327 495 350 c 1
 497 349 499 343 499 335 c 0
 499 289 422 245 364 245 c 0x80
 276 245 241 298 153 298 c 0
 117 298 91 277 60 254 c 1
 58 255 56 261 56 269 c 0
 56 318 141 359 193 359 c 0x40
EndSplineSet
EndChar

StartChar: exclamdown
Encoding: 161 161 96
Width: 236
Flags: W
HStem: 293 150<102.002 175.453>
VStem: -28 121<-214.285 -95.7977> 67 140<324.997 408.063>
LayerCount: 2
Fore
SplineSet
22 -238 m 0xc0
 -7 -238 -28 -219 -28 -187 c 0
 -28 -149 76 184 88 220 c 0
 92 232 99 242 104 242 c 0
 117 242 128 231 128 213 c 0
 128 181 98 -141 93 -170 c 0
 85 -213 51 -238 22 -238 c 0xc0
67 351 m 0xa0
 67 401 114 443 154 443 c 0
 186 443 207 417 207 383 c 0
 207 334 164 293 121 293 c 0
 90 293 67 317 67 351 c 0xa0
EndSplineSet
EndChar

StartChar: cent
Encoding: 162 162 97
Width: 406
Flags: W
HStem: -6 83<115.5 214.587> 399 50<201.531 296>
VStem: 25 126<90.6136 245.809>
LayerCount: 2
Back
SplineSet
197 -92 m 1
 466 642 l 1
140 -92 m 1
 409 642 l 1
EndSplineSet
Fore
SplineSet
281 474 m 17
 288 474 317 473 316 466 c 9
 140 -45 l 17
 132 -45 104 -43 105 -36 c 9
 281 474 l 17
EndSplineSet
Refer: 67 99 N 1 0 0 1 10 0 2
EndChar

StartChar: sterling
Encoding: 163 163 98
Width: 475
UnlinkRmOvrlpSave: 1
Flags: W
HStem: -8 102<229.972 349.944> 307 42<75.0691 367.335> 585 56<288.691 391.944>
VStem: 123.444 104<207.188 459.277>
LayerCount: 2
Fore
SplineSet
84.4443 349 m 1
 99.4443 349 368.444 349 378.444 349 c 1
 389.444 338 366.444 311 360.444 307 c 1
 57.4443 307 l 17
 53.4443 313 76.4443 349 84.4443 349 c 1
227.444 270 m 0
 212.444 195 166.444 145 138.444 122 c 1
 157.444 132 181.444 137 202.444 137 c 0
 237.444 137 284.444 94 332.444 94 c 0
 367.444 94 387.444 126 397.444 141 c 1
 401.444 143 408.444 139 411.444 134 c 24
 415.444 128 413.444 121 412.444 115 c 1
 396.444 83 335.444 -8 262.444 -8 c 0
 199.444 -8 162.444 51 93.4443 51 c 0
 76.4443 51 29.4443 10 10.4443 -6 c 1
 3.44434 -6 -1.55566 12 0.444336 21 c 1
 16.4443 44 60.4443 81 75.4443 102 c 1
 96.4443 139 110.444 183 120.444 232 c 0
 130.444 282 117.444 363 123.444 391 c 0
 159.444 567 288.444 641 375.444 641 c 0
 408.444 641 418.444 628 433.444 616 c 1
 443.444 595 424.444 535 385.444 535 c 0
 341.444 535 346.444 585 306.444 585 c 0
 269.444 585 245.444 528 233.444 459 c 0
 221.444 387 238.444 326 227.444 270 c 0
EndSplineSet
EndChar

StartChar: currency
Encoding: 164 164 99
Width: 539
Flags: W
HStem: 120 35<218.799 295.331> 461 35<259.149 333.949>
LayerCount: 2
Fore
SplineSet
255 155 m 0
 301 155 341 219 356 294 c 0
 374 386 347 461 299 461 c 0
 253 461 210 394 195 319 c 0
 177 227 207 155 255 155 c 0
410 455 m 1
 475 510 l 2
 477.861 512.543 481.733 511.448 485.748 508 c 0
 494.362 500.602 503.636 482.37 505 466 c 1
 438 410 l 1
 449 380 452 344 445 307 c 0
 437 267 419 230 393 199 c 1
 432 141 l 2
 433.768 138.642 432.41 134.722 429 130.184 c 0
 420.839 119.326 400.927 104.937 384 100 c 1
 346 155 l 1
 314 133 277 120 240 120 c 0
 200 120 166 135 142 160 c 1
 83 110 l 2
 80.4365 107.722 77.1436 108.363 73.6992 111 c 0
 65.0459 117.623 55.4307 136.835 54 154 c 1
 114 205 l 1
 102 235 99 270 106 307 c 0
 115 351 135 391 164 423 c 1
 126 479 l 2
 124.45 481.067 125.369 484.335 128 488.167 c 0
 135.551 499.167 157.201 514.809 175 520 c 1
 213 465 l 1
 244 485 279 496 314 496 c 0
 354 496 386 481 410 455 c 1
EndSplineSet
EndChar

StartChar: yen
Encoding: 165 165 100
Width: 631
Flags: W
HStem: -4 36<122.208 187.544 327.852 378.446> 130 44<119.703 443.55> 219 44<136.703 460.55> 606 36<97.7595 140.19 295.205 354.858 465.62 523.135 599.47 668.858>
LayerCount: 2
Fore
SplineSet
139.033 219 m 2
 136.033 219 134.033 222 134.033 226 c 0
 134.033 237 139.033 252 149.033 263 c 1
 459.033 263 l 2
 461.033 263 462.033 260 462.033 256 c 0
 462.033 245 460.033 229 449.033 219 c 1
 139.033 219 l 2
122.033 130 m 2
 119.033 130 117.033 133 117.033 137 c 0
 117.033 148 122.033 163 132.033 174 c 1
 442.033 174 l 2
 444.033 174 445.033 171 445.033 167 c 0
 445.033 156 443.033 140 432.033 130 c 1
 122.033 130 l 2
212.033 141 m 2
 238.033 275 l 0
 239.033 282 238.033 287 236.033 295 c 0
 223.033 348 167.033 521 167.033 521 c 2
 158.033 548 157.033 555 150.033 574 c 0
 141.033 598 107.033 605 95.0332 606 c 1
 92.0332 613 96.0332 636 101.033 642 c 1
 135.033 638 192.033 635 230.033 635 c 0
 268.033 635 322.033 638 358.033 642 c 1
 361.033 636 357.033 613 351.033 606 c 1
 339.033 605 296.033 604 291.033 580 c 0
 290.033 576 293.033 572 295.033 565 c 2
 360.033 350 l 1
 364.033 345 462.033 483 516.033 561 c 0
 521.033 569 523.033 576 524.033 583 c 0
 527.033 600 474.033 605 462.033 606 c 1
 459.033 613 464.033 636 469.033 642 c 1
 511.033 638 527.033 635 569.033 635 c 0
 609.033 635 634.033 640 672.033 642 c 1
 675.033 636 671.033 613 665.033 606 c 1
 653.033 605 610.033 604 593.033 582 c 0
 570.033 554 409.033 346 372.033 289 c 0
 367.033 282 364.033 277 363.033 271 c 0
 338.033 141 l 2
 329.033 99 324.033 68 328.033 49 c 0
 330.033 36 370.033 33 382.033 32 c 1
 385.033 25 380.033 2 375.033 -4 c 1
 341.033 0 285.033 3 247.033 3 c 0
 209.033 3 155.033 0 119.033 -4 c 1
 116.033 2 120.033 25 126.033 32 c 1
 138.033 33 180.033 36 187.033 49 c 0
 198.033 68 203.033 99 212.033 141 c 2
EndSplineSet
EndChar

StartChar: brokenbar
Encoding: 166 166 101
Width: 204
Flags: W
LayerCount: 2
Fore
SplineSet
173.15 757 m 1
 180.15 762 191.15 766 204.15 766 c 0
 212.15 766 221.15 763 220.15 756 c 2
 147.15 384 l 17
 136.15 376 119.15 375 112.15 375 c 0
 103.15 375 99.1504 381 100.15 385 c 2
 100.15 385 108.15 417 173.15 757 c 1
76.1504 257 m 1
 83.1504 262 94.1504 266 107.15 266 c 0
 115.15 266 124.15 263 123.15 256 c 2
 50.1504 -116 l 17
 39.1504 -124 22.1504 -125 15.1504 -125 c 0
 6.15039 -125 2.15039 -119 3.15039 -115 c 2
 3.15039 -115 11.1504 -83 76.1504 257 c 1
EndSplineSet
EndChar

StartChar: section
Encoding: 167 167 102
Width: 438
UnlinkRmOvrlpSave: 1
Flags: W
HStem: -92 50<61.1572 157.817> 603 50<285.497 382.157>
LayerCount: 2
Fore
SplineSet
375.657 653 m 0
 271.657 653 176.657 566 160.657 486 c 0
 147.657 418 205.657 364 241.657 320 c 0
 281.657 270 325.657 213 309.657 130 c 0
 300.657 86 283.657 66 255.657 37 c 0
 255.657 37 231.657 15 221.657 -3 c 24
 214.657 -14 216.657 -22 213.657 -34 c 17
 253.657 -8 371.657 105 386.657 184 c 0
 404.657 276 361.657 325 313.657 384 c 0
 278.657 427 217.657 503 226.657 549 c 0
 233.657 587 278.657 603 307.657 603 c 0
 321.657 603 334.657 598 341.657 590 c 0
 348.657 582 357.657 570 375.657 570 c 0
 402.657 570 415.657 588 419.657 610 c 0
 420.657 616 422.657 630 419.657 640 c 1
 407.657 646 388.657 653 375.657 653 c 0
187.657 523 m 0
 187.657 523 211.657 546 221.657 564 c 24
 228.657 575 226.657 583 229.657 595 c 17
 189.657 569 71.6572 456 56.6572 377 c 0
 38.6572 285 81.6572 236 129.657 177 c 0
 164.657 134 225.657 58 216.657 12 c 0
 209.657 -26 164.657 -42 135.657 -42 c 0
 121.657 -42 109.657 -39 103.657 -31 c 0
 96.6572 -22 86.6572 -9 68.6572 -9 c 0
 41.6572 -9 26.6572 -30 22.6572 -52 c 0
 21.6572 -58 21.6572 -71 23.6572 -78 c 1
 33.6572 -84 54.6572 -92 67.6572 -92 c 0
 171.657 -92 266.657 -5 282.657 75 c 0
 295.657 143 237.657 197 201.657 241 c 0
 160.657 291 117.657 348 133.657 431 c 0
 142.657 475 157.657 492 187.657 523 c 0
EndSplineSet
EndChar

StartChar: copyright
Encoding: 169 169 104
Width: 616
Flags: W
HStem: 38 44<203.708 378.389> 163 25<279.835 358.574> 429 26<303.362 382.422> 538 46<252.373 431.702>
VStem: 405.336 20<371.821 401.829>
LayerCount: 2
Fore
SplineSet
341.336 455 m 0
 366.336 455 398.336 444 420.336 439 c 1
 420.336 434 426.336 382 425.336 377 c 0
 425.336 375 415.336 371 410.336 371 c 3
 408.336 371 407.336 370 405.336 372 c 1
 403.336 388 394.336 429 340.336 429 c 0
 286.336 429 258.336 368 251.336 310 c 0
 243.336 246 261.336 188 315.336 188 c 0
 338.336 188 355.336 195 366.336 205 c 0
 384.336 221 398.336 253 399.336 256 c 1
 405.336 256 414.336 255 416.336 252 c 1
 415.336 247 399.336 191 393.336 189 c 0
 368.336 180 336.336 163 301.336 163 c 0
 222.336 163 173.336 217 184.336 305 c 0
 195.336 394 268.336 455 341.336 455 c 0
104.336 310 m 0
 89.3359 184 171.336 82 288.336 82 c 0
 405.336 82 513.336 184 528.336 310 c 0
 543.336 436 461.336 538 344.336 538 c 0
 227.336 538 119.336 436 104.336 310 c 0
350.336 584 m 0
 490.336 584 590.336 462 571.336 311 c 0
 552.336 160 423.336 38 283.336 38 c 0
 143.336 38 44.3359 160 63.3359 311 c 0
 82.3359 462 210.336 584 350.336 584 c 0
EndSplineSet
EndChar

StartChar: ordfeminine
Encoding: 170 170 105
Width: 399
Flags: W
HStem: 247 59<97.5 179.32 253.5 330> 510 44<200.553 293.5>
VStem: 55 92<306.296 415.379>
LayerCount: 2
Fore
SplineSet
266 246 m 0
 241 246 219 257 219 287 c 0
 219 290 220 296 221 301 c 0
 222 306 222 310 223 313 c 1
 208 288 162 247 118 247 c 0
 77 247 55 283 55 329 c 0
 55 450 188 554 280 554 c 0
 307 554 344 547 358 542 c 1
 314 349 l 2
 314 346 311 330 311 327 c 0
 311 321 314 313 322 313 c 0
 338 313 372 350 374 354 c 1
 379 351 384 336 382 327 c 1
 370 305 306 246 266 246 c 0
237 510 m 0
 187 510 147 434 147 354 c 0
 147 322 157 306 173 306 c 0
 198 306 234 374 249 441 c 2
 263 502 l 1
 258 507 247 510 237 510 c 0
EndSplineSet
EndChar

StartChar: guillemotleft
Encoding: 171 171 106
Width: 478
Flags: W
LayerCount: 2
Fore
SplineSet
395.26 92 m 1
 389.26 82 373.26 74 367.26 73 c 1
 363.26 77 308.26 154 202.26 233 c 1
 199.26 237 198.26 243 199.26 248 c 0
 200.26 253 204.26 259 208.26 263 c 1
 345.26 342 430.26 419 435.26 423 c 1
 440.26 422 454.26 414 456.26 404 c 1
 451.26 398 342.26 284 301.26 248 c 1
 328.26 212 392.26 98 395.26 92 c 1
222.26 92 m 1
 216.26 82 199.26 74 193.26 73 c 1
 189.26 77 135.26 154 29.2598 233 c 1
 26.2598 237 24.2598 243 25.2598 248 c 0
 26.2598 253 30.2598 259 34.2598 263 c 1
 171.26 342 256.26 419 261.26 423 c 1
 266.26 422 280.26 414 282.26 404 c 1
 277.26 398 168.26 284 127.26 248 c 1
 154.26 212 219.26 98 222.26 92 c 1
EndSplineSet
EndChar

StartChar: logicalnot
Encoding: 172 172 107
Width: 516
Flags: W
HStem: 318 51<62.6798 396>
LayerCount: 2
Fore
SplineSet
74 369 m 1
 464 369 l 17
 455 322 420 144 420 144 c 2
 419 140 393 128 377 128 c 0
 367 128 360 132 361 136 c 2
 396 318 l 1
 65 318 l 2
 62 318 60 321 60 326 c 0
 60 339 63 356 74 369 c 1
EndSplineSet
EndChar

StartChar: registered
Encoding: 174 174 108
Width: 616
Flags: W
HStem: 89 44<213.208 387.958> 234 16<196.231 223.231 283.395 307.111 433.485 449.336> 355 19<295.336 305.774> 482 19<226.896 250.277 309.435 348.736> 589 46<261.873 441.256>
LayerCount: 2
Fore
SplineSet
342.336 501 m 0
 388.336 501 424.336 475 418.336 427 c 0
 414.336 394 372.336 367 354.336 362 c 1
 376.336 323 402.336 288 402.336 288 c 0
 425.336 255 448.336 251 451.336 251 c 1
 452.336 248 449.336 235 449.336 234 c 1
 438.336 233 422.336 232 407.336 232 c 0
 378.336 232 364.336 245 350.336 268 c 0
 304.336 349 l 0
 304.336 349 301.336 355 298.336 355 c 0
 292.336 355 l 9
 285.336 295 l 2
 283.336 278 281.336 266 283.336 258 c 0
 284.336 253 302.336 250 307.336 250 c 1
 308.336 247 307.336 236 305.336 234 c 1
 290.336 236 267.336 237 251.336 237 c 0
 235.336 237 211.336 236 196.336 234 c 1
 194.336 236 196.336 247 198.336 250 c 1
 203.336 250 221.336 253 223.336 258 c 0
 227.336 266 228.336 278 230.336 295 c 2
 248.336 441 l 2
 250.336 458 252.336 470 250.336 478 c 0
 249.336 483 231.336 484 226.336 484 c 1
 225.336 487 227.336 499 229.336 501 c 1
 246.336 500 268.336 500 284.336 500 c 0
 300.336 500 320.336 501 342.336 501 c 0
328.336 482 m 0
 320.336 482 311.336 482 309.336 478 c 0
 307.336 473 305.336 465 304.336 453 c 2
 295.336 374 l 17
 310.336 374 l 0
 334.336 374 356.336 393 360.336 424 c 0
 364.336 456 353.336 482 328.336 482 c 0
354.336 589 m 0
 237.336 589 129.336 487 114.336 361 c 0
 99.3359 235 181.336 133 298.336 133 c 0
 415.336 133 523.336 235 538.336 361 c 0
 553.336 487 471.336 589 354.336 589 c 0
359.336 635 m 0
 499.336 635 600.336 513 581.336 362 c 0
 562.336 211 432.336 89 292.336 89 c 0
 152.336 89 53.3359 211 72.3359 362 c 0
 91.3359 513 219.336 635 359.336 635 c 0
EndSplineSet
EndChar

StartChar: degree
Encoding: 176 176 110
Width: 281
Flags: W
HStem: 425 46<138.954 226.494> 602 45<155.158 244.692>
VStem: 88.3057 206
LayerCount: 2
Fore
SplineSet
131.306 537 m 0
 124.306 501 145.306 471 178.306 471 c 0
 211.306 471 244.306 501 251.306 537 c 0
 258.306 573 237.306 602 204.306 602 c 0
 171.306 602 138.306 573 131.306 537 c 0
88.3057 537 m 0
 100.306 598 155.306 647 212.306 647 c 0
 269.306 647 306.306 598 294.306 537 c 0
 282.306 476 226.306 425 169.306 425 c 0
 112.306 425 76.3057 476 88.3057 537 c 0
EndSplineSet
EndChar

StartChar: plusminus
Encoding: 177 177 111
Width: 511
Flags: W
HStem: 11 51<12.5193 415.797> 307 51<70.5193 241 305 473.797>
LayerCount: 2
Fore
SplineSet
415 62 m 2
 417 62 418 59 418 54 c 0
 418 41 416 23 405 11 c 1
 14 11 l 2
 11 11 9 14 9 19 c 0
 9 32 14 49 24 62 c 1
 415 62 l 2
72 307 m 2
 69 307 67 310 67 315 c 0
 67 328 72 345 82 358 c 1
 249 358 l 1
 282 529 l 2
 284 542 327 545 331 545 c 0
 339 545 341 541 340 537 c 2
 305 358 l 1
 473 358 l 2
 475 358 476 355 476 350 c 0
 476 337 474 319 463 307 c 1
 297 307 l 1
 262 133 l 2
 260 123 235 117 219 117 c 0
 209 117 204 121 205 125 c 2
 241 307 l 1
 72 307 l 2
EndSplineSet
EndChar

StartChar: uni00B2
Encoding: 178 178 112
Width: 339
Flags: W
HStem: 254 76<145 267.666> 589 55<169.579 272.548>
VStem: 246 90<488.646 582.984>
LayerCount: 2
Back
SplineSet
374.1 552.9 m 0
 374.1 500.44 337.579 460.043 289.78 418.7 c 0
 233.36 369.9 171.36 321.1 172.6 321.1 c 9
 279.24 321.1 l 2
 312.1 321.1 324.5 341.84 331.94 361.36 c 0
 333.112 364.436 336.28 366.85 341.24 366.85 c 0
 345.58 366.85 349.3 364.41 351.78 362.58 c 1
 338.76 332.08 307.76 264.98 302.8 254 c 9
 302.8 254 96.3398 254 92 254 c 1
 89.5195 254 87.04 260.1 87.6602 267.42 c 1
 121.76 297.92 192.172 370.402 227.16 412.6 c 0
 265.6 458.96 286.06 501.66 286.06 539.48 c 0
 286.06 571.2 268.08 593.77 234.6 593.77 c 0
 198.64 593.77 170.12 560.22 165.78 554.73 c 1
 160.2 554.73 154.62 562.05 154 566.93 c 1
 160.82 582.18 219.72 645.62 279.86 645.62 c 0
 325.12 645.62 374.1 612.07 374.1 552.9 c 0
EndSplineSet
Fore
SplineSet
336 553 m 0
 336 498 278 438 236 403 c 0
 203 376 185 357 145 330 c 1
 237 330 l 2
 268 330 280 358 294 380 c 0
 296 383 299 385 303 385 c 0
 307 385 315 384 317 382 c 1
 305 353 263 265 257 254 c 9
 46 254 l 1
 44 257 42 265 42 268 c 1
 97 321 123 347 180 409 c 0
 221 454 246 498 246 537 c 0
 246 569 231 589 199 589 c 0
 158 589 130 552 124 547 c 1
 121 547 109 553 111 565 c 1
 126 588 175 644 240 644 c 0
 305 644 336 599 336 553 c 0
EndSplineSet
EndChar

StartChar: uni00B3
Encoding: 179 179 113
Width: 338
Flags: W
HStem: 245 31<106.305 191.88> 443 24<145.831 178.608> 594 50<173.255 259.317>
VStem: 229.805 93<327.612 434.695> 246.805 80<514.953 589.275>
LayerCount: 2
Fore
SplineSet
242.805 644 m 0xe8
 275.805 644 326.805 630 326.805 568 c 0xe8
 326.805 510 259.805 481 238.805 477 c 1
 256.805 476 322.805 468 322.805 394 c 0
 322.805 294 197.805 245 124.805 245 c 0
 87.8047 245 57.8047 257 47.8047 268 c 1
 44.8047 275 42.8047 288 44.8047 298 c 0
 47.8047 315 62.8047 338 85.8047 338 c 0
 103.805 338 112.805 322 120.805 303 c 0
 127.805 285 140.805 276 155.805 276 c 0
 190.805 276 229.805 320 229.805 372 c 0xf0
 229.805 406 216.805 446 178.805 446 c 0
 174.805 446 157.805 446 147.805 443 c 1
 146.805 446 145.805 449 145.805 454 c 0
 145.805 458 146.805 465 147.805 467 c 1
 177.805 471 246.805 490 246.805 552 c 0
 246.805 573 235.805 594 201.805 594 c 0
 167.805 594 133.805 553 128.805 548 c 1
 124.805 549 111.805 559 115.805 569 c 1
 148.805 613 197.805 644 242.805 644 c 0xe8
EndSplineSet
EndChar

StartChar: acute
Encoding: 180 180 114
Width: 202
Flags: W
HStem: 490 148
VStem: 20 172
LayerCount: 2
Back
SplineSet
304.021 653.988 m 0
 304.021 667.193 285.916 687 254.632 687 c 0
 241.632 687 229.632 683 225.632 678 c 0
 199.996 635.602 165.611 547.513 165.611 540.26 c 0
 165.611 535.76 177.581 522 184.632 522 c 0
 193.337 522 304.021 612.751 304.021 653.988 c 0
EndSplineSet
Fore
Refer: 191 769 N 1 0 0 1 356 0 2
EndChar

StartChar: uni00B5
Encoding: 181 181 115
Width: 529
Flags: W
HStem: -9 99<166.95 226.423> -4 82<346 419.272>
LayerCount: 2
Fore
SplineSet
172 446 m 0x80
 181 446 225 422 222 409 c 0
 220 399 213 355 179 266 c 0
 177 260 165 223 165 223 c 0
 150 144 162 90 193 90 c 0x80
 244 90 271 145 289 204 c 1
 291 212 337 433 337 433 c 17
 352 443 372 447 383 446 c 0
 424 443 446 422 443 409 c 0
 440 391 425 335 391 246 c 0
 389 240 382 223 382 223 c 1
 365 141 357 78 397 78 c 0
 419 78 449 100 457 109 c 1
 460 109 463 101 465 96 c 0
 466 92 465 79 464 76 c 0
 444 32 402 -4 367 -4 c 0x40
 325 -3 307 64 312 128 c 1
 272 58 230 -9 169 -9 c 0
 133 -9 131 42 127 76 c 1
 124 51 66 -123 109 -191 c 1
 103 -199 71 -227 55 -227 c 0
 9 -227 1 -166 1 -127 c 0
 1 -90 52 100 83 204 c 1
 88 228 94 275 98 298 c 0
 101 311 116 390 123 426 c 1
 129 434 161 446 172 446 c 0x80
EndSplineSet
EndChar

StartChar: paragraph
Encoding: 182 182 116
Width: 560
Flags: W
HStem: -82 46<197.555 276.429> 622 37<271.388 431.763 525.479 592.399>
VStem: 68 203<358.892 526.178>
LayerCount: 2
Fore
SplineSet
313.888 659 m 0
 368.888 659 429 655 465 655 c 0
 504 655 560 658 597 662 c 1
 600 656 596 632 590 625 c 1
 578 624 534 620 527 607 c 0
 516 587 509 556 501 513 c 2
 439.553 194 l 2
 407.555 30 294.555 -82 214.555 -82 c 0
 180.555 -82 151.555 -72 140.555 -64 c 1
 135.555 -56 131.555 -44 131.555 -31 c 0
 131.555 -6 146.555 18 169.555 18 c 0
 186.555 18 200.555 9 211.555 -6 c 0
 220.555 -19 230.555 -36 248.555 -36 c 0
 287.555 -36 292.555 31 323.555 190 c 1
 390.33 537 l 2
 396 567 402.33 600 400.33 612 c 0
 398.33 621 389 622 381.441 622 c 0
 337 622 271 554 271 458 c 0
 271 391 286 346 332 324 c 1
 334 323 336 318 336 316 c 0
 336 292 275.887 273 244.888 273 c 0
 122.888 273 68 369 68 440 c 0
 68 584 228.888 659 313.888 659 c 0
EndSplineSet
EndChar

StartChar: periodcentered
Encoding: 183 183 117
Width: 237
Flags: W
HStem: 188 150<78.3839 153.619>
VStem: 47 140<222.562 306.831>
LayerCount: 2
Fore
SplineSet
47 250 m 0
 47 297 90 338 132 338 c 19
 164 338 187 313 187 280 c 0
 187 236 146 188 104 188 c 19
 70 188 47 216 47 250 c 0
EndSplineSet
EndChar

StartChar: uni00B9
Encoding: 185 185 119
Width: 282
Flags: W
HStem: 252 26<55.2412 104.26 204.837 243.678> 621 20G<257.538 261.538>
VStem: 53.5381 217
LayerCount: 2
Fore
SplineSet
157.538 511 m 2
 162.538 538 159.538 558 148.538 558 c 0
 140.538 558 114.538 547 103.538 542 c 1
 99.5381 543 95.5381 554 97.5381 562 c 0
 97.5381 563 98.5381 568 99.5381 569 c 1
 171.538 599 256.538 641 258.538 641 c 2
 259.538 641 l 2
 263.538 641 270.538 624 270.538 621 c 1
 265.538 610 251.538 575 243.538 536 c 2
 206.538 346 l 2
 203.538 328 199.538 298 204.538 291 c 0
 210.538 282 241.538 278 246.538 278 c 1
 248.538 278 242.538 253 241.538 252 c 1
 219.538 253 170.538 256 148.538 256 c 0
 126.538 256 76.5381 253 53.5381 252 c 1
 51.5381 255 55.5381 278 58.5381 278 c 1
 65.5381 278 97.5381 284 105.538 292 c 0
 111.538 298 123.538 336 125.538 347 c 2
 157.538 511 l 2
EndSplineSet
EndChar

StartChar: ordmasculine
Encoding: 186 186 120
Width: 358
Flags: W
HStem: 251 30<156.048 204.971> 523 29<205.921 253.091>
VStem: 57 92.055<284.035 429.082> 260.81 92.056<371.484 522.466>
LayerCount: 2
Back
SplineSet
269 523 m 3
 224 523 208 461 199 413 c 24
 188 355 192 282 237 282 c 3
 282 282 298 343 307 390 c 24
 318 448 314 523 269 523 c 3
282 553 m 0
 369 553 417 489 401 405 c 0
 385 321 307 251 224 251 c 0
 137 251 89 316 105 400 c 0
 121 484 200 553 282 553 c 0
EndSplineSet
Fore
SplineSet
236.94 523 m 0
 182.69 523 149.055 411 149.055 338 c 0
 149.055 322 151.055 281 174.01 281 c 0
 228.26 281 260.81 394 260.81 462 c 0
 260.81 484 257.055 523 236.94 523 c 0
244.535 552 m 0
 304.21 552 352.866 531 352.866 452 c 0
 352.866 357 248.875 251 162.076 251 c 0
 102.4 251 57 285 57 349 c 0
 57 444 157.735 552 244.535 552 c 0
EndSplineSet
EndChar

StartChar: guillemotright
Encoding: 187 187 121
Width: 478
Flags: W
LayerCount: 2
Fore
SplineSet
75 404 m 1
 81 414 98 422 104 423 c 1
 108 419 162 342 268 263 c 1
 271 259 272 253 271 248 c 0
 270 243 266 237 262 233 c 1
 125 154 41 77 36 73 c 1
 31 74 16 82 14 92 c 1
 19 98 128 212 169 248 c 1
 142 284 78 398 75 404 c 1
249 404 m 1
 255 414 271 422 277 423 c 1
 281 419 336 342 442 263 c 1
 445 259 446 253 445 248 c 0
 444 243 440 237 436 233 c 1
 299 154 214 77 209 73 c 1
 204 74 190 82 188 92 c 1
 193 98 302 212 343 248 c 1
 316 284 252 398 249 404 c 1
EndSplineSet
EndChar

StartChar: onequarter
Encoding: 188 188 122
Width: 705
Flags: W
HStem: -1 21G<154.538 195.61 525.538 543.538> 110 42<422.538 516.538 605.538 641.781> 254 23<53.9819 101.182 200.571 244.906>
LayerCount: 2
Fore
SplineSet
637.538 400 m 0
 643.538 400 651.538 389 650.538 384 c 2
 605.538 152 l 25
 638.538 152 l 18
 642.538 152 643.538 147 643.538 142 c 0
 643.538 131 636.538 116 632.538 110 c 1
 596.538 110 l 25
 576.538 3 l 1
 576.538 3 554.538 -1 532.538 -1 c 0
 518.538 -1 494.538 1 495.538 5 c 2
 516.538 110 l 25
 361.538 110 l 1
 357.538 112 355.538 121 356.538 125 c 1
 619.538 390 l 2
 625.538 396 633.538 400 637.538 400 c 0
547.538 282 m 25
 422.538 152 l 25
 523.538 152 l 25
 547.538 282 l 25
97.5381 542 m 1
 93.5381 544 90.5381 557 90.5381 561 c 0
 90.5381 562 91.5381 564 93.5381 566 c 1
 155.538 598 227.538 630 259.538 646 c 9
 261.538 646 l 2
 264.538 646 267.538 632 266.538 624 c 1
 266.538 624 249.538 590 236.538 522 c 2
 203.538 343 l 2
 199.538 323 197.538 298 197.538 295 c 0
 197.538 278 243.538 277 247.538 277 c 0
 249.538 277 247.538 265 246.538 261 c 0
 245.538 258 245.538 255 244.538 254 c 1
 222.538 255 167.538 258 145.538 258 c 0
 123.538 258 75.5381 255 52.5381 254 c 1
 50.5381 257 54.5381 277 57.5381 277 c 0
 64.5381 277 97.5381 281 103.538 291 c 0
 107.538 298 110.538 312 112.538 324 c 2
 148.538 508 l 2
 155.538 544 160.538 563 148.538 563 c 0
 144.538 563 108.538 547 97.5381 542 c 1
632.538 633 m 2
 181.538 -8 l 1
 181.538 -8 154.538 -7 154.538 4 c 0
 154.538 6 155.538 8 156.538 10 c 26
 608.538 651 l 1
 608.538 651 633.538 649 633.538 638 c 0
 633.538 636 633.538 634 632.538 633 c 2
EndSplineSet
EndChar

StartChar: onehalf
Encoding: 189 189 123
Width: 747
Flags: W
HStem: -2 76<511.538 634.204> 254 23<53.9819 101.182 200.571 244.906> 333 55<536.117 639.086>
VStem: 612.538 90<232.646 326.984>
LayerCount: 2
Fore
SplineSet
702.538 297 m 0
 702.538 242 644.538 182 602.538 147 c 0
 569.538 120 551.538 101 511.538 74 c 1
 603.538 74 l 2
 634.538 74 646.538 102 660.538 124 c 0
 662.538 127 665.538 129 669.538 129 c 0
 673.538 129 681.538 128 683.538 126 c 1
 671.538 97 629.538 9 623.538 -2 c 9
 412.538 -2 l 1
 410.538 1 408.538 9 408.538 12 c 1
 463.538 65 489.538 91 546.538 153 c 0
 587.538 198 612.538 242 612.538 281 c 0
 612.538 313 597.538 333 565.538 333 c 0
 524.538 333 496.538 296 490.538 291 c 1
 487.538 291 475.538 297 477.538 309 c 1
 492.538 332 541.538 388 606.538 388 c 0
 671.538 388 702.538 343 702.538 297 c 0
97.5381 542 m 1
 93.5381 544 90.5381 557 90.5381 561 c 0
 90.5381 562 91.5381 564 93.5381 566 c 1
 155.538 598 227.538 630 259.538 646 c 9
 261.538 646 l 2
 264.538 646 267.538 632 266.538 624 c 1
 266.538 624 249.538 590 236.538 522 c 2
 203.538 343 l 2
 199.538 323 197.538 298 197.538 295 c 0
 197.538 278 243.538 277 247.538 277 c 0
 249.538 277 247.538 265 246.538 261 c 0
 245.538 258 245.538 255 244.538 254 c 1
 222.538 255 167.538 258 145.538 258 c 0
 123.538 258 75.5381 255 52.5381 254 c 1
 50.5381 257 54.5381 277 57.5381 277 c 0
 64.5381 277 97.5381 281 103.538 291 c 0
 107.538 298 110.538 312 112.538 324 c 2
 148.538 508 l 2
 155.538 544 160.538 563 148.538 563 c 0
 144.538 563 108.538 547 97.5381 542 c 1
632.538 633 m 2
 181.538 -8 l 1
 181.538 -8 154.538 -7 154.538 4 c 0
 154.538 6 155.538 8 156.538 10 c 26
 608.538 651 l 1
 608.538 651 633.538 649 633.538 638 c 0
 633.538 636 633.538 634 632.538 633 c 2
EndSplineSet
EndChar

StartChar: threequarters
Encoding: 190 190 124
Width: 712
Flags: W
HStem: -1 21G<158.805 199.877 533.805 551.805> 110 42<430.805 524.805 613.805 650.048> 245 31<101.305 186.88> 443 24<140.831 173.608> 594 50<168.255 254.317>
VStem: 224.805 93<327.612 434.695> 241.805 80<514.953 589.275>
LayerCount: 2
Fore
SplineSet
645.805 400 m 0xf8
 651.805 400 659.805 389 658.805 384 c 2
 613.805 152 l 25
 646.805 152 l 18
 650.805 152 651.805 147 651.805 142 c 0
 651.805 131 644.805 116 640.805 110 c 1
 605.805 110 l 25
 584.805 3 l 1
 584.805 3 562.805 -1 540.805 -1 c 0
 526.805 -1 503.805 1 504.805 5 c 2
 524.805 110 l 25
 369.805 110 l 1
 365.805 112 363.805 121 364.805 125 c 1
 627.805 390 l 2
 633.805 396 641.805 400 645.805 400 c 0xf8
555.805 282 m 25
 430.805 152 l 25
 531.805 152 l 25
 555.805 282 l 25
237.805 644 m 0
 270.805 644 321.805 630 321.805 568 c 0xfa
 321.805 510 254.805 481 233.805 477 c 1
 251.805 476 317.805 468 317.805 394 c 0
 317.805 294 192.805 245 119.805 245 c 0
 82.8047 245 52.8047 257 42.8047 268 c 1
 39.8047 275 37.8047 288 39.8047 298 c 0
 42.8047 315 57.8047 338 80.8047 338 c 0
 98.8047 338 107.805 322 115.805 303 c 0
 122.805 285 135.805 276 150.805 276 c 0
 185.805 276 224.805 320 224.805 372 c 0xfc
 224.805 406 211.805 446 173.805 446 c 0
 169.805 446 152.805 446 142.805 443 c 1
 141.805 446 140.805 449 140.805 454 c 0
 140.805 458 141.805 465 142.805 467 c 1
 172.805 471 241.805 490 241.805 552 c 0xfa
 241.805 573 230.805 594 196.805 594 c 0
 162.805 594 128.805 553 123.805 548 c 1
 119.805 549 106.805 559 110.805 569 c 1
 143.805 613 192.805 644 237.805 644 c 0
636.805 633 m 2
 185.805 -8 l 1
 185.805 -8 158.805 -7 158.805 4 c 0
 158.805 6 159.805 8 160.805 10 c 26
 612.805 651 l 1
 612.805 651 637.805 649 637.805 638 c 0
 637.805 636 637.805 634 636.805 633 c 2
EndSplineSet
EndChar

StartChar: questiondown
Encoding: 191 191 125
Width: 364
Flags: W
HStem: -208 73<61.9877 164.5> 311 138<214 287.443>
VStem: -20 73<-130.113 -46.876> 183 92<102.729 185.885> 187 126<335.383 422.244>
LayerCount: 2
Fore
SplineSet
313 378 m 0xe8
 306 341 272 311 237 311 c 27
 203 311 180 341 187 378 c 0
 194 415 227 449 262 449 c 27
 298 449 320 415 313 378 c 0xe8
149 223 m 1
 149 229 157 240 162 243 c 1
 186 243 275 192 275 136 c 3
 275 70 220 44 194 26 c 0
 167 7 117 -11 84 -39 c 0
 64 -56 53 -71 53 -96 c 3
 53 -120 65 -135 90 -135 c 0
 120 -135 151 -84 181 -84 c 0
 227 -84 239 -133 224 -171 c 1
 212 -186 188 -208 141 -208 c 0
 58 -208 -20 -136 -20 -62 c 0
 -20 -7 -7 34 68 81 c 0
 84 91 117 105 144 123 c 0
 166 137 183 154 183 171 c 3xf0
 183 200 157 218 149 223 c 1
EndSplineSet
EndChar

StartChar: AE
Encoding: 198 198 132
Width: 864
Flags: W
HStem: -3 37<-63.1016 -2.21389 308.467 373.704> -2.28906 44.2891<518.755 715.067> 270 48<260.286 401.239> 302 47<543.13 672.807> 620 37<367.759 389.272 571.578 746.12>
VStem: 700.286 29<226.106 283.319> 720.286 28<387.185 426.857> 786.286 36<511.204 571.025>
LayerCount: 2
Back
SplineSet
420 497 m 25
 130 100 l 25
480 471 m 25
 190 74 l 25
EndSplineSet
Fore
SplineSet
507.286 657 m 0xad
 546.286 657 756.286 663 811.286 664 c 1
 813.286 614 818.286 561 822.286 516 c 1
 819.286 513 807.286 511 800.286 511 c 0
 793.286 511 787.286 514 786.286 519 c 0
 772.286 574 753.286 620 696.286 620 c 2
 619.286 620 l 2
 598.286 620 577.286 619 571.286 608 c 0
 565.286 596 563.286 576 560.286 547 c 2
 542.286 360 l 2
 542.286 354 561.286 349 581.286 349 c 2
 630.286 349 l 2
 685.286 349 699.286 361 720.286 419 c 0
 722.286 424 724.286 427 731.286 427 c 0
 738.286 427 746.286 425 748.286 422 c 1x1b
 729.286 230 l 1
 727.286 228 719.286 226 712.286 226 c 0
 705.286 226 700.286 229 700.286 234 c 0
 694.286 282 681.286 291 673.286 295 c 0
 663.286 300 639.286 302 604.286 302 c 0
 578.286 302 536.286 300 535.286 288 c 2
 519.286 141 l 2
 518.286 135 513.286 82 519.286 62 c 0
 523.286 48 553.286 42 577.286 42 c 2
 639.286 42 l 2
 674.286 42 705.286 52 729.286 75 c 0
 751.286 96 767.286 125 788.286 170 c 0
 790.286 174 795.286 176 802.286 176 c 0
 811.286 176 827.286 173 829.286 170 c 1
 806.286 116 773.286 42 762.286 -2 c 1
 736.489 -2 561.938 -2 436.286 -2.28906 c 0x5d
 371.976 -2.4375 320.475 -2.66113 308.286 -3 c 1
 304.286 3 306.286 27 311.286 34 c 1
 323.286 35 367.286 38 373.286 51 c 0
 382.286 71 385.286 102 389.286 145 c 2
 401.286 265 l 2
 400.286 266 399.286 269 397.286 269 c 0
 362.286 271 340.286 270 317.286 270 c 0
 279.286 270 264.286 270 231.286 269 c 0
 228.286 269 223.286 266 222.286 264 c 2
 222.286 264 151.286 163 132.286 135 c 0
 116.286 110 95.2861 74 93.2861 67 c 0
 86.2861 41 148.286 33 155.286 33 c 1
 158.286 26 156.286 0 152.286 -4 c 1
 120.286 0 81.2861 4 40.2861 4 c 0
 -2.71387 4 -28.7139 0 -61.7139 -4 c 1
 -64.7139 0 -67.7139 21 -60.7139 32 c 1
 -49.7139 32 0.286133 48 13.2861 64 c 0
 37.2861 92 45.2861 106 65.2861 134 c 2
 381.286 590 l 0
 381.286 590 389.286 602.901 389.286 608 c 0
 389.286 618 370.286 623 364.286 623 c 1
 360.286 630 365.286 654 369.286 660 c 1
 410.286 657 468.286 657 507.286 657 c 0xad
431.286 567 m 1
 260.286 325 l 1
 260.286 325 260.286 321 262.286 321 c 0
 280.286 319 305.286 318 326.286 318 c 0x29
 355.286 318 373.286 318 402.286 320 c 0
 404.286 320 407.286 325 407.286 325 c 1
 427.286 513 l 2
 429.286 534 430.286 552 431.286 567 c 1
EndSplineSet
EndChar

StartChar: Eth
Encoding: 208 208 142
Width: 721
Flags: W
HStem: -3 42<-1.34706 66.9245 210.858 371.117> 304 39<51.6816 391.88> 620 40<118.469 171.951 313.359 445.554>
LayerCount: 2
Fore
SplineSet
60 343 m 1
 88 343 377 343 390 343 c 0
 394 343 396 339 395 335 c 0
 394 330 389 311 384 304 c 1
 356 304 66 304 53 304 c 0
 49 304 49 311 50 315 c 0
 51 320 53 336 60 343 c 1
EndSplineSet
Refer: 36 68 N 1 0 0 1 0.999681 0 2
EndChar

StartChar: multiply
Encoding: 215 215 149
Width: 436
Flags: W
VStem: 180 68<231.125 264>
LayerCount: 2
Fore
SplineSet
39 70 m 0
 33 70 24 97 24 113 c 1
 178 248 l 2
 179 249 180 250 180 251 c 0
 180 253 180 255 179 256 c 2
 78 393 l 1
 78 407 105 429 110 429 c 0
 114 429 112 427 114 425 c 2
 218 284 l 2
 219 283 221 282 222 282 c 2
 224 283 l 26
 382 424 l 2
 384 426 386 427 388 427 c 0
 395 427 403 401 403 383 c 1
 250 247 l 2
 249 246 248 246 248 245 c 3
 248 244 248 244 249 243 c 2
 349 107 l 1
 349 93 329 70 322 70 c 0
 318 70 316 71 315 73 c 2
 212 213 l 2
 211 214 210 215 209 215 c 0
 208 215 206 214 205 213 c 2
 44 73 l 2
 42 71 41 70 39 70 c 0
EndSplineSet
EndChar

StartChar: Oslash
Encoding: 216 216 150
Width: 705
Flags: W
HStem: -10 43<260.896 393.749> 624 43<333.848 462.469>
VStem: 49 144<149.833 390.06> 535 144<259.072 501.723>
LayerCount: 2
Fore
SplineSet
104 -13 m 17
 96 -10 75 6 80 12 c 9
 596 669 l 17
 604 667 626 651 621 645 c 9
 104 -13 l 17
EndSplineSet
Refer: 47 79 N 1 0 0 1 0 0 3
EndChar

StartChar: Thorn
Encoding: 222 222 156
Width: 556
Flags: W
HStem: -4 37<-4.82419 61.8944 206.897 259.309> 135 44<253.726 337.115> 472 41<292.989 374.942> 623 37<118.994 170.239 312.606 379.786>
LayerCount: 2
Fore
SplineSet
363.896 513 m 0
 482.896 513 564.896 424 543.896 317 c 0
 520.896 197 398.896 135 304.896 135 c 0
 271.896 135 258.896 147 253.896 154 c 0
 250.896 158 248.896 171 248.896 176 c 0
 248.896 180 250.896 183 252.896 183 c 1
 261.896 180 268.896 179 282.896 179 c 0
 328.896 179 389.896 237 402.896 303 c 0
 419.896 392 393.896 472 331.896 472 c 0
 310.896 472 292.896 468 283.896 456 c 0
 275.847 445.267 272.896 428 266.896 399 c 2
 217.896 145 l 2
 209.896 102 202.896 71 206.896 51 c 0
 208.896 38 250.896 34 262.896 33 c 1
 265.896 26 260.896 2 255.896 -4 c 1
 220.896 0 162.896 3 123.896 3 c 0
 84.8965 3 27.8965 0 -9.10352 -4 c 1
 -12.1035 2 -7.10352 26 -1.10352 33 c 1
 10.8965 34 54.8965 38 61.8965 51 c 0
 72.8965 71 78.8965 102 86.8965 145 c 2
 158.896 513 l 2
 166.896 556 173.896 587 169.896 607 c 0
 167.896 620 124.896 622 112.896 623 c 1
 109.896 630 115.896 654 120.896 660 c 1
 161.896 657 213.896 657 252.896 657 c 0
 291.896 657 347.896 660 384.896 664 c 1
 387.896 658 383.896 634 377.896 627 c 1
 365.896 626 321.896 622 314.896 609 c 0
 304.896 591 297.896 559 290.896 520 c 0
 290.896 520 290.896 509 292.896 509 c 0
 294.896 509 295.896 510 297.896 510 c 0
 311.896 513 342.896 513 363.896 513 c 0
EndSplineSet
EndChar

StartChar: germandbls
Encoding: 223 223 157
Width: 527
Flags: W
HStem: -218 46<-76 3.00062> -4 34<306.786 371.763> 378 46<51.3211 107> 655 40<306.896 380.567>
VStem: 261 99<306.059 366.295> 382 91<61.9563 150.5> 400 107<491.815 637.081>
LayerCount: 2
Back
SplineSet
306 309 m 3
 306 398 446 422 446 566 c 3
EndSplineSet
Fore
SplineSet
230 424 m 0xfa
 206 282 190 184 166 58 c 0
 134 -106 21 -218 -59 -218 c 0
 -93 -218 -122 -208 -133 -200 c 1
 -138 -192 -142 -180 -142 -167 c 0
 -142 -142 -127 -118 -104 -118 c 0
 -87 -118 -73 -127 -62 -142 c 0
 -53 -155 -43 -172 -25 -172 c 0
 14 -172 20 -105 51 54 c 1
 107 378 l 1
 42 378 l 2
 41 378 40 379 40 381 c 0
 40 391 65 424 88 424 c 2
 115 424 l 1
 147 588 288 695 368 695 c 0
 434 695 507 648 507 570 c 0xfa
 507 468 407 414 376 391 c 0
 363 382 360 371 360 361 c 3
 360 334 389 295 410 266 c 0
 449 213 473 174 473 127 c 0
 473 57 400 -4 321 -4 c 3
 261 -4 247 0 230 11 c 1
 224 16 213 29 213 52 c 0
 213 80 238 97 259 97 c 3
 296 97 291 30 340 30 c 0
 356 30 382 44 382 76 c 0xfc
 382 107 336 157 309 193 c 0
 280 232 261 264 261 310 c 0
 261 360 314 398 344 430 c 0
 359 446 400 492 400 556 c 0
 400 568 398 655 347 655 c 0
 289 655 253 563 230 424 c 0xfa
EndSplineSet
EndChar

StartChar: ae
Encoding: 230 230 164
Width: 607
Flags: W
HStem: -8 70<62.999 177.993> -6 83<323.037 438.499> 188 38<359.999 401.56> 411 38<184.185 280.442 417.506 508.499>
VStem: 235.759 119.24<91.8924 188> 474.999 119<301.561 411.54>
LayerCount: 2
Fore
SplineSet
448.999 412 m 0x3c
 400.999 412 364.999 277 359.999 226 c 1
 398.999 226 474.999 299 474.999 373 c 0
 474.999 391 470.999 412 448.999 412 c 0x3c
235.759 90.8828 m 1
 232.626 105.715 234.267 186.015 240.213 208.847 c 1
 218.944 204.6 176.896 188.598 166.999 182 c 0
 151.999 172 130.999 146 127.999 124 c 1
 119.999 81 145.999 62 167.999 62 c 0xbc
 187.988 62 226.101 82.8398 235.759 90.8828 c 1
258.999 449 m 0
 301.884 449 336.142 427.258 353.66 391.073 c 1
 394.356 426.701 440.201 449 482.999 449 c 0
 533.999 449 593.999 427 593.999 357 c 0
 593.999 254 418.999 188 356.999 188 c 1
 355.999 185 354.999 168 354.999 163 c 0
 354.999 126 365.999 77 415.999 77 c 0
 460.999 77 513.999 139 516.999 142 c 1
 525.999 142 531.999 118 531.999 112 c 1
 518.999 90 408.999 -6 345.999 -6 c 0x7c
 300.075 -6 265.446 16.1738 246.715 57.0039 c 1
 231.404 46.0859 125.936 -8 95.999 -8 c 0
 29.999 -8 -5.00098 55 5.99902 114 c 0
 13.999 153 42.999 186 66.999 194 c 0
 102.999 206 172.999 228 238.999 249 c 0
 244.131 250.633 245.438 254.035 245.999 263 c 2
 248.999 311 l 2
 249.512 319.363 249.824 327.784 249.824 336 c 0
 249.824 376 242.708 411 216.999 411 c 0
 183.999 411 167.999 372 149.999 327 c 0
 140.826 304.068 123.999 283 93.999 283 c 0
 70.999 283 50.999 303 55.999 331 c 0
 58.999 344 66.999 358 76.999 372 c 1
 90.999 385 181.999 449 258.999 449 c 0
EndSplineSet
EndChar

StartChar: eth
Encoding: 240 240 174
Width: 463
VWidth: 0
UnlinkRmOvrlpSave: 1
Flags: W
HStem: -7 41<150.671 213.08> 409 40<219.645 296.776> 674 21<149.314 157.869>
LayerCount: 2
Fore
SplineSet
172.633 509 m 17
 168.633 516 158.633 536 163.633 541 c 9
 413.633 705 l 17
 417.633 699 428.633 679 423.633 674 c 9
 172.633 509 l 17
144.633 674 m 1
 145.633 681 150.633 695 157.633 695 c 1
 297.633 656 464.633 509 416.633 263 c 0
 387.633 115 248.633 -7 158.633 -7 c 0
 36.6328 -7 0.632812 94 21.6328 204 c 0
 42.6328 312 164.633 449 270.633 449 c 0
 288.633 449 304.633 447 311.633 446 c 1
 311.633 508 289.633 598 144.633 674 c 1
284.633 217 m 0
 295.633 272 307.633 355 304.633 369 c 0
 296.946 404.874 273.633 409 259.633 409 c 0
 199.633 409 163.633 304 147.633 210 c 0
 130.882 111.591 136.633 34 172.633 34 c 0
 222.633 34 265.633 119 284.633 217 c 0
EndSplineSet
EndChar

StartChar: divide
Encoding: 247 247 181
Width: 535
VWidth: 0
Flags: W
HStem: 0 112<194.306 267.101> 223 51<49.5193 479.797> 385 112<267.738 340.533>
VStem: 179 104<15.7791 97.0155> 252.432 104<400.779 482.016>
CounterMasks: 1 e0
LayerCount: 2
Fore
SplineSet
51 223 m 2xe0
 48 223 46 226 46 231 c 0
 46 244 51 261 61 274 c 1
 479 274 l 2
 481 274 482 271 482 266 c 0
 482 253 480 235 469 223 c 1
 51 223 l 2xe0
311.432 497 m 0
 337.432 497 356.432 477 356.432 450 c 0
 356.432 417 329.432 385 296.432 385 c 0
 270.432 385 252.432 406 252.432 433 c 0xe8
 252.432 466 278.432 497 311.432 497 c 0
238 112 m 0
 264 112 283 92 283 65 c 0
 283 32 256 0 223 0 c 0
 197 0 179 21 179 48 c 0xf0
 179 81 205 112 238 112 c 0
EndSplineSet
EndChar

StartChar: oslash
Encoding: 248 248 182
Width: 455
Flags: W
HStem: -6 40<149.948 215.69> 409 40<220.831 285.47>
VStem: 15 125<55.3865 244.792> 296 125<195.799 392.267>
LayerCount: 2
Fore
SplineSet
334 459 m 17
 340 459 361 455 362 449 c 9
 110 -19 l 17
 104 -20 86 -16 82 -8 c 9
 334 459 l 17
EndSplineSet
Refer: 79 111 N 1 0 0 1 0 0 3
EndChar

StartChar: thorn
Encoding: 254 254 188
Width: 497
Flags: W
HStem: -219 32<-52.3779 -9.52833> -210 30<138.7 184.529> -5 44<176.896 250.783> 365 84<298.886 403.896> 633 29<97.7291 155.823> 677 20G<269.896 283.396>
VStem: 157.896 129<556.66 681> 340.896 129<221.407 360.245>
LayerCount: 2
Fore
SplineSet
273.896 603 m 2xbf
 270.896 585 229.896 382 227.896 373 c 1
 255.896 404 320.896 449 371.896 449 c 0
 435.896 449 469.896 398 469.896 328 c 0
 469.896 160 301.896 -5 179.896 -5 c 0
 173.896 -5 161.896 -4 152.896 0 c 1
 126.896 -126 l 2
 124.896 -135 123.896 -144 123.896 -154 c 0
 123.896 -159 127.896 -174 137.896 -177 c 0
 154.896 -181 181.896 -180 184.896 -180 c 0
 188.896 -181 185.896 -209 180.896 -211 c 1
 167.896 -211 156.896 -210 145.896 -210 c 0x7f
 94.8965 -210 6.89648 -212 -51.1035 -219 c 1
 -56.1035 -218 -54.1035 -190 -49.1035 -187 c 1
 -31.1035 -187 -18.1035 -182 -9.10352 -171 c 0
 -2.10352 -162 1.89648 -151 6.89648 -128 c 2
 81.8965 232 l 1
 33.8965 184 l 1
 29.8965 189 26.8965 204 26.8965 211 c 0
 26.8965 222 35.8965 234 41.8965 239 c 2
 92.8965 287 l 1
 148.896 561 l 2
 152.896 579 157.896 603 157.896 614 c 0
 157.896 633 112.896 633 96.8965 633 c 1
 93.8965 637 96.8965 658 100.896 662 c 1
 155.896 667 258.896 689 280.896 697 c 1
 285.896 694 286.896 684 286.896 678 c 0
 286.896 670 278.896 627 273.896 603 c 2xbf
301.896 365 m 0
 271.896 365 241.896 345 219.896 323 c 1
 214.896 296 184.896 149 184.896 149 c 2
 169.896 72 181.896 39 207.896 39 c 0
 278.896 39 340.896 215 340.896 299 c 0
 340.896 332 333.896 365 301.896 365 c 0
EndSplineSet
EndChar

StartChar: gravecomb
Encoding: 768 768 190
Width: 0
VWidth: 1002
GlyphClass: 4
Flags: W
HStem: 490 148
VStem: -346 172
LayerCount: 2
Fore
SplineSet
-183 490 m 1
 -200 494 -346 562 -346 597 c 0
 -346 624 -318 638 -301 638 c 0
 -288 638 -274 635 -270 631 c 0
 -240 603 -177 512 -174 502 c 1
 -175 496 -180 492 -183 490 c 1
EndSplineSet
EndChar

StartChar: acutecomb
Encoding: 769 769 191
Width: 0
VWidth: 1002
GlyphClass: 4
Flags: W
HStem: 490 148
VStem: -336 172
LayerCount: 2
Back
SplineSet
163 512 m 1
 160 514 155 518 154 524 c 1
 157 534 220 625 250 653 c 0
 254 657 272 660 284 660 c 0
 317 660 326 645 326 628 c 0
 326 600 180 516 163 512 c 1
EndSplineSet
Fore
SplineSet
-327 490 m 1
 -330 492 -335 496 -336 502 c 1
 -333 512 -270 603 -240 631 c 0
 -236 635 -222 638 -209 638 c 0
 -192 638 -164 624 -164 597 c 0
 -164 562 -310 494 -327 490 c 1
EndSplineSet
EndChar

StartChar: uni2010
Encoding: 8208 8208 197
Width: 288
Flags: W
VStem: 64 257<206.461 266.565>
LayerCount: 2
Fore
SplineSet
88 267 m 2
 315 279 l 2
 320 279 321 272 321 267 c 0
 321 254 305 205 295 204 c 10
 69 193 l 2
 66 193 64 200 64 208 c 0
 64 219 77 266 88 267 c 2
EndSplineSet
EndChar

StartChar: uni2011
Encoding: 8209 8209 198
Width: 288
Flags: W
VStem: 64 257<206.461 266.565>
LayerCount: 2
Fore
SplineSet
88 267 m 2
 315 279 l 2
 320 279 321 272 321 267 c 0
 321 254 305 205 295 204 c 10
 69 193 l 2
 66 193 64 200 64 208 c 0
 64 219 77 266 88 267 c 2
EndSplineSet
EndChar

StartChar: figuredash
Encoding: 8210 8210 199
Width: 462
Flags: W
HStem: 194 74<71.5838 467.416>
LayerCount: 2
Fore
SplineSet
470 268 m 2
 477 268 477 258 477 252 c 0
 477 230 460 199 455 194 c 9
 69 194 l 2
 62 194 62 204 62 210 c 0
 62 232 79 263 84 268 c 9
 470 268 l 2
EndSplineSet
EndChar

StartChar: endash
Encoding: 8211 8211 200
Width: 462
Flags: W
HStem: 194 74<71.5838 467.416>
LayerCount: 2
Fore
SplineSet
470 268 m 2
 477 268 477 258 477 252 c 0
 477 230 460 199 455 194 c 9
 69 194 l 2
 62 194 62 204 62 210 c 0
 62 232 79 263 84 268 c 9
 470 268 l 2
EndSplineSet
EndChar

StartChar: emdash
Encoding: 8212 8212 201
Width: 824
Flags: W
HStem: 194 74<71.5838 820.416>
LayerCount: 2
Fore
SplineSet
823 268 m 2
 830 268 830 258 830 252 c 0
 830 230 813 199 808 194 c 9
 69 194 l 2
 62 194 62 204 62 210 c 0
 62 232 79 263 84 268 c 9
 823 268 l 2
EndSplineSet
EndChar

StartChar: afii00208
Encoding: 8213 8213 202
Width: 1005
Flags: W
HStem: 194 74<71.5838 1004.42>
LayerCount: 2
Fore
SplineSet
1007 268 m 2
 1014 268 1014 258 1014 252 c 0
 1014 230 997 199 992 194 c 9
 69 194 l 2
 62 194 62 204 62 210 c 0
 62 232 79 263 84 268 c 9
 1007 268 l 2
EndSplineSet
EndChar

StartChar: quoteleft
Encoding: 8216 8216 203
Width: 168
Flags: W
HStem: 474 232
VStem: 142 99<491.816 580.445>
LayerCount: 2
Fore
SplineSet
142 555 m 0
 160 649 265 706 273 706 c 0
 280 706 287 699 289 688 c 1
 226 652 221 623 219 614 c 0
 214 588 220 572 227 560 c 0
 235 547 244 538 241 524 c 0
 236 500 204 474 174 474 c 0
 167 474 149 478 142 485 c 1
 136 498 136 525 142 555 c 0
EndSplineSet
EndChar

StartChar: quoteright
Encoding: 8217 8217 204
Width: 175
Flags: W
HStem: 474 232
VStem: 175 99<599.555 688.184>
LayerCount: 2
Fore
SplineSet
274 625 m 0
 256 531 151 474 143 474 c 0
 136 474 129 481 127 492 c 1
 190 528 195 557 197 566 c 0
 202 592 196 608 189 620 c 0
 181 633 172 642 175 656 c 0
 180 680 212 706 242 706 c 0
 249 706 267 702 274 695 c 1
 280 682 280 655 274 625 c 0
EndSplineSet
EndChar

StartChar: quotesinglbase
Encoding: 8218 8218 205
Width: 180
Flags: W
HStem: -107 232
VStem: 50 98<7.57574 108.101>
LayerCount: 2
Fore
SplineSet
149 44 m 0
 131 -50 25 -107 17 -107 c 0
 10 -107 3 -100 1 -89 c 1
 64 -53 69 -24 71 -15 c 0
 76 11 69 27 62 39 c 0
 54 52 47 61 50 75 c 0
 55 99 86 125 116 125 c 0
 123 125 141 121 148 114 c 1
 154 101 155 74 149 44 c 0
EndSplineSet
EndChar

StartChar: quotedblleft
Encoding: 8220 8220 206
Width: 305
Flags: W
HStem: 474 232
VStem: 142 99<491.816 580.445> 280 98<490.899 588.652>
LayerCount: 2
Fore
SplineSet
279 555 m 0
 297 649 403 706 411 706 c 0
 418 706 425 699 427 688 c 1
 364 652 359 623 357 614 c 0
 352 588 358 572 365 560 c 0
 373 547 381 538 378 524 c 0
 373 500 342 474 312 474 c 0
 305 474 287 478 280 485 c 1
 274 498 273 525 279 555 c 0
142 555 m 0
 160 649 265 706 273 706 c 0
 280 706 287 699 289 688 c 1
 226 652 221 623 219 614 c 0
 214 588 220 572 227 560 c 0
 235 547 244 538 241 524 c 0
 236 500 204 474 174 474 c 0
 167 474 149 478 142 485 c 1
 136 498 136 525 142 555 c 0
EndSplineSet
EndChar

StartChar: quotedblright
Encoding: 8221 8221 207
Width: 313
Flags: W
HStem: 474 232
VStem: 175 99<599.555 688.184> 313 99<591.348 689.101>
LayerCount: 2
Fore
SplineSet
274 625 m 0
 256 531 151 474 143 474 c 0
 136 474 129 481 127 492 c 1
 190 528 195 557 197 566 c 0
 202 592 196 608 189 620 c 0
 181 633 172 642 175 656 c 0
 180 680 212 706 242 706 c 0
 249 706 267 702 274 695 c 1
 280 682 280 655 274 625 c 0
412 625 m 0
 394 531 288 474 280 474 c 0
 273 474 266 481 264 492 c 1
 327 528 332 557 334 566 c 0
 339 592 333 608 326 620 c 0
 318 633 310 642 313 656 c 0
 318 680 349 706 379 706 c 0
 386 706 405 702 412 695 c 1
 418 682 418 655 412 625 c 0
EndSplineSet
EndChar

StartChar: quotedblbase
Encoding: 8222 8222 208
Width: 319
Flags: W
HStem: -108 232
VStem: 50 99<17.5546 106.184> 188 99<6.57574 107.101>
LayerCount: 2
Fore
SplineSet
149 43 m 0
 131 -51 26 -108 18 -108 c 0
 11 -108 4 -101 2 -90 c 1
 65 -54 70 -25 72 -16 c 0
 77 10 70 26 63 38 c 0
 55 51 47 60 50 74 c 0
 55 98 87 124 117 124 c 0
 124 124 142 120 149 113 c 1
 155 100 155 73 149 43 c 0
287 43 m 0
 269 -51 163 -108 155 -108 c 0
 148 -108 141 -101 139 -90 c 1
 202 -54 207 -25 209 -16 c 0
 214 10 207 26 200 38 c 0
 192 51 185 60 188 74 c 0
 193 98 224 124 254 124 c 0
 261 124 280 120 287 113 c 1
 293 100 293 73 287 43 c 0
EndSplineSet
EndChar

StartChar: dagger
Encoding: 8224 8224 209
Width: 366
Flags: W
HStem: 432 91<134.058 185.829 369.939 419.191> 463 25<192.477 247.602 298.97 362.826> 642 20G<301.5 322>
VStem: 172 18<-23.1803 16.439>
LayerCount: 2
Fore
SplineSet
236 488 m 8x70
 248 488 254 492 266 505 c 1
 272 538 275 606 261 625 c 1
 265 646 291 662 312 662 c 0
 332 662 351 646 347 625 c 1
 326 606 302 538 296 505 c 1
 303 492 308 488 320 488 c 0x70
 351 488 381 504 402 523 c 1
 422 523 433 497 429 476 c 0
 425 455 405 432 385 432 c 1xb0
 371 451 346 462 315 463 c 24
 301 463 286 447 284 435 c 1
 287 418 295 394 301 365 c 1
 254 227 247 185 190 -10 c 1
 186 -17 184 -23 179 -24 c 1
 175 -23 174 -15 172 -10 c 1
 191 185 200 227 206 365 c 1
 221 390 240 418 250 435 c 1
 252 447 245 463 231 463 c 24x70
 199 462 170 451 149 432 c 1
 129 432 119 455 123 476 c 0
 127 497 147 523 167 523 c 1xb0
 181 504 205 488 236 488 c 8x70
EndSplineSet
EndChar

StartChar: daggerdbl
Encoding: 8225 8225 210
Width: 380
Flags: W
HStem: 115 91<78.7691 127.061 311.625 363.603> 150 25<134.889 198.03 248.892 305.139> 432 91<141.07 193.375 377.533 426.231> 463 25<198.912 255.459 306.02 370.187> 642 20G<308.5 329>
LayerCount: 2
Back
SplineSet
151 248 m 2
 158 248 159 253 159 275 c 2
 159 370 l 2
 159 375 156 379 151 379 c 0
 146 379 141 379 136 379 c 0
 98 379 73 376 31 374 c 1
 32 383 33 392 33 401 c 0
 33 412 32 424 31 435 c 1
 73 433 98 430 136 430 c 0
 141 430 146 430 151 430 c 0
 155 430 159 434 159 438 c 0
 159 513 154 554 150 629 c 1
 162 627 173 625 184 625 c 0
 195 625 207 627 219 629 c 1
 215 554 210 513 210 438 c 0
 210 434 214 430 218 430 c 2
 232 430 l 2
 270 430 296 433 338 435 c 1
 337 424 336 412 336 401 c 0
 336 392 337 383 338 374 c 1
 296 376 270 379 232 379 c 2
 218 379 l 2
 213 379 210 375 210 370 c 0
 210 332 210 294 210 256 c 0
 210 251 213 248 218 248 c 2
 338 253 l 1
 337 242 336 230 336 219 c 0
 336 210 337 200 338 191 c 1
 218 197 l 1
 213 196 211 192 210 186 c 1
 212 130 217 63 219 -10 c 1
 208 -6 195 -5 184 -5 c 0
 173 -5 162 -6 150 -10 c 1
 152 63 157 130 159 186 c 0
 159 191 156 197 151 197 c 2
 31 191 l 1
 32 200 33 210 33 219 c 0
 33 230 32 242 31 253 c 1
 151 248 l 2
EndSplineSet
Fore
SplineSet
290 273 m 1x18
 273 244 256 220 246 203 c 1
 244 191 253 175 267 175 c 24x58
 299 176 327 187 348 206 c 1
 368 206 379 183 375 162 c 0
 371 141 350 115 330 115 c 1x88
 316 134 293 150 262 150 c 0
 250 150 243 146 231 133 c 1
 225 100 221 32 235 13 c 1
 231 -8 206 -24 186 -24 c 0
 165 -24 146 -8 150 13 c 1
 171 32 195 100 201 133 c 1
 194 146 189 150 177 150 c 16x48
 146 150 116 134 95 115 c 1
 75 115 65 141 69 162 c 0
 73 183 93 206 113 206 c 1x88
 127 187 151 176 182 175 c 24
 196 175 211 191 213 203 c 1
 210 220 200 248 195 273 c 1
 210 285 229 312 231 320 c 1
 233 329 218 358 213 365 c 1
 228 390 248 418 258 435 c 1
 260 447 252 463 238 463 c 24x58
 206 462 178 451 157 432 c 1
 137 432 126 455 130 476 c 0
 134 497 154 523 174 523 c 1x28
 188 504 212 488 243 488 c 8
 255 488 261 492 273 505 c 1
 279 538 283 606 269 625 c 1
 273 646 298 662 319 662 c 0
 339 662 358 646 354 625 c 1
 333 606 309 538 303 505 c 1
 310 492 315 488 327 488 c 0x18
 358 488 389 504 410 523 c 1
 430 523 440 497 436 476 c 0
 432 455 412 432 392 432 c 1x28
 378 451 354 462 323 463 c 24
 309 463 293 447 291 435 c 1
 294 418 302 394 308 365 c 1
 300 358 275 328 273 320 c 1
 271 312 279 285 290 273 c 1x18
EndSplineSet
EndChar

StartChar: bullet
Encoding: 8226 8226 211
Width: 377
Flags: W
HStem: 123 281<191.464 285.39>
VStem: 108 260
LayerCount: 2
Fore
SplineSet
108 263 m 0
 123 340 194 404 266 404 c 0
 338 404 383 340 368 263 c 0
 353 186 283 123 211 123 c 0
 139 123 93 186 108 263 c 0
EndSplineSet
EndChar

StartChar: perthousand
Encoding: 8240 8240 214
Width: 1006
Flags: W
HStem: -1 30<501.708 552.225 812.792 863.309> 271 29<535.429 584.167 846.513 895.251> 341 30<211.791 262.309> 613 29<245.513 294.251>
LayerCount: 2
Fore
SplineSet
877.948 271 m 0
 823.698 271 795.896 159 801 86 c 0
 802.119 70 808.986 29 831.941 29 c 0
 886.191 29 912.84 142 908.084 210 c 0
 906.546 232 898.062 271 877.948 271 c 0
883.517 300 m 0
 943.191 300 993.315 279 998.839 200 c 0
 1005.48 105 908.904 -1 822.105 -1 c 0
 762.429 -1 714.651 33 710.177 97 c 0
 703.533 192 796.716 300 883.517 300 c 0
566.864 271 m 0
 512.614 271 484.812 159 489.916 86 c 0
 491.035 70 497.902 29 520.857 29 c 0
 575.107 29 601.756 142 597 210 c 0
 595.462 232 586.979 271 566.864 271 c 0
572.433 300 m 0
 632.107 300 682.231 279 687.755 200 c 0
 694.398 105 597.82 -1 511.021 -1 c 0
 451.345 -1 403.567 33 399.093 97 c 0
 392.449 192 485.632 300 572.433 300 c 0
276.948 613 m 0
 222.698 613 194.896 501 200 428 c 0
 201.119 412 207.986 371 230.941 371 c 0
 285.191 371 311.84 484 307.084 552 c 0
 305.546 574 297.063 613 276.948 613 c 0
282.517 642 m 0
 342.191 642 392.315 621 397.839 542 c 0
 404.482 447 307.904 341 221.104 341 c 0
 161.429 341 113.652 375 109.177 439 c 0
 102.533 534 195.716 642 282.517 642 c 0
628.273 618 m 2
 182.273 -14 l 1
 182.273 -14 148.273 -6 148.273 5 c 0
 148.273 7 149.273 9 150.273 11 c 26
 597.273 643 l 1
 597.273 643 629.273 634 629.273 623 c 0
 629.273 621 629.273 619 628.273 618 c 2
EndSplineSet
EndChar

StartChar: minute
Encoding: 8242 8242 215
Width: 141
Flags: W
HStem: 484 215
VStem: 173 82<613.648 689.454>
LayerCount: 2
Fore
SplineSet
220 699 m 0
 239 699 259 687 255 667 c 0
 246 620 180 528 149 494 c 0
 144 489 138 484 134 484 c 0
 128 484 125 489 126 496 c 0
 127 499 155 612 173 666 c 0
 177 678 202 699 220 699 c 0
EndSplineSet
EndChar

StartChar: second
Encoding: 8243 8243 216
Width: 276
Flags: W
HStem: 484 215
VStem: 173 82<613.648 689.454> 298 82<613.648 689.454>
LayerCount: 2
Fore
SplineSet
345 699 m 0
 364 699 384 687 380 667 c 0
 371 620 306 528 275 494 c 0
 270 489 264 484 260 484 c 0
 254 484 250 489 251 496 c 0
 252 499 280 612 298 666 c 0
 302 678 327 699 345 699 c 0
220 699 m 0
 239 699 259 687 255 667 c 0
 246 620 180 528 149 494 c 0
 144 489 138 484 134 484 c 0
 128 484 125 489 126 496 c 0
 127 499 155 612 173 666 c 0
 177 678 202 699 220 699 c 0
EndSplineSet
EndChar

StartChar: uni2038
Encoding: 8248 8248 217
Width: 356
Flags: W
HStem: -61 174
VStem: 65 232
LayerCount: 2
Fore
SplineSet
281 -61 m 0
 269 -61 221 -17 193 28 c 1
 151 -17 81 -61 69 -61 c 0
 62 -61 65 -37 65 -37 c 1
 72 -26 140 16 196 103 c 0
 200 110 198 113 205 113 c 0
 225 113 215 96 248 33 c 0
 261 9 296 -32 297 -36 c 1
 296 -39 288 -61 281 -61 c 0
EndSplineSet
EndChar

StartChar: guilsinglleft
Encoding: 8249 8249 218
Width: 335
Flags: W
VStem: 110 254
LayerCount: 2
Fore
SplineSet
303 92 m 1
 297 82 281 74 275 73 c 1
 271 77 216 154 110 233 c 1
 107 237 106 243 107 248 c 0
 108 253 112 259 116 263 c 1
 253 342 338 419 343 423 c 1
 348 422 362 414 364 404 c 1
 359 398 250 284 209 248 c 1
 236 212 300 98 303 92 c 1
EndSplineSet
EndChar

StartChar: guilsinglright
Encoding: 8250 8250 219
Width: 461
Flags: W
VStem: 230 254
LayerCount: 2
Fore
SplineSet
291 404 m 1
 297 414 313 422 319 423 c 1
 323 419 378 342 484 263 c 1
 487 259 488 253 487 248 c 0
 486 243 482 237 478 233 c 1
 341 154 256 77 251 73 c 1
 246 74 232 82 230 92 c 1
 235 98 344 212 385 248 c 1
 358 284 294 398 291 404 c 1
EndSplineSet
EndChar

StartChar: uni203E
Encoding: 8254 8254 220
Width: 667
Flags: W
HStem: 733 74<85.5838 588.416>
LayerCount: 2
Fore
SplineSet
591 807 m 2
 598 807 598 797 598 791 c 0
 598 769 581 738 576 733 c 9
 83 733 l 2
 76 733 76 743 76 749 c 0
 76 771 93 802 98 807 c 9
 591 807 l 2
EndSplineSet
EndChar

StartChar: Euro
Encoding: 8364 8364 221
Width: 613
UnlinkRmOvrlpSave: 1
Flags: W
HStem: -7 44<300.019 459.176> 250 43<24.7947 373.873> 351 43<39.9539 389.032> 624 43<371.099 531.328>
VStem: 71 144<163.523 343.501> 599 34<480.548 544.905>
LayerCount: 2
Fore
SplineSet
451 624 m 0
 324 624 215 478 215 268 c 0
 215 176 253 37 369 37 c 0
 423 37 463 56 493 81 c 0
 539 119 575 196 578 204 c 1
 592 204 603 199 609 192 c 1
 607 181 555 48 541 40 c 0
 485 9 427 -7 341 -7 c 0
 160 -7 71 142 71 276 c 0
 71 526 286 667 451 667 c 0
 512 667 593 650 646 638 c 1
 646 627 635 506 633 494 c 0
 632 488 622 480 611 480 c 3
 606 480 602 480 599 484 c 1
 597 523 569 624 451 624 c 0
41.3184 351 m 2
 38 351 37.3184 355 37.3184 359 c 0
 37.3184 366 43.3184 388 50.3184 394 c 1
 388.159 394 l 2
 390.159 394 391.159 390 391.159 386 c 0
 391.159 381 388.159 360 379.159 351 c 1
 41.3184 351 l 2
26.1592 250 m 2
 23 250 22.1592 254 22.1592 258 c 0
 22.1592 265 28.1592 287 35.1592 293 c 1
 373 293 l 2
 375 293 376 289 376 285 c 0
 376 280 373 259 364 250 c 1
 26.1592 250 l 2
EndSplineSet
EndChar

StartChar: arrowleft
Encoding: 8592 8592 222
Width: 717
Flags: W
HStem: 210 74<165 674.024>
LayerCount: 2
Fore
SplineSet
202 319 m 2
 165 284 l 1
 679 284 l 2
 685 284 686 281 686 271 c 0
 686 261 672 219 660 210 c 1
 150 210 l 1
 173 177 l 2
 208 126 227 108 227 99 c 0
 227 85 193 74 189 73 c 1
 188 75 135 132 17 227 c 0
 14 228 13 235 13 238 c 0
 13 247 17 259 26 268 c 1
 163 347 253 419 258 423 c 1
 263 422 286 411 286 399 c 0
 286 395 283 395 202 319 c 2
EndSplineSet
EndChar

StartChar: arrowup
Encoding: 8593 8593 223
Width: 334
Flags: W
VStem: 15 325
LayerCount: 2
Fore
SplineSet
157 577 m 1
 119 540 l 1
 60 486 37 466 30 466 c 0
 19 466 15 496 15 502 c 1
 17 503 81 561 198 708 c 0
 201 713 206 714 212 714 c 0
 221 714 229 713 235 706 c 1
 283 575 337 505 340 500 c 1
 338 494 320 466 309 466 c 0
 302 466 289 486 251 540 c 2
 225 576 l 1
 105 -30 l 2
 104 -33 103 -36 92 -36 c 0
 75 -36 37 -22 37 -22 c 1
 157 577 l 1
EndSplineSet
EndChar

StartChar: arrowright
Encoding: 8594 8594 224
Width: 704
Flags: W
HStem: 209 76<27.9756 537>
LayerCount: 2
Fore
SplineSet
537 209 m 1
 23 209 l 2
 17 209 16 212 16 222 c 0
 16 232 30 276 42 285 c 1
 552 285 l 1
 527 319 l 0
 487 371 471 390 473 398 c 0
 475 410 505 422 511 423 c 1
 515 419 566 347 672 268 c 1
 677 260 676 251 674 241 c 0
 673 235 670 229 665 227 c 1
 510 132 445 75 444 73 c 1
 439 74 414 86 416 98 c 0
 418 106 440 125 500 177 c 0
 537 209 l 1
EndSplineSet
EndChar

StartChar: arrowdown
Encoding: 8595 8595 225
Width: 341
Flags: W
HStem: -9 21G<123.5 131>
VStem: 0 325
LayerCount: 2
Fore
SplineSet
115 129 m 1
 235 735 l 2
 236 738 237 741 248 741 c 0
 265 741 303 727 303 727 c 1
 183 128 l 1
 221 165 l 1
 280 219 303 239 310 239 c 0
 321 239 325 209 325 203 c 1
 323 202 259 144 142 -3 c 0
 139 -8 134 -9 128 -9 c 0
 119 -9 111 -8 105 -1 c 1
 57 130 3 200 0 205 c 1
 2 211 20 239 31 239 c 0
 38 239 51 219 89 165 c 2
 115 129 l 1
EndSplineSet
EndChar

StartChar: universal
Encoding: 8704 8704 226
Width: 652
Flags: W
HStem: -4 21G<187 200> 390 60<228.001 367.963> 631 36<7.4834 49.0558 204.528 261.43 428.625 480.466 597.391 656.462> 631 28<432.724 480.466>
LayerCount: 2
Fore
SplineSet
178 4 m 1xe0
 73 522 l 2
 67 559 63 577 59 597 c 0
 54 622 15 631 8 631 c 0
 5 631 6 641 7 647 c 0
 8 652 11 664 13 667 c 1xe0
 50 665 93 659 134 659 c 0xd0
 177 659 230 665 264 667 c 1
 268 662 262 631 257 631 c 0
 246 631 208 619 198 608 c 0
 196 605 194 603 193 597 c 0
 191 588 198 555 202 529 c 24
 207 500 214 455 214 455 c 1
 214 455 217 451 220 451 c 0
 255 449 288 450 311 450 c 0
 349 450 372 450 405 451 c 0
 408 451 412 454 413 456 c 1
 458 532 l 1
 474 556 487 577 490 594 c 0
 493 609 485 613 481 617 c 0
 470 628 433 633 426 633 c 0
 421 633 428 661 431 667 c 1
 468 665 491 661 532 661 c 0
 575 661 614 665 657 667 c 1
 658 665 658 658 657 652 c 0
 656 646 654 634 652 634 c 0
 641 634 581 610 568 592 c 0
 548 563 528 529 528 529 c 2
 256 77 l 0
 241 53 210 -4 190 -4 c 0
 184 -4 179 1 178 4 c 1xe0
367 387 m 0
 349 389 321 390 300 390 c 0
 271 390 261 390 232 388 c 0
 230 388 228 383 228 383 c 1
 261 205 l 1
 368 383 l 1
 368 383 369 387 367 387 c 0
EndSplineSet
EndChar

StartChar: partialdiff
Encoding: 8706 8706 227
Width: 460
Flags: W
HStem: 0 55<103.298 226.484> 317 53<180.32 272.749> 580 62<198.138 298.507>
VStem: 327 106<368.94 550.27>
LayerCount: 2
Back
SplineSet
278 317 m 0
 242 317 213 270 201 209 c 0
 178 91 206 55 245 55 c 0
 298 55 325 145 339 219 c 1
 355 303 313 317 278 317 c 0
346 642 m 3
 460.579 642 490.888 531.848 490.888 422 c 3
 490.888 188 378 0 208 0 c 0
 117 0 56 60 82 194 c 0
 101 294 204 370 303 370 c 0
 341 370 359 361 362 361 c 0
 366.472 361 370 364 372 369 c 0
 377.687 386.061 384.849 426.733 384.849 466 c 3
 384.849 495.778 381.214 524.748 370 542 c 0
 349 575 310 580 282 580 c 3
 243 580 208 552 180 534 c 1
 176 538 173 564 186 576 c 0
 220 606 288 642 346 642 c 3
EndSplineSet
Fore
SplineSet
220 317 m 0
 184 317 155 270 143 209 c 0
 120 91 148 55 187 55 c 0
 240 55 267 145 281 219 c 1
 297 303 255 317 220 317 c 0
288 642 m 3
 403 642 433 532 433 422 c 3
 433 188 320 0 150 0 c 0
 59 0 -2 60 24 194 c 0
 43 294 146 370 245 370 c 0
 283 370 301 361 304 361 c 0
 308 361 312 364 314 369 c 0
 320 386 327 427 327 466 c 3
 327 496 323 525 312 542 c 0
 291 575 252 580 224 580 c 3
 185 580 150 552 122 534 c 1
 118 538 115 564 128 576 c 0
 162 606 230 642 288 642 c 3
EndSplineSet
EndChar

StartChar: uni2206
Encoding: 8710 8710 228
Width: 603
Flags: W
HStem: 0 76<95.8638 440.969>
LayerCount: 2
Fore
SplineSet
444 83 m 2
 347 443 l 1
 344 446 339 447 335 441 c 2
 96 87 l 1
 93 80 96 76 101 76 c 2
 440 76 l 2
 444 76 445 79 444 83 c 2
411 613 m 1
 576 14 l 1
 576 14 569 8 566 0 c 1
 -3 0 l 1
 -6 6 -6 9 -8 16 c 1
 395 613 l 1
 411 613 l 1
EndSplineSet
EndChar

StartChar: gradient
Encoding: 8711 8711 229
Width: 601
Flags: W
HStem: 566 76<153.955 502.136>
LayerCount: 2
Fore
SplineSet
154 559 m 2
 252 199 l 1
 255 196 259 195 263 201 c 2
 502 555 l 1
 505 562 502 566 497 566 c 2
 159 566 l 2
 155 566 153 563 154 559 c 2
187 29 m 1
 23 628 l 1
 23 628 30 634 33 642 c 1
 601 642 l 1
 604 636 604 633 606 626 c 1
 203 29 l 1
 187 29 l 1
EndSplineSet
EndChar

StartChar: element
Encoding: 8712 8712 230
Width: 438
Flags: W
HStem: 11 60<122.933 361.902> 189 61<102.955 360.004> 370 60<169.75 430.022>
LayerCount: 2
Fore
SplineSet
362 220 m 0
 357 193 349 189 348 189 c 2
 95 189 l 2
 94 189 90 188 90 185 c 0
 89 122 119 71 181 71 c 2
 356 71 l 2
 356 71 369 64 362 29 c 0
 360 20 352 11 352 11 c 1
 171 11 l 2
 67 11 6 109 28 221 c 0
 49 330 142 430 243 430 c 2
 433 430 l 1
 433 430 437 421 435 409 c 0
 429 378 414 370 414 370 c 1
 232 370 l 2
 173 370 125 317 103 255 c 0
 102 252 104 250 107 250 c 2
 361 250 l 1
 361 249 365 237 362 220 c 0
EndSplineSet
EndChar

StartChar: notelement
Encoding: 8713 8713 231
Width: 440
Flags: W
HStem: -10 21G<64.5 68> 11 60<139.564 362.902> 189 61<103.955 158 260 361.004> 370 60<170.75 288 389 431.022>
LayerCount: 2
Fore
SplineSet
75 -8 m 1x70
 72 -10 70 -10 66 -10 c 0xb0
 63 -10 48 -6 39 10 c 0
 36 14 36 17 36 17 c 1
 65 58 l 1
 31 97 17 157 29 221 c 0
 50 330 143 430 244 430 c 2
 332 430 l 1
 370 484 l 1
 370 484 375 487 379 487 c 0
 390 487 399 479 405 470 c 0
 409 465 410 459 410 459 c 1
 389 430 l 1
 434 430 l 1
 434 430 438 421 436 409 c 0
 430 378 415 370 415 370 c 1
 346 370 l 1
 260 250 l 1
 362 250 l 1
 362 249 366 237 363 220 c 0
 358 193 350 189 349 189 c 2
 216 189 l 1
 139 81 l 1
 151 75 165 71 182 71 c 2
 357 71 l 1
 357 71 370 64 363 29 c 0
 361 20 353 11 353 11 c 1
 172 11 l 2
 145 11 121 18 101 29 c 1
 75 -8 l 1x70
203 250 m 1
 288 370 l 1
 233 370 l 2
 174 370 126 317 104 255 c 0
 103 252 105 250 108 250 c 2
 203 250 l 1
106 115 m 1
 158 189 l 1
 96 189 l 2
 95 189 91 188 91 185 c 0
 91 159 96 134 106 115 c 1
EndSplineSet
EndChar

StartChar: summation
Encoding: 8721 8721 232
Width: 571
Flags: W
HStem: 2 58<160.956 424.897> 2 29<-7.53125 27.7578> 608 48<302.159 484.365> 627 29<113.102 139.47>
VStem: 530 34<506.298 551.036>
LayerCount: 2
Fore
SplineSet
464 0 m 1xa8
 363 0 188 2 103 2 c 0
 41 2 -8 -3 -8 -3 c 1
 -9 -1 -10 7 -8 15 c 0
 -6 23 -4 31 -2 31 c 0
 8 31 43 53 54 65 c 2
 271 306 l 2
 276 311 277 318 275 322 c 0
 267 342 208 490 156 592 c 0
 147 609 125 627 114 627 c 0
 112 627 112 634 113 641 c 0
 114 648 118 656 120 658 c 1
 120 658 166 656 228 656 c 0x58
 314 656 464 662 565 662 c 1
 562 612 564 556 564 511 c 1
 561 508 549 506 542 506 c 0
 535 506 531 508 530 513 c 0
 516 563 479 608 418 608 c 27
 398 608 392 608 366 608 c 0
 333 608 305 603 302 595 c 1
 409 360 l 1
 410 354 410 347 409 341 c 0
 408 336 405 332 402 329 c 0
 303 227 164 84 161 71 c 0
 160 64 162 60 225 60 c 0
 257 60 259 60 284 60 c 0
 332 60 391 65 421 80 c 0
 441 90 474 125 499 170 c 0
 501 174 506 176 513 176 c 0
 522 176 538 173 540 170 c 1
 512 116 479 44 464 0 c 1xa8
EndSplineSet
EndChar

StartChar: minus
Encoding: 8722 8722 233
Width: 530
Flags: W
HStem: 209 74<43.2811 465.858>
LayerCount: 2
Fore
SplineSet
30 219 m 1
 30 219 47 283 56 283 c 2
 481 283 l 2
 484 283 487 283 486 276 c 0
 484 268 474 232 466 215 c 0
 463 209 458 209 458 209 c 1
 34 209 l 1
 34 209 28 209 30 219 c 1
EndSplineSet
EndChar

StartChar: uni2213
Encoding: 8723 8723 234
Width: 513
Flags: W
HStem: 213 72<27.1421 195 280 450.789> 518 72<88.1413 501.217>
LayerCount: 2
Fore
SplineSet
262 210 m 2
 226 26 l 1
 226 26 210 16 167 10 c 0
 164 10 164 10 162 10 c 0
 156 10 157 13 158 17 c 2
 195 208 l 2
 195 210 195 213 190 213 c 2
 13 213 l 1
 13 213 7 213 9 223 c 0
 10 227 16 256 27 280 c 0
 30 286 35 285 35 285 c 1
 205 285 l 2
 208 285 211 289 211 291 c 2
 246 473 l 1
 246 473 246 478 252 480 c 0
 276 487 303 488 307 488 c 0
 316 488 315 482 315 482 c 1
 278 290 l 2
 277 287 277 285 280 285 c 2
 459 285 l 2
 463 285 466 285 465 278 c 0
 463 269 454 241 444 219 c 0
 441 213 437 213 437 213 c 1
 266 213 l 2
 263 213 262 212 262 210 c 2
511 590 m 1
 511 590 520 591 516 579 c 0
 500 531 492 521 489 518 c 1
 73 518 l 1
 73 518 65 517 70 531 c 0
 75 545 79 565 88 585 c 0
 91 591 95 590 95 590 c 1
 511 590 l 1
EndSplineSet
EndChar

StartChar: radical
Encoding: 8730 8730 235
Width: 584
Flags: W
LayerCount: 2
Fore
SplineSet
14 150 m 1
 3 157 -6 174 -4 185 c 0
 -1 198 12 205 23 212 c 0
 58 235 168 312 183 324 c 0
 192 331 208 332 209 324 c 1
 212 292 212 280 217 254 c 2
 259 47 l 1
 275 90 542 791 542 791 c 1
 594 784 l 1
 594 784 287 -25 239 -153 c 1
 222 -171 194 -180 188 -180 c 0
 184 -180 181 -179 180 -175 c 2
 97 196 l 1
 14 150 l 1
EndSplineSet
EndChar

StartChar: proportional
Encoding: 8733 8733 236
Width: 640
Flags: W
HStem: 37 73<136.311 237.394 517.052 560.164> 352 74<172.867 274.147 550.147 631.182>
LayerCount: 2
Fore
SplineSet
568 112 m 1
 576 112 576 101 574 90 c 0
 570 69 554 49 544 42 c 1
 422 42 379 162 369 162 c 2
 368 162 l 1
 306 99 237 37 146 37 c 0
 58 37 10 128 28 223 c 0
 49 332 152 426 253 426 c 0
 343 426 394 349 423 301 c 0
 424 299 427 298 428 300 c 0
 477 353 552 427 625 427 c 0
 632 427 635 396 631 373 c 0
 630 366 626 352 621 352 c 0
 617 352 612 352 605 352 c 0
 543 352 450 241 451 240 c 0
 466 210 497 112 568 112 c 1
112 229 m 0
 98 159 138 110 187 110 c 0
 248 110 313 187 341 218 c 0
 342 220 298 352 227 352 c 0
 177 352 125 297 112 229 c 0
EndSplineSet
EndChar

StartChar: infinity
Encoding: 8734 8734 237
Width: 807
Flags: W
HStem: 39 74<133.222 239.941 522.875 625.953> 352 74<172.455 275.953 557.556 662.258>
LayerCount: 2
Fore
SplineSet
606 357 m 0
 549 357 473 268 454 246 c 0
 453 245 453 245 454 244 c 0
 469 214 509 113 573 113 c 0
 620 113 670 166 683 233 c 0
 697 304 658 357 606 357 c 0
227 352 m 0
 177 352 125 297 112 229 c 0
 98 159 137 110 186 110 c 0
 247 110 312 187 340 218 c 0
 341 219 342 219 341 220 c 0
 331 244 292 352 227 352 c 0
252 426 m 0
 342 426 393 349 422 301 c 0
 423 299 427 298 428 300 c 0
 477 353 555 426 645 426 c 0
 733 426 786 337 768 242 c 0
 747 132 642 39 540 39 c 0
 418 39 378 162 368 162 c 2
 367 162 l 1
 305 99 237 37 146 37 c 0
 58 37 10 128 28 223 c 0
 49 332 151 426 252 426 c 0
EndSplineSet
EndChar

StartChar: notequal
Encoding: 8800 8800 238
Width: 509
Flags: W
HStem: 109 72<31.1421 145 253 443.789> 251 72<51.7465 246 355 470.928>
LayerCount: 2
Fore
SplineSet
39 261 m 1
 39 261 56 323 65 323 c 2
 298 323 l 1
 367 420 l 1
 367 420 372 423 376 423 c 0
 387 423 395 415 401 406 c 0
 405 401 407 395 407 395 c 1
 355 323 l 1
 483 323 l 2
 485 323 487 322 486 318 c 0
 484 309 474 279 464 257 c 0
 461 251 458 251 458 251 c 1
 303 251 l 1
 253 181 l 1
 451 181 l 2
 455 181 459 183 458 176 c 0
 456 167 447 137 437 115 c 0
 434 109 430 109 430 109 c 1
 202 109 l 1
 136 16 l 1
 133 14 130 14 126 14 c 0
 123 14 108 18 99 34 c 0
 96 38 96 41 96 41 c 1
 145 109 l 1
 16 109 l 1
 16 109 10 109 12 119 c 0
 13 123 20 152 31 176 c 0
 34 182 39 181 39 181 c 1
 196 181 l 1
 246 251 l 1
 44 251 l 1
 44 251 37 251 39 261 c 1
EndSplineSet
EndChar

StartChar: lessequal
Encoding: 8804 8804 239
Width: 472
Flags: W
HStem: 4 67<7.51428 383.059>
LayerCount: 2
Back
SplineSet
437 62 m 1
 437 62 445 63 441 51 c 0
 425 3 421 9 418 6 c 1
 63 6 l 1
 63 6 54 5 59 19 c 0
 64 33 66 37 75 57 c 0
 78 63 82 62 82 62 c 1
 437 62 l 1
137 342 m 2
 516 529 l 2
 518 530 520 531 521 531 c 0
 524 531 529 521 528 484 c 0
 528 478 524 475 524 475 c 1
 188 310 l 1
 464 142 l 1
 464 142 466 141 465 136 c 0
 464 129 447 86 441 86 c 0
 440 86 438 87 436 88 c 2
 125 279 l 2
 113 287 113 301 116 318 c 0
 118 329 127 337 137 342 c 2
EndSplineSet
Fore
SplineSet
21 71 m 1
 382 71 l 2
 388 71 390 59 390 53 c 3
 390 39 381 21 372 4 c 1
 7 4 l 2
 0 4 0 16 0 22 c 3
 0 36 11 59 21 71 c 1
462 529 m 17
 466 524 474 498 474 477 c 27
 474 472 473 466 469 464 c 2
 138 308 l 1
 413 149 l 1
 413 131 397 86 391 86 c 0
 389 86 385 86 382 88 c 2
 62 269 l 2
 54 274 45 292 45 302 c 0
 45 328 73 348 85 354 c 0
 225 420 315 461 462 529 c 17
EndSplineSet
EndChar

StartChar: greaterequal
Encoding: 8805 8805 240
Width: 456
Flags: W
HStem: 4 67<5.36435 381.584>
LayerCount: 2
Fore
SplineSet
18 71 m 1
 380 71 l 2
 386 71 388 59 388 53 c 3
 388 39 381 21 369 4 c 1
 5 4 l 2
 -2 4 -2 16 -2 22 c 3
 -2 36 9 59 18 71 c 1
23 86 m 17
 19 91 11 117 11 138 c 27
 11 143 12 149 16 151 c 2
 347 307 l 1
 72 466 l 1
 72 484 88 529 94 529 c 0
 96 529 100 529 103 527 c 2
 423 346 l 2
 431 341 440 323 440 313 c 0
 440 287 412 267 400 261 c 0
 260 195 170 154 23 86 c 17
EndSplineSet
EndChar

StartChar: propersubset
Encoding: 8834 8834 241
Width: 437
Flags: W
HStem: 11 60<125.552 361.902> 370 60<169.75 430.022>
LayerCount: 2
Fore
SplineSet
232 370 m 2
 173 370 110 309 93 220 c 0
 76 130 119 71 181 71 c 2
 356 71 l 2
 356 71 369 64 362 29 c 0
 360 20 352 11 352 11 c 1
 171 11 l 2
 67 11 6 109 28 221 c 0
 49 330 142 430 243 430 c 2
 433 430 l 1
 433 430 437 421 435 409 c 0
 429 378 414 370 414 370 c 1
 232 370 l 2
EndSplineSet
EndChar

StartChar: uni0302
Encoding: 770 770 242
Width: 0
VWidth: 1022
GlyphClass: 4
Flags: W
HStem: 490 168
VStem: -373 221
LayerCount: 2
Fore
SplineSet
-237 658 m 0
 -234 658 -230.1015625 655.948242188 -226 648 c 0
 -194 586 -160 528 -152 513 c 1
 -154 503 -159 492 -164 490 c 1
 -181 504 -229.639648438 546 -251.639648438 570 c 1
 -282.639648438 546 -347 502 -369 490 c 1
 -373 492 -375 503 -373 513 c 1
 -362 524 -296 595 -250 648 c 0
 -244.361328125 654.497070312 -241 658 -237 658 c 0
EndSplineSet
EndChar

StartChar: tildecomb
Encoding: 771 771 243
Width: 0
VWidth: 995
GlyphClass: 4
Flags: W
HStem: 490 50<-227.567 -134.814> 533 50<-357.124 -262.393>
VStem: -396 301
LayerCount: 2
Fore
SplineSet
-294 583 m 0x60
 -270 583 -253 576 -236 567 c 0
 -215 556 -199 540 -169 540 c 0xa0
 -136 540 -109 575 -102 583 c 1x60
 -99 582 -94 579 -95 571 c 0
 -97 555 -108 538 -117 528 c 0
 -144 500 -169 490 -197 490 c 0xa0
 -221 490 -236 496 -254 506 c 0
 -274 517 -293 533 -323 533 c 0x60
 -356 533 -383 498 -390 490 c 1xa0
 -393 491 -397 495 -396 503 c 0
 -394 519 -384 535 -375 545 c 0
 -348 573 -322 583 -294 583 c 0x60
EndSplineSet
EndChar

StartChar: dotlessi
Encoding: 305 305 244
Width: 310
VWidth: 0
Flags: W
HStem: -8 86<106.5 208> 363 86<85 186>
VStem: 60 123<34.1714 189.984> 111 122<251.016 405.986>
LayerCount: 2
Fore
SplineSet
106 309 m 2xe0
 107 313 111 337 111 342 c 0
 111 351 106 363 96 363 c 0
 74 363 28 308 25 302 c 1
 18 302 11 323 11 329 c 1
 28 361 112 449 166 449 c 0
 206 449 233 424 233 378 c 0xd0
 233 364 226 328 224 318 c 0
 187 132 l 2
 186 128 183 104 183 99 c 0
 183 90 187 78 197 78 c 0
 219 78 265 133 268 139 c 1
 275 139 282 118 282 112 c 1
 265 80 177 -8 123 -8 c 0
 90 -8 60 12 60 63 c 0
 60 77 67 115 69 123 c 1
 106 309 l 2xe0
EndSplineSet
EndChar

StartChar: uni0304
Encoding: 772 772 245
Width: 0
VWidth: 968
GlyphClass: 4
Flags: W
HStem: 490 43<-370.411 -133.184>
VStem: -373 242<490.431 533>
LayerCount: 2
Fore
SplineSet
-142 490 m 1
 -370 490 l 1
 -370 490 -373 493 -373 499 c 0
 -373 506 -365 533 -360 533 c 2
 -136 533 l 2
 -134 533 -131 530 -131 526 c 0
 -131 521 -134 499 -142 490 c 1
EndSplineSet
EndChar

StartChar: uni0305
Encoding: 773 773 246
Width: 526
GlyphClass: 4
Flags: W
HStem: 734 72<142.678 682.857>
LayerCount: 2
Fore
SplineSet
131 744 m 0
 131 746 146 806 156 806 c 2
 697 806 l 2
 699 806 703 805 701 797 c 0
 698 779 685 745 683 741 c 0
 680 735 674 734 674 734 c 1
 135 734 l 1
 135 734 129 734 131 744 c 0
EndSplineSet
EndChar

StartChar: uni0306
Encoding: 774 774 247
Width: 0
VWidth: 994
GlyphClass: 4
Flags: W
HStem: 490 56<-297.199 -193.568>
VStem: -336 23<573.247 607.994> -151 18<591.269 609.513>
LayerCount: 2
Fore
SplineSet
-244 546 m 0
 -207 546 -169 565 -151 608 c 0
 -151 610 -149 611 -147 611 c 0
 -141 611 -132 603 -133 598 c 0
 -133 597 -135 592 -135 590 c 0
 -154 537 -205 490 -255 490 c 0
 -305 490 -339 534 -336 591 c 0
 -336 593 -335 597 -335 598 c 0
 -334 603 -322 611 -316 611 c 0
 -314 611 -313 610 -313 608 c 0
 -312 565 -275 546 -244 546 c 0
EndSplineSet
EndChar

StartChar: uni0307
Encoding: 775 775 248
Width: 0
VWidth: 968
GlyphClass: 4
Flags: W
HStem: 490 138<-287.443 -214>
VStem: -313 126<516.756 603.617>
LayerCount: 2
Fore
SplineSet
-313 561 m 0
 -306 598 -272 628 -237 628 c 27
 -203 628 -180 598 -187 561 c 0
 -194 524 -227 490 -262 490 c 27
 -298 490 -320 524 -313 561 c 0
EndSplineSet
EndChar

StartChar: uni0308
Encoding: 776 776 249
Width: 0
VWidth: 1049
GlyphClass: 4
Flags: W
HStem: 490 139<-359.141 -283.859 -183.712 -108.288>
VStem: -386 129<517.062 602.554> -211 130<517.062 602.554>
LayerCount: 2
Fore
SplineSet
-132 629 m 0
 -96 629 -74 598 -81 560 c 0
 -88 522 -124 490 -160 490 c 0
 -196 490 -218 522 -211 560 c 0
 -204 598 -168 629 -132 629 c 0
-308 629 m 0
 -272 629 -250 598 -257 560 c 0
 -264 522 -299 490 -335 490 c 0
 -371 490 -393 522 -386 560 c 0
 -379 598 -344 629 -308 629 c 0
EndSplineSet
EndChar

StartChar: hookabovecomb
Encoding: 777 777 250
Width: 0
GlyphClass: 4
Flags: W
HStem: 636 38<-264.862 -216.198>
VStem: -330 58<580.82 632.3> -310 44<499.931 514.906>
LayerCount: 2
Fore
SplineSet
-218 674 m 0xc0
 -180 674 -159 649 -165 616 c 0
 -172 579 -200 553 -227 542 c 0
 -249 533 -262 528 -265 515 c 0
 -265 513 -266 510 -266 507 c 1
 -267 504 -291 498 -304 498 c 1
 -308 501 -311 512 -310 515 c 0xa0
 -305 543 -277 556 -259 564 c 0
 -236 574 -221 587 -217 606 c 0
 -215 618 -215 636 -234 636 c 0
 -255 636 -268 619 -272 600 c 0
 -275 583 -300 578 -313 578 c 0
 -321 578 -332 583 -330 595 c 0
 -320 646 -264 674 -218 674 c 0xc0
EndSplineSet
EndChar

StartChar: uni030A
Encoding: 778 778 251
Width: 0
VWidth: 1004
GlyphClass: 4
Flags: W
HStem: 490 45<-299.445 -220.332> 643 44<-286.815 -207.601>
VStem: -346 184
LayerCount: 2
Fore
SplineSet
-303 589 m 0
 -309 559 -292 535 -264 535 c 0
 -236 535 -210 559 -204 589 c 0
 -198 619 -215 643 -243 643 c 0
 -271 643 -297 619 -303 589 c 0
-346 589 m 0
 -336 643 -284 687 -234 687 c 0
 -184 687 -152 643 -162 589 c 0
 -172 535 -223 490 -273 490 c 0
 -323 490 -356 535 -346 589 c 0
EndSplineSet
EndChar

StartChar: uni030C
Encoding: 780 780 253
Width: 0
VWidth: 1014
GlyphClass: 4
Flags: W
HStem: 490 168
VStem: -348.64 221
LayerCount: 2
Fore
SplineSet
-263.639648438 490 m 0
 -266.639648438 490 -270.537109375 492.051757812 -274.639648438 500 c 0
 -306.639648438 562 -340.639648438 620 -348.639648438 635 c 1
 -346.639648438 645 -341.639648438 656 -336.639648438 658 c 1
 -319.639648438 644 -271 602 -249 578 c 1
 -218 602 -153.639648438 646 -131.639648438 658 c 1
 -127.639648438 656 -125.639648438 645 -127.639648438 635 c 1
 -138.639648438 624 -204.639648438 553 -250.639648438 500 c 0
 -256.278320312 493.502929688 -259.639648438 490 -263.639648438 490 c 0
EndSplineSet
EndChar

StartChar: uni0312
Encoding: 786 786 254
Width: 131
GlyphClass: 4
Flags: W
VStem: 114 76<484.164 578.5>
LayerCount: 2
Fore
SplineSet
223 635 m 1
 227 635 240 628 240 625 c 1
 233 623 190 591 190 566 c 0
 190 544 216 540 216 508 c 0
 216 481.413 183.63 466.883 154 466 c 0
 141.28 465.621 128 468 119 473 c 1
 115 480 114 487 114 495 c 0
 114 543 180 622 223 635 c 1
EndSplineSet
EndChar

StartChar: uni0315
Encoding: 789 789 255
Width: 131
GlyphClass: 4
Flags: W
HStem: 454 227
VStem: 144 97<559.974 645.787> 165 76<539 664.339>
LayerCount: 2
Fore
SplineSet
105 476 m 0xa0
 105 482 165 519 165 559 c 0xa0
 165 580 144 587 144 616 c 0xc0
 144 675 200 681 238 681 c 1
 240 675 241 665 241 654 c 0
 241 641 240 625 237 610 c 0
 225 546 166 478 125 454 c 1
 123 454 l 2
 117 454 105 469 105 476 c 0xa0
EndSplineSet
EndChar

StartChar: uni0326
Encoding: 806 806 256
Width: 0
GlyphClass: 4
Flags: W
HStem: -218 162<-283.141 -267.352>
VStem: -284 97<-163.5 -82.7684>
LayerCount: 2
Fore
SplineSet
-313 -101 m 0
 -313 -65 -244 -56 -199 -56 c 1
 -189 -67 -187 -81 -187 -103 c 0
 -187 -151 -273 -209 -317 -218 c 1
 -318 -218 -319 -218 -320 -218 c 0
 -327 -218 -341 -211 -341 -204 c 0
 -341 -201 -284 -176 -284 -151 c 0
 -284 -129 -313 -128 -313 -101 c 0
EndSplineSet
EndChar

StartChar: uni0327
Encoding: 807 807 257
Width: 0
GlyphClass: 4
Flags: W
HStem: -163 23<-292.446 -232.91> -65 36<-240 -223.733>
VStem: -220 51<-125.661 -65.9999>
LayerCount: 2
Fore
SplineSet
-246 -4 m 1
 -217 -4 l 9
 -240 -29 l 25
 -223 -29 l 2
 -198 -29 -169 -48 -169 -76 c 0
 -169 -126 -227 -163 -289 -163 c 3
 -302 -163 -326 -158 -332 -153 c 1
 -334 -151 -336 -147 -336 -144 c 0
 -336 -128 -327 -116 -317 -116 c 3
 -298 -116 -291 -140 -263 -140 c 3
 -238 -140 -220 -123 -220 -100 c 0
 -220 -77 -236 -65 -249 -65 c 0
 -260 -65 -267 -68 -278 -73 c 0
 -280 -73 -293 -66 -293 -61 c 0
 -293 -56 -273 -40 -246 -4 c 1
EndSplineSet
EndChar

StartChar: gravecomb.cap
Encoding: 65536 -1 259
Width: 270
GlyphClass: 4
Flags: W
HStem: 731 118
VStem: 200.389 207.611
LayerCount: 2
Fore
SplineSet
399 731 m 1
 384 733 200.389 777 200.389 817 c 0
 200.389 841 233 849 256 849 c 0
 270 849 293.153 846.266 302 841 c 0
 344 816 403 752 408 744 c 1
 408 740 403 734 399 731 c 1
EndSplineSet
EndChar

StartChar: acutecomb.cap
Encoding: 65537 -1 260
Width: 225
GlyphClass: 4
Flags: W
HStem: 731 118
VStem: 157 207.611
LayerCount: 2
Fore
SplineSet
166 731 m 1
 162 734 157 740 157 744 c 1
 162 752 221 816 263 841 c 0
 271.847 846.266 295 849 309 849 c 0
 332 849 364.611 841 364.611 817 c 0
 364.611 777 181 733 166 731 c 1
EndSplineSet
EndChar

StartChar: uni0302.cap
Encoding: 65538 -1 261
Width: 353
GlyphClass: 4
Flags: W
HStem: 704 140
VStem: 182 259
LayerCount: 2
Fore
SplineSet
334 844 m 0
 338 844 341.101 839.139 345 834 c 0
 367 805 418 744 441 720 c 1
 439.521 712 435.285 706 428.916 704 c 1
 417.471 707 347.306 744 320 764 c 1
 285.306 744 204.655 708 188.916 704 c 1
 185.285 706 180.834 714 182 720 c 1
 237 763 302 817 319.932 834 c 0
 326.146 839.891 331 844 334 844 c 0
EndSplineSet
EndChar

StartChar: uni030A.cap
Encoding: 65539 -1 262
Width: 286
GlyphClass: 4
Flags: W
HStem: 660 45<257.555 336.668> 813 44<270.898 348.945>
VStem: 211 184
LayerCount: 2
Fore
SplineSet
254 759 m 0
 248 729 265 705 293 705 c 0
 321 705 347 729 353 759 c 0
 359 789 342 813 314 813 c 0
 286 813 260 789 254 759 c 0
211 759 m 0
 221 813 272 857 322 857 c 0
 372 857 405 813 395 759 c 0
 385 705 334 660 284 660 c 0
 234 660 201 705 211 759 c 0
EndSplineSet
EndChar

StartChar: tildecomb.cap
Encoding: 65540 -1 263
Width: 374
GlyphClass: 4
Flags: W
HStem: 728 50<355.285 464.515> 770 50<221.485 330.715>
VStem: 186 314
LayerCount: 2
Fore
SplineSet
286 820 m 0x60
 311 820 327 817 349 804 c 0
 371 791 392 778 424 778 c 0xa0
 459 778 485 812 491 820 c 1x60
 494 819 500 814 500 806 c 0
 500 791 490 775 481 765 c 0
 455 738 430 728 400 728 c 0xa0
 375 728 359 731 337 744 c 0
 315 757 294 770 262 770 c 0x60
 227 770 201 736 195 728 c 1xa0
 192 729 186 734 186 742 c 0
 186 757 196 773 205 783 c 0
 231 810 256 820 286 820 c 0x60
EndSplineSet
EndChar

StartChar: uni0304.cap
Encoding: 65541 -1 264
Width: 352
GlyphClass: 4
Flags: W
HStem: 557 43<167.589 419.816>
VStem: 165 257<557.431 600>
LayerCount: 2
Fore
SplineSet
411 557 m 1
 168 557 l 1
 168 557 165 560 165 566 c 0
 165 573 173 600 178 600 c 2
 417 600 l 2
 419 600 422 597 422 593 c 0
 422 588 419 566 411 557 c 1
EndSplineSet
EndChar

StartChar: uni0306.cap
Encoding: 65542 -1 265
Width: 231
GlyphClass: 4
Flags: W
HStem: 705 55<221.203 326.384>
VStem: 184 23<785.413 822.994> 369 18<806.216 824.513>
LayerCount: 2
Fore
SplineSet
278 760 m 0
 312 760 351 780 369 823 c 0
 369 825 371 826 373 826 c 0
 379 826 388 818 387 813 c 0
 387 812 385 807 385 805 c 0
 366 752 315 705 265 705 c 0
 215 705 181 749 184 806 c 0
 184 808 185 812 185 813 c 0
 186 818 198 826 204 826 c 0
 206 826 207 825 207 823 c 0
 208 780 236 760 278 760 c 0
EndSplineSet
EndChar

StartChar: uni0327.cap
Encoding: 65543 -1 266
Width: 406
GlyphClass: 4
Flags: W
HStem: -172 24<120.638 183.976> -69 39<176 193.604>
VStem: 197 55<-131.015 -70.4431>
LayerCount: 2
Fore
SplineSet
170 -4 m 1
 201 -4 l 9
 176 -30 l 25
 194 -30 l 2
 220 -30 252 -50 252 -80 c 0
 252 -133 191 -172 125 -172 c 3
 111 -172 85 -167 79 -162 c 1
 77 -160 75 -155 75 -152 c 0
 75 -135 84 -123 95 -123 c 3
 115 -123 122 -148 152 -148 c 3
 178 -148 197 -130 197 -106 c 0
 197 -82 181 -69 167 -69 c 0
 155 -69 148 -72 136 -77 c 0
 134 -77 120 -69 120 -64 c 0
 120 -59 141 -42 170 -4 c 1
EndSplineSet
EndChar

StartChar: uni0307.cap
Encoding: 65544 -1 267
Width: 203
GlyphClass: 4
Flags: W
HStem: 728 138<262.557 336>
VStem: 237 126<754.756 841.617>
LayerCount: 2
Fore
SplineSet
237 799 m 0
 244 836 278 866 313 866 c 27
 347 866 370 836 363 799 c 0
 356 762 323 728 288 728 c 27
 252 728 230 762 237 799 c 0
EndSplineSet
EndChar

StartChar: uni0323.cap
Encoding: 65545 -1 268
Width: 285
GlyphClass: 4
Flags: W
HStem: -180 148<81.25 157.75>
VStem: 51 137<-150.332 -61.6684>
LayerCount: 2
Fore
SplineSet
51 -106 m 0
 59 -65 96 -32 134 -32 c 0
 172 -32 196 -65 188 -106 c 0
 180 -147 143 -180 105 -180 c 0
 67 -180 43 -147 51 -106 c 0
EndSplineSet
EndChar

StartChar: uni030B.cap
Encoding: 65548 -1 271
Width: 432
GlyphClass: 4
Flags: W
HStem: 731 118
LayerCount: 2
Fore
SplineSet
356 731 m 1
 352 734 347 740 347 744 c 1
 352 752 411 816 453 841 c 0
 461.847 846.266 485 849 499 849 c 0
 522 849 554.611 841 554.611 817 c 0
 554.611 777 371 733 356 731 c 1
166 731 m 1
 162 734 157 740 157 744 c 1
 162 752 221 816 263 841 c 0
 271.847 846.266 295 849 309 849 c 0
 332 849 364.611 841 364.611 817 c 0
 364.611 777 181 733 166 731 c 1
EndSplineSet
EndChar

StartChar: uni0308.cap
Encoding: 65549 -1 272
Width: 417
GlyphClass: 4
Flags: W
HStem: 717 138<174.557 248 368.557 442>
VStem: 149 126<743.756 830.617> 343 126<743.756 830.617>
LayerCount: 2
Back
SplineSet
340.956 762 m 0
 345.956 790 370.956 812 396.956 812 c 0
 422.956 812 438.956 790 433.956 762 c 0
 428.956 734 403.956 712 377.956 712 c 0
 351.956 712 335.956 734 340.956 762 c 0
172.956 762 m 0
 177.956 790 202.956 812 228.956 812 c 0
 254.956 812 270.956 790 265.956 762 c 0
 260.956 734 234.956 712 208.956 712 c 0
 182.956 712 167.956 734 172.956 762 c 0
EndSplineSet
Fore
SplineSet
343 788 m 0
 350 825 384 855 419 855 c 27
 453 855 476 825 469 788 c 0
 462 751 429 717 394 717 c 27
 358 717 336 751 343 788 c 0
149 788 m 0
 156 825 190 855 225 855 c 27
 259 855 282 825 275 788 c 0
 268 751 235 717 200 717 c 27
 164 717 142 751 149 788 c 0
EndSplineSet
EndChar

StartChar: uni0308.narrow
Encoding: 65550 -1 273
Width: 417
GlyphClass: 4
Flags: W
HStem: 443 138<152.557 226 330.557 404>
VStem: 127 126<469.756 556.617> 305 126<469.756 556.617>
LayerCount: 2
Fore
SplineSet
305 514 m 0
 312 551 346 581 381 581 c 27
 415 581 438 551 431 514 c 0
 424 477 391 443 356 443 c 27
 320 443 298 477 305 514 c 0
127 514 m 0
 134 551 168 581 203 581 c 27
 237 581 260 551 253 514 c 0
 246 477 213 443 178 443 c 27
 142 443 120 477 127 514 c 0
EndSplineSet
EndChar

StartChar: uni030C.cap
Encoding: 65551 -1 274
Width: 459
GlyphClass: 4
Flags: W
HStem: 730 140
VStem: 280 259
LayerCount: 2
Fore
SplineSet
387 730 m 0
 383 730 379.898 734.86 376 740 c 0
 354 769 303 830 280 854 c 1
 281.479 862 285.715 868 292.084 870 c 1
 303.529 867 373.694 830 401 810 c 1
 435.694 830 516.345 866 532.084 870 c 1
 535.715 868 540.166 860 539 854 c 1
 484 811 419 757 401.068 740 c 0
 394.854 734.109 390 730 387 730 c 0
EndSplineSet
EndChar

StartChar: Aogonek
Encoding: 260 260 377
Width: 620
Flags: W
HStem: -218 62<288.878 373.089> -4 37<-58.1378 -1.666 89.8266 143.938 534.011 581.608> 225 48<197.378 354.377> 642 20G<391.378 400.378>
VStem: 248.378 61<-173.5 -83.6818>
LayerCount: 2
Fore
SplineSet
455.378 4 m 0
 392.378 4 309.378 -59 309.378 -122 c 0
 309.378 -146 320.378 -156 345.378 -156 c 0
 387.378 -156 412.378 -125 419.378 -120 c 1
 426.378 -122 424.533 -142.346 422.378 -146 c 0
 399.378 -185 350.378 -218 308.378 -218 c 0
 269.378 -218 248.378 -187 248.378 -160 c 0
 248.378 -94 291.378 -54 334.378 -7 c 0
 362.378 23 390.378 41 390.378 81 c 0
 390.378 90 364.378 220 364.378 220 c 1
 364.378 220 362.378 224 359.378 224 c 0
 324.378 226 293.378 225 270.378 225 c 0
 232.378 225 206.378 225 173.378 224 c 0
 170.378 224 166.378 221 165.378 219 c 1
 165.378 219 131.378 163 115.378 135 c 0
 101.378 110 83.3779 74 82.3779 67 c 0
 77.3779 41 140.378 33 147.378 33 c 1
 151.378 26 144.378 0 140.378 -4 c 1
 108.378 0 82.3779 4 41.3779 4 c 0
 -1.62207 4 -27.6221 0 -60.6221 -4 c 1
 -63.6221 0 -61.6221 21 -55.6221 32 c 1
 -44.6221 32 3.37793 48 15.3779 64 c 0
 36.3779 92 44.3779 106 61.3779 134 c 2
 355.378 624 l 2
 363.378 637 386.378 662 396.378 662 c 0
 404.378 662 413.378 658 414.378 655 c 1
 507.378 148 l 2
 513.378 117 515.378 97 519.378 76 c 0
 527.378 35 577.378 33 584.378 33 c 1
 587.378 24 582.378 0 578.378 -4 c 1
 541.378 -2 496.378 4 455.378 4 c 0
315.378 476 m 1
 197.378 280 l 1
 197.378 280 197.378 276 199.378 276 c 0
 217.378 274 254.378 273 275.378 273 c 0
 304.378 273 321.378 273 350.378 275 c 0
 352.378 275 354.378 280 354.378 280 c 1
 315.378 476 l 1
EndSplineSet
EndChar

StartChar: aogonek
Encoding: 261 261 378
Width: 489
Flags: W
HStem: -218 62<235.5 319.711> -7 88<69 190> 394 55<228.816 336>
VStem: 11 126<86.0352 221.784> 195 61<-173.5 -89.7244>
LayerCount: 2
Fore
SplineSet
262 394 m 0
 194 394 137 270 137 152 c 0
 137 104 151 81 173 81 c 0
 207 81 257 182 277 281 c 2
 297 382 l 1
 290 390 276 394 262 394 c 0
458 112 m 1
 449 95 419 62 385 34 c 0
 324 -16 256 -67 256 -122 c 0
 256 -146 267 -156 292 -156 c 0
 334 -156 359 -125 366 -120 c 1
 373 -122 371.155 -142.346 369 -146 c 0
 346 -185 297 -218 255 -218 c 0
 216 -218 195 -187 195 -160 c 0
 195 -96 246 -52 288 -7 c 1
 258 -3 237 18 237 58 c 0
 237 62 238 70 239 77 c 0
 240 85 242 92 243 96 c 1
 222 59 157 -7 97 -7 c 0
 41 -7 11 47 11 115 c 0
 11 294 191 449 318 449 c 0
 354 449 405 438 425 431 c 1
 363 132 l 2
 362 128 359 104 359 99 c 0
 359 90 363 78 373 78 c 0
 395 78 441 133 444 139 c 1
 451 139 458 118 458 112 c 1
EndSplineSet
EndChar

StartChar: Eogonek
Encoding: 280 280 379
Width: 573
Flags: W
HStem: -218 62<272.521 356.732> -3 37<-4.57755 62.5325> -1 43<208.844 353.021 372.68 404.783> 310 47<260.989 385.542> 620 37<119.119 170.762 312.359 486.326>
VStem: 232.021 61<-173.5 -88.7564> 407.021 29<234.175 275.196> 444.021 29<399.002 434.894> 519.021 36<511.277 581.026>
LayerCount: 2
Fore
SplineSet
232.021 -160 m 0xbf80
 232.021 -101 283.021 -31 353.021 -1 c 1xbf80
 286.447 -1 197.343 -1.27441 124.021 -1.68066 c 0
 57.4658 -2.04883 3.91504 -2.52441 -7.97949 -3 c 1
 -10.9795 3 -6.97949 27 -0.979492 34 c 1xdf80
 11.0205 35 55.0205 38 62.0205 51 c 0
 73.0205 71 79.0205 102 87.0205 145 c 2
 159.021 513 l 2
 167.021 556 174.021 587 170.021 607 c 0
 168.021 620 125.021 622 113.021 623 c 1
 110.021 630 116.021 654 121.021 660 c 1
 162.021 657 214.021 657 253.021 657 c 0
 292.021 657 502.021 663 557.021 664 c 1
 554.021 614 555.021 561 555.021 516 c 1
 552.021 513 539.021 511 532.021 511 c 0
 525.021 511 520.021 514 519.021 519 c 0
 510.021 574 495.021 620 438.021 620 c 2
 361.021 620 l 2
 340.021 620 319.021 619 312.021 608 c 0
 305.021 596 302.021 576 296.021 547 c 2
 261.021 368 l 2
 260.021 362 279.021 357 299.021 357 c 2
 348.021 357 l 2
 403.021 357 418.021 369 444.021 427 c 0
 446.021 432 449.021 435 456.021 435 c 0
 463.021 435 471.021 433 473.021 430 c 1
 436.021 238 l 1
 434.021 236 425.021 234 418.021 234 c 0
 411.021 234 407.021 237 407.021 242 c 0
 405.021 290 394.021 299 386.021 303 c 0
 376.021 308 352.021 310 317.021 310 c 0
 291.021 310 249.021 308 247.021 296 c 2
 217.021 141 l 2
 216.021 135 205.021 82 209.021 62 c 0
 212.021 48 241.021 42 265.021 42 c 2
 327.021 42 l 2
 362.021 42 394.021 52 420.021 75 c 0
 444.021 96 463.021 125 488.021 170 c 0
 490.021 174 496.021 176 503.021 176 c 0
 512.021 176 527.021 173 529.021 170 c 1
 501.021 116 461.021 42 446.021 -2 c 1
 375.021 -2 293.021 -69 293.021 -122 c 0
 293.021 -146 304.021 -156 329.021 -156 c 0
 371.021 -156 396.021 -125 403.021 -120 c 1
 410.021 -122 408.175 -142.346 406.021 -146 c 0
 383.021 -185 334.021 -218 292.021 -218 c 0
 253.021 -218 232.021 -187 232.021 -160 c 0xbf80
EndSplineSet
EndChar

StartChar: eogonek
Encoding: 281 281 380
Width: 394
Flags: W
HStem: -218 62<102.5 186.711> -6 21G<95.5 134.5> 188 38<145 186.561> 412 37<205.991 293.5>
VStem: 16 124<91.9422 188.325> 62 61<-173.5 -87.0578> 260 119<301.561 411.59>
LayerCount: 2
Fore
SplineSet
145 226 m 1xf2
 184 226 260 299 260 373 c 0
 260 400 256 412 234 412 c 0
 186 412 150 277 145 226 c 1xf2
62 -160 m 0xf6
 62 -102 109 -49 149 -4 c 1
 142 -6 138 -6 131 -6 c 0
 60 -6 16 47 16 140 c 0
 16 288 153 449 268 449 c 0
 319 449 379 427 379 357 c 0
 379 254 204 188 142 188 c 1
 141 185 140 168 140 163 c 0xfa
 140 126 151 77 201 77 c 0
 246 77 299 139 302 142 c 1
 311 142 317 118 317 112 c 1
 311 102 286 78 254 53 c 0
 187 1 123 -67 123 -122 c 0
 123 -146 134 -156 159 -156 c 0
 201 -156 226 -125 233 -120 c 1
 240 -122 238.155 -142.346 236 -146 c 0
 213 -185 164 -218 122 -218 c 0
 83 -218 62 -187 62 -160 c 0xf6
EndSplineSet
EndChar

StartChar: Iogonek
Encoding: 302 302 382
Width: 353
Flags: W
HStem: -218 62<52.3965 136.607> -4 37<-4.82419 60.7883 206.897 258.656> 625 37<117.483 169.895 314.898 381.494>
VStem: 11.8965 61<-173.5 -87.6496>
LayerCount: 2
Fore
SplineSet
262.896 33 m 1
 265.896 26 260.896 2 255.896 -4 c 1
 246.896 -4 215.896 -3 191.896 -6 c 0
 140.896 -12 72.8965 -69 72.8965 -122 c 0
 72.8965 -146 83.8965 -156 108.896 -156 c 0
 150.896 -156 175.896 -125 182.896 -120 c 1
 189.896 -122 188.052 -142.346 185.896 -146 c 0
 162.896 -185 113.896 -218 71.8965 -218 c 0
 32.8965 -218 11.8965 -187 11.8965 -160 c 0
 11.8965 -82 91.8965 -15 128.896 4 c 1
 90.8965 4 24.8965 0 -9.10352 -4 c 1
 -12.1035 2 -7.10352 26 -1.10352 33 c 1
 10.8965 34 54.8965 38 61.8965 51 c 0
 72.8965 71 78.8965 102 86.8965 145 c 2
 158.896 513 l 2
 166.896 556 173.896 587 169.896 607 c 0
 167.896 620 125.896 624 113.896 625 c 1
 110.896 632 115.896 656 120.896 662 c 1
 155.896 658 213.896 655 252.896 655 c 0
 291.896 655 347.896 658 384.896 662 c 1
 387.896 656 383.896 632 377.896 625 c 1
 365.896 624 321.896 620 314.896 607 c 0
 303.896 587 296.896 556 288.896 513 c 2
 217.896 145 l 2
 209.896 102 202.896 71 206.896 51 c 0
 208.896 38 250.896 34 262.896 33 c 1
EndSplineSet
EndChar

StartChar: iogonek
Encoding: 303 303 383
Width: 311
VWidth: 0
Flags: W
HStem: -218 62<61.5 145.711> 363 86<86 187> 540 147<163.393 244.607>
VStem: 21 61<-173.5 -90.7955> 112 122<251.016 405.986> 136 136<567.686 659.998>
LayerCount: 2
Fore
SplineSet
214 687 m 0xf4
 248 687 272 660 272 625 c 0
 272 581 236 540 194 540 c 0
 160 540 136 568 136 603 c 0
 136 647 172 687 214 687 c 0xf4
283 112 m 1
 273 93 235 56 201 27 c 0
 145 -21 82 -70 82 -122 c 0
 82 -146 93 -156 118 -156 c 0
 160 -156 185 -125 192 -120 c 1
 199 -122 197.155 -142.346 195 -146 c 0
 172 -185 123 -218 81 -218 c 0
 42 -218 21 -187 21 -160 c 0
 21 -97 72 -52 114 -7 c 1
 85 -3 61 17 61 63 c 0
 61 77 68 115 70 123 c 2
 107 309 l 2
 108 313 112 337 112 342 c 0
 112 351 107 363 97 363 c 0
 75 363 29 308 26 302 c 1
 19 302 12 323 12 329 c 1
 29 361 113 449 167 449 c 0
 207 449 234 424 234 378 c 0xf8
 234 364 227 328 225 318 c 2
 188 132 l 2
 187 128 184 104 184 99 c 0
 184 90 188 78 198 78 c 0
 220 78 266 133 269 139 c 1
 276 139 283 118 283 112 c 1
EndSplineSet
EndChar

StartChar: Uogonek
Encoding: 370 370 384
Width: 692
Flags: W
HStem: -218 62<293.867 378.078> -9 72<269.176 378.901> 625 37<98.9545 151.366 296.369 362.965 528.954 587.547 679.635 753.965>
VStem: 253.367 61<-173.5 -91.6884>
LayerCount: 2
Fore
SplineSet
314.367 -122 m 0
 314.367 -146 325.367 -156 350.367 -156 c 0
 392.367 -156 417.367 -125 424.367 -120 c 1
 431.367 -122 429.521 -142.346 427.367 -146 c 0
 404.367 -185 355.367 -218 313.367 -218 c 0
 274.367 -218 253.367 -187 253.367 -160 c 0
 253.367 -98 308.367 -48 349.367 -3 c 1
 329.367 -7 308.367 -9 287.367 -9 c 0
 209.367 -9 141.367 19 108.367 79 c 0
 81.3672 128 79.3672 197 99.3672 301 c 2
 140.367 513 l 2
 148.367 556 155.367 587 151.367 607 c 0
 149.367 620 107.367 624 95.3672 625 c 1
 92.3672 632 97.3672 656 102.367 662 c 1
 137.367 658 195.367 655 234.367 655 c 0
 273.367 655 329.367 658 366.367 662 c 1
 369.367 656 365.367 632 359.367 625 c 1
 347.367 624 303.367 620 296.367 607 c 0
 285.367 587 278.367 556 270.367 513 c 2
 235.367 330 l 2
 222.367 262 214.367 212 225.367 159 c 0
 243.367 71 312.367 63 348.367 63 c 0
 422.367 63 512.367 134 546.367 309 c 2
 579.367 479 l 2
 587.367 522 594.367 581 590.367 601 c 0
 586.367 620 537.367 624 525.367 625 c 1
 522.367 632 527.367 656 532.367 662 c 1
 575.367 658 604.367 655 647.367 655 c 0
 688.367 655 718.367 660 757.367 662 c 1
 760.367 656 756.367 632 750.367 625 c 1
 738.367 624 686.367 622 674.367 601 c 0
 663.367 581 645.367 523 637.367 480 c 2
 599.367 286 l 2
 574.367 161 513.367 78 438.367 33 c 0
 389.367 3 314.367 -70 314.367 -122 c 0
EndSplineSet
EndChar

StartChar: uogonek
Encoding: 371 371 385
Width: 534
Flags: W
HStem: -218 62<281.5 365.711> -8 110<100.5 215.5> 363 86<81 182>
VStem: 63 122<42.0872 220.113> 107 122<248.099 405.986> 241 61<-173.5 -89.7244>
LayerCount: 2
Fore
SplineSet
241 -160 m 0xf4
 241 -96 292 -52 334 -7 c 1
 304 -3 282 19 282 59 c 0
 282 66 285 91 289 113 c 0
 293 134 298 155 301 166 c 1
 263 85 169 -8 126 -8 c 3
 75 -8 63 17 63 78 c 0xf4
 63 110 77 178 82 204 c 8
 90 245 96 268 102 309 c 18
 102.771 313.05 107 337 107 342 c 0
 107 351 102 363 92 363 c 0
 70 363 24 308 21 302 c 1
 14 302 7 323 7 329 c 1
 24 361 108 449 162 449 c 0
 202 449 229 424 229 378 c 0xec
 229 364 222 328 220 318 c 0
 218 306 197 199 197 199 c 2
 195 187 185 133 185 123 c 0
 185 113 190 102 201 102 c 0
 230 102 313 249 338 372 c 10
 352 441 l 17
 362 444 397 447 408 447 c 0
 419 447 455 444 467 441 c 1
 409 132 l 2
 408 127 405 104 405 99 c 0
 405 90 409 78 419 78 c 0
 441 78 487 133 490 139 c 1
 497 139 504 118 504 112 c 1
 495 95 465 62 431 34 c 0
 370 -16 302 -67 302 -122 c 0
 302 -146 313 -156 338 -156 c 0
 380 -156 405 -125 412 -120 c 1
 419 -122 417.155 -142.346 415 -146 c 0
 392 -185 343 -218 301 -218 c 0
 262 -218 241 -187 241 -160 c 0xf4
EndSplineSet
EndChar

StartChar: dcroat
Encoding: 273 273 386
Width: 480
Flags: W
HStem: -7 88<68 189 287 383> 394 55<261 310> 517 39<195.682 510.88> 632 29<280.833 338.927> 676 20<453 466.5>
VStem: 10 126<86.0352 222.076> 341 129<557.234 680>
LayerCount: 2
Fore
SplineSet
204 556 m 1
 232 556 496 556 509 556 c 0
 513 556 515 552 514 548 c 0
 513 543 508 524 503 517 c 1
 475 517 210 517 197 517 c 0
 193 517 193 524 194 528 c 0
 195 533 197 549 204 556 c 1
EndSplineSet
Refer: 68 100 N 1 0 0 1 0 0 2
EndChar

StartChar: hbar
Encoding: 295 295 387
Width: 504
Flags: W
HStem: -8 86<303.5 405> 339 110<270.5 379> 517 39<63.6816 378.88> 632 29<70.8327 128.927> 676 20<243 256.5>
VStem: 131 129<557.059 680> 257 123<34.1714 191.883> 301 122<220.031 398.174>
LayerCount: 2
Fore
SplineSet
72 556 m 1xf8
 100 556 364 556 377 556 c 0
 381 556 383 552 382 548 c 0
 381 543 376 524 371 517 c 1
 343 517 78 517 65 517 c 0
 61 517 61 524 62 528 c 0
 63 533 65 549 72 556 c 1xf8
EndSplineSet
Refer: 72 104 N 1 0 0 1 0 0 3
EndChar

StartChar: Hbar
Encoding: 294 294 388
Width: 707
Flags: W
HStem: -4 37<-4.82419 61.8944 206.897 259.309 349.298 415.894 560.897 613.309> 317 51<264.582 473.895> 477 39<97.9707 697.795> 625 37<117.483 169.895 314.898 381.494 471.483 523.895 668.898 735.494>
LayerCount: 2
Fore
SplineSet
106.896 516 m 1
 131.896 516 685.896 516 697.896 516 c 0
 700.896 516 701.896 512 700.896 508 c 0
 699.896 503 694.896 485 689.896 477 c 1
 664.896 477 109.896 477 97.8965 477 c 0
 94.8965 477 94.8965 484 95.8965 488 c 0
 96.8965 493 99.8965 508 106.896 516 c 1
EndSplineSet
Refer: 40 72 N 1 0 0 1 0 0 3
EndChar

StartChar: uni0237
Encoding: 567 567 391
Width: 286
VWidth: 0
Flags: W
HStem: -218 22<-85.0631 -78.3737> 363 86<95 196>
VStem: 121 122<247.039 405.986>
LayerCount: 2
Fore
SplineSet
116 309 m 2
 117 313 121 337 121 342 c 0
 121 351 116 363 106 363 c 0
 84 363 38 308 35 302 c 1
 28 302 21 323 21 329 c 1
 38 361 122 449 176 449 c 0
 216 449 243 424 243 378 c 0
 243 364 236 328 234 318 c 0
 234 318 211 195 196 120 c 0
 180 36 150 -20 109 -75 c 0
 66 -132 -51 -210 -79 -218 c 1
 -84 -218 -88 -205 -88 -196 c 1
 17 -115 47 -49 76 100 c 0
 116 309 l 2
EndSplineSet
EndChar

StartChar: Lslash
Encoding: 321 321 392
Width: 548
Flags: W
HStem: -3 37<-3.57786 63.5322> -2 44<209.689 405.783> 430 20G<392.917 426> 625 37<118.608 171.02 316.023 382.619>
LayerCount: 2
Fore
SplineSet
51 210 m 2x30
 424 450 l 1
 428 445 440 419 436 416 c 2
 63 178 l 1
 59 184 47 207 51 210 c 2x30
EndSplineSet
Refer: 44 76 N 1 0 0 1 0.999681 0 2
EndChar

StartChar: lslash
Encoding: 322 322 393
Width: 285
Flags: W
HStem: -8 86<98.0943 199.594> 632 29<94.427 152.521> 676 20<266.594 280.094>
VStem: 51.5943 123<34.1714 191.016> 154.594 129<558.971 680>
LayerCount: 2
Fore
SplineSet
32.5947 290 m 2xe0
 267.595 439 l 1
 270.595 434 280.595 413 275.595 410 c 2
 39.5947 260 l 1
 35.5947 266 27.5947 287 32.5947 290 c 2xe0
EndSplineSet
Refer: 76 108 N 1 0 0 1 20.5943 0 2
EndChar

StartChar: kgreenlandic
Encoding: 312 312 394
Width: 535
VWidth: 0
Flags: W
HStem: -4 86<314.5 434> 363 86<85 186> 374 75<327.91 437>
VStem: 111 122<295.175 405.986> 361 129<323.305 400>
LayerCount: 2
Fore
SplineSet
106 309 m 2xb8
 107 313 111 337 111 342 c 0
 111 351 106 363 96 363 c 0
 74 363 28 308 25 302 c 1
 18 302 11 323 11 329 c 1
 28 361 112 449 166 449 c 0xd8
 206 449 233 424 233 378 c 0
 233 365.679 231.651 358.08 230.614 348 c 0
 230.389 345.809 230.179 343.5 230 341 c 1
 242 367 324 449 408 449 c 3
 466 449 490 423 490 377 c 0
 490 311 393 255 318 230 c 1
 335 182 379 82 422 82 c 0
 446 82 482 127 490 138 c 1
 500 138 504 117 504 112 c 1
 494 85 413 -4 353 -4 c 0
 276 -4 224 137 203 208 c 1
 188 133 162 0 162 0 c 17
 152 -3 117 -6 106 -6 c 0
 95 -6 59 -3 47 0 c 1
 53 31 106 309 106 309 c 2xb8
333 374 m 3xb8
 274 374 211 272 211 248 c 1
 273 248 361 288 361 342 c 3
 361 352 356 374 333 374 c 3xb8
EndSplineSet
EndChar

StartChar: Eng
Encoding: 330 330 395
Width: 714
Flags: W
HStem: -218 24<260.297 277.6> -4 37<-13.3195 59.541 152.803 215.372> 4 29<-14.4025 53.1689> 625 38<113.256 166.214 535.561 600.76 683.047 763.585> 625 30<540.564 598.858 687.493 766.038>
LayerCount: 2
Fore
SplineSet
478.606 69 m 1x90
 225.606 519 l 1
 155.606 157 l 2
 148.606 121 144.606 74 146.606 60 c 0
 149.606 41 211.606 34 218.606 34 c 1
 222.606 24 215.606 2 212.606 -4 c 1xd0
 175.606 -2 137.606 4 96.6064 4 c 0xa0
 53.6064 4 24.6064 -2 -18.3936 -4 c 1
 -21.3936 5 -12.3936 33 -10.3936 33 c 0
 0.606445 33 57.6064 41 68.6064 59 c 0
 77.6064 74 92.6064 122 99.6064 160 c 0
 124.606 291 143.606 383 168.606 514 c 0
 173.606 542 176.606 585 168.606 604 c 0
 162.606 617 122.606 625 111.606 625 c 0
 106.606 625 110.606 657 116.606 662 c 1
 144.606 660 177.606 655 220.606 655 c 0xc8
 253.606 655 292.606 658 323.606 662 c 1
 343.606 584 456.606 401 541.606 248 c 1
 544.606 255 548.606 275 551.606 289 c 2
 587.606 476 l 2
 594.606 514 606.606 589 602.606 604 c 0
 598.606 622 542.606 626 531.606 626 c 0
 529.606 626 532.606 654 538.606 663 c 1x90
 580.606 661 607.606 655 650.606 655 c 0x88
 691.606 655 731.606 661 769.606 663 c 1
 770.606 657 767.606 635 759.606 625 c 1
 752.606 625 690.606 623 678.606 602 c 0
 671.606 588 651.606 515 644.606 479 c 2
 578.606 139 l 2
 533.606 -89 328.606 -200 269.606 -218 c 1
 264.606 -215 258.606 -205 258.606 -200 c 0
 258.606 -197 259.606 -195 260.606 -194 c 0
 351.606 -145 437.606 -63 478.606 69 c 1x90
EndSplineSet
EndChar

StartChar: eng
Encoding: 331 331 396
Width: 503
VWidth: 0
Flags: W
HStem: -218 22<133.484 139.626> -6 21G<100.5 111.5> 339 110<302.5 411> 363 86<85 186>
VStem: 111 122<246.121 405.986> 333 122<220.227 398.174>
LayerCount: 2
Fore
SplineSet
414 120 m 0xec
 398 36 369 -20 328 -75 c 0
 285 -132 168 -210 140 -218 c 1
 135 -218 130 -205 130 -196 c 1
 235 -115 265 -49 294 100 c 0
 321 242 l 2
 323 254 333 308 333 318 c 0
 333 328 328 339 317 339 c 0xec
 288 339 210 218 182 91 c 10
 162 0 l 17
 152 -3 117 -6 106 -6 c 0
 95 -6 59 -3 47 0 c 1
 106 309 l 2
 107 313 111 337 111 342 c 0
 111 351 106 363 96 363 c 0
 74 363 28 308 25 302 c 1
 18 302 11 323 11 329 c 1
 28 361 112 449 166 449 c 0xdc
 206 449 233 424 233 378 c 0
 233 364 226.343 328.932 224 318 c 0
 221 304 219 295 214 274 c 1
 244 342 333 449 383 449 c 3
 439 449 455 419 455 362 c 0
 455 328 440 259 435 233 c 2
 414 120 l 0xec
EndSplineSet
EndChar

StartChar: Tbar
Encoding: 358 358 397
Width: 596
Flags: W
HStem: -4 37<116.402 182.998 328.001 380.413> 304 39<142.682 482.88> 613 44<161.131 300 430 560.637>
VStem: 592 36<483.215 572.16>
LayerCount: 2
Fore
SplineSet
151 343 m 1
 179 343 468 343 481 343 c 0
 485 343 487 339 486 335 c 0
 485 330 480 311 475 304 c 1
 447 304 157 304 144 304 c 0
 140 304 140 311 141 315 c 0
 142 320 144 336 151 343 c 1
EndSplineSet
Refer: 52 84 N 1 0 0 1 0 0 3
EndChar

StartChar: tbar
Encoding: 359 359 398
Width: 351
Flags: W
HStem: -8 86<120.056 221.556> 279 39<25.2373 310.436> 378 46<67.8767 132.556 257.556 347.986>
VStem: 73.5556 123<34.1714 190.195>
LayerCount: 2
Fore
SplineSet
33.5557 318 m 1
 61.5557 318 295.556 318 308.556 318 c 0
 312.556 318 314.556 314 313.556 310 c 0
 312.556 305 307.556 286 302.556 279 c 1
 274.556 279 39.5557 279 26.5557 279 c 0
 22.5557 279 22.5557 286 23.5557 290 c 0
 24.5557 295 26.5557 311 33.5557 318 c 1
EndSplineSet
Refer: 84 116 N 1 0 0 1 23.5556 0 2
EndChar

StartChar: OE
Encoding: 338 338 399
Width: 979
Flags: W
HStem: -10 43<258.941 429.487> -2 44<614.668 810.762> 310 47<666.968 791.521> 620 37<718.338 892.305> 624 43<351.874 508.413 755.281 892.305>
VStem: 51 144<149.833 394.085> 813 29<234.175 275.196> 850 29<399.002 434.894> 925 36<511.277 581.026>
LayerCount: 2
Fore
SplineSet
421 624 m 3xaf80
 283 624 195 409 195 244 c 0
 195 129 231.805 33 324 33 c 0
 437 33 480.559 81 491.833 139 c 0
 491.833 139 535.145 360 556.916 472 c 0
 565.08 514 557.126 558.947 526 589 c 0
 497 617 454 624 421 624 c 3xaf80
549 -2 m 0x7780
 537 -2 480 -3 427 -6 c 0
 389.938 -8.09766 349 -10 297 -10 c 0
 157 -10 51 115 51 261 c 0
 51 510 227.712 667 443 667 c 0xaf80
 542 667 567 657 637 657 c 0
 676 657 908 663 963 664 c 1
 961.933 646.215 961.372 628.049 961.092 610 c 0
 960.585 577.307 961 544.993 961 516 c 1
 958 513 945 511 938 511 c 0
 931 511 926 514 925 519 c 0
 916 574 901 620 844 620 c 2
 767 620 l 0
 746 620 725 619 718 608 c 0
 711 596 708 576 702 547 c 2
 667 368 l 2
 666 362 685 357 705 357 c 2
 754 357 l 2
 809 357 824 369 850 427 c 0
 852 432 855 435 862 435 c 0
 869 435 877 433 879 430 c 1
 842 238 l 1
 840 236 831 234 824 234 c 0
 817 234 813 237 813 242 c 0
 811 290 800 299 792 303 c 0
 782 308 758 310 723 310 c 0
 697 310 655 308 653 296 c 2
 623 141 l 2
 622 135 611 82 615 62 c 0
 618 48 647 42 671 42 c 0
 733 42 l 2
 768 42 800 52 826 75 c 0
 850 96 869 125 894 170 c 0
 896 174 902 176 909 176 c 0
 918 176 933 173 935 170 c 1
 907 116 867 42 852 -2 c 1
 828.079 -2 674.989 -2 549 -2 c 0x7780
EndSplineSet
EndChar

StartChar: oe
Encoding: 339 339 400
Width: 655
Flags: W
HStem: -6 83<369.872 484.5> -6 40<149.948 216.249> 188 38<406 447.561> 412 37<226.683 283.653 465.576 554.5>
VStem: 15 125<55.3865 244.792> 296 105<230.893 303.366> 521 119<301.561 411.54>
LayerCount: 2
Fore
SplineSet
406 226 m 1x3e
 445 226 521 299 521 373 c 0
 521 391 517 412 495 412 c 0
 447 412 411 277 406 226 c 1x3e
262 409 m 0
 187 409 140 235 140 125 c 0
 140 101 140 34 174 34 c 0x7e
 249 34 296 209 296 312 c 0
 296 345 296 409 262 409 c 0
529 449 m 0
 580 449 640 427 640 357 c 0
 640 254 465 188 403 188 c 1
 402 185 401 168 401 163 c 0
 401 126 412 77 462 77 c 0
 507 77 560 139 563 142 c 1
 572 142 578 118 578 112 c 1
 565 90 455 -6 392 -6 c 0xbe
 347.744 -6 313.978 14.5928 294.819 52.6289 c 1
 251.891 16.6641 203.306 -6 158 -6 c 0
 75 -6 15 46 15 142 c 0
 15 286 153 449 273 449 c 0
 327.505 449 374.248 434.77 399.918 391.299 c 1
 440.551 426.796 486.292 449 529 449 c 0
EndSplineSet
EndChar

StartChar: zero.onum
Encoding: 65552 -1 405
Width: 486
Flags: W
HStem: -7 68<218.223 311.177> 381 68<261.428 354.167>
LayerCount: 2
Fore
SplineSet
312 381 m 0
 257 381 206 309 191 231 c 0
 173 139 206 61 261 61 c 0
 316 61 366 133 381 211 c 0
 399 303 367 381 312 381 c 0
330 449 m 0
 452 449 529 347 505 221 c 0
 481 95 365 -7 242 -7 c 0
 120 -7 44 95 68 221 c 0
 92 347 208 449 330 449 c 0
EndSplineSet
EndChar

StartChar: one.onum
Encoding: 65553 -1 406
Width: 295
Flags: W
HStem: -4 37<31.5703 86.5629 234.833 277.812> 4 29<36 152>
VStem: 29 326
LayerCount: 2
Fore
SplineSet
229 446 m 0xa0
 272 449 315 456 355 462 c 1
 357 459 358 444 356 435 c 0
 355 430 353 425 351 425 c 0
 340 424 296 406 292 395 c 0
 283 369 273 320 272 313 c 2
 241 149 l 2
 234 115 229 86 230 58 c 0
 231 47 271 33 278 33 c 0x60
 281 33 280 23 278 15 c 0
 276 7 274 -1 272 -4 c 1xa0
 234 -2 188 4 152 4 c 0x60
 113 4 68 -2 29 -4 c 1
 25 1 31 33 36 33 c 0
 47 33 90 47 95 58 c 0
 106 84 116 127 117 134 c 2
 149 298 l 2
 156 332 159 354 156 382 c 0
 154 400 132 402 124 402 c 0
 117 402 104 401 104 401 c 0
 100 401 102 417 104 427 c 0
 105 430 105 433 108 439 c 1
 146 440 192 443 229 446 c 0xa0
EndSplineSet
EndChar

StartChar: two.onum
Encoding: 65554 -1 407
Width: 424
Flags: W
HStem: 0 102<178.86 366.125> 380 83<219.812 342.5>
LayerCount: 2
Fore
SplineSet
298 463 m 0
 387 463 437 404 423 330 c 0
 415 287 378 258 369 251 c 0
 301 197 234 152 179 113 c 0
 176 110 174 102 179 102 c 2
 309 102 l 2
 364 102 376 136 400 175 c 0
 403 180 405 182 411 182 c 0
 415 182 434 179 437 174 c 1
 416 123 382 50 363 0 c 1
 220 1 l 1
 220 1 37 0 30 0 c 1
 23 3 25 14 27 24 c 1
 153 134 274 235 287 303 c 0
 295 343 277 380 227 380 c 0
 160 380 108 295 101 295 c 1
 90 295 84 315 86 324 c 0
 88 332 89 336 90 337 c 0
 117 373 216 463 298 463 c 0
EndSplineSet
EndChar

StartChar: three.onum
Encoding: 65555 -1 408
Width: 414
Flags: W
HStem: -183 51<49 174.981> 391 72<237.006 341>
LayerCount: 2
Fore
SplineSet
320 463 m 0
 362 463 424 442 408 360 c 0
 394 289 336 242 282 197 c 1
 318 197 426 168 406 63 c 0
 379 -78 186 -183 67 -183 c 0
 31 -183 8 -173 -6 -166 c 1
 -8 -159 -10 -146 -8 -137 c 0
 -2 -108 29 -82 51 -82 c 0
 91 -82 80 -132 126 -132 c 0
 185 -132 255 -69 272 21 c 0
 287 96 260 140 198 140 c 0
 185 140 167 134 147 128 c 1
 141 131 140 142 142 150 c 0
 143 154 146 168 149 173 c 1
 210 197 275 236 292 322 c 0
 301 367 274 391 250 391 c 0
 211 391 184 357 170 346 c 0
 166 343 164 342 162 342 c 0
 155 342 150 356 152 365 c 0
 152 367 153 368 154 369 c 0
 198 418 247 463 320 463 c 0
EndSplineSet
EndChar

StartChar: four.onum
Encoding: 65556 -1 409
Width: 455
Flags: W
HStem: 6 70<130 266.997 398.956 437.947>
LayerCount: 2
Fore
SplineSet
286 -184 m 0
 254 -184 232 -180 234 -171 c 2
 267 0 l 1
 267 5 263 5 260 5 c 2
 37 6 l 1
 31 14 27 26 32 54 c 1
 173 199 304 318 428 450 c 0
 436 458 449 464 456 464 c 0
 462 464 473 462 471 454 c 2
 399 84 l 2
 398 79 401 77 406 76 c 1
 436 76 l 2
 447 76 446 59 438 16 c 0
 437 10 428 6 428 6 c 1
 389 6 l 2
 385 6 383 3 382 -2 c 2
 349 -175 l 1
 349 -175 325 -184 286 -184 c 0
283 82 m 1
 320 269 l 2
 321 272 319 278 317 278 c 1
 317 278 316 277 315 276 c 2
 126 88 l 2
 125 87 125 86 125 85 c 0
 124 81 126 76 130 76 c 2
 274 75 l 1
 277 76 281 76 283 82 c 1
EndSplineSet
EndChar

StartChar: five.onum
Encoding: 65557 -1 410
Width: 351
Flags: W
HStem: -183 31<-12.24 60.2596> 354 108<178.5 396.131>
LayerCount: 2
Fore
SplineSet
410 462 m 1
 413 456 414 446 411 428 c 0
 408 411 395 367 386 354 c 1
 261 350 213 352 195 351 c 0
 186 350 184 347 182 342 c 2
 166 294 l 1
 164 287 171 283 178 281 c 0
 279 259 358 165 338 60 c 0
 303 -118 144 -183 -13 -183 c 1
 -14 -178 -15 -174 -13 -164 c 0
 -11 -153 -6 -152 -1 -152 c 0
 57 -152 181 -102 206 29 c 0
 228 144 174 194 100 207 c 0
 96 208 91 209 87 218 c 0
 168 451 l 0
 170 454 173 457 176 457 c 0
 242 457 375 454 410 462 c 1
EndSplineSet
EndChar

StartChar: six.onum
Encoding: 65558 -1 411
Width: 467
VWidth: 0
Flags: W
HStem: -6 52<201.719 280.112>
VStem: 65 126<70.8621 269.88> 330 126<133.293 300.155>
LayerCount: 2
Fore
SplineSet
278 344 m 3
 278 355 305 367 334 367 c 0
 400 367 456 299 456 218 c 0
 456 102 337 -6 228 -6 c 0
 135 -6 65 55 65 161 c 0
 65 298 189 519 502 645 c 1
 510 642 513 621 512 611 c 1
 397 562 293 475 233 334 c 0
 199 254 191 175 191 120 c 0
 191 72 205 46 240 46 c 0
 294 46 330 144 330 224 c 0
 330 270 321 291 312 300 c 0
 302 310 286 316 279 318 c 1
 278 323 278 334 278 344 c 3
EndSplineSet
EndChar

StartChar: seven.onum
Encoding: 65559 -1 412
Width: 449
Flags: W
HStem: 355 102<150.318 400>
LayerCount: 2
Fore
SplineSet
449 457 m 2
 473 457 506 460 512 460 c 0
 518 460 518 456 517 451 c 0
 514 438 502 415 479 384 c 2
 80 -182 l 1
 77 -183 76 -183 74 -183 c 0
 57 -183 44 -167 47 -154 c 0
 48 -151 49 -147 51 -144 c 2
 400 355 l 1
 197 355 l 1
 151 355 120 296 110 276 c 1
 102 275 82 274 76 282 c 1
 92 328 133 414 146 445 c 0
 149 453 158 457 166 457 c 2
 449 457 l 2
EndSplineSet
EndChar

StartChar: eight.onum
Encoding: 65560 -1 413
Width: 430
Flags: W
HStem: -6 52<186.654 275.509> 580 53<281.631 364.29>
LayerCount: 2
Fore
SplineSet
177 159 m 24
 167 106 177 46 226 46 c 27
 267 46 301 86 310 134 c 0
 322 198 267 248 243 270 c 0
 239 274 233 276 231 276 c 0
 229 276 228 276 226 275 c 0
 205 264 186 206 177 159 c 24
256 494 m 0
 245 436 275 412 301 388 c 0
 303 386 308 384 312 384 c 0
 315 384 317 385 318 386 c 0
 345 409 359 443 367 483 c 0
 378 542 369 580 327 580 c 3
 289 580 267 549 256 494 c 0
134 486 m 0
 151 574 249 633 335 633 c 27
 423 633 507 584 489 489 c 0
 474 412 393 361 358 341 c 0
 356 340 354 335 356 334 c 0
 376 315 458 251 442 170 c 24
 421 62 309 -6 209 -6 c 27
 114 -6 30 39 53 159 c 0
 71 253 159 298 192 315 c 0
 194 316 196 320 193 323 c 0
 166 353 116 392 134 486 c 0
EndSplineSet
EndChar

StartChar: nine.onum
Encoding: 65561 -1 414
Width: 451
VWidth: 0
Flags: W
HStem: -183 34<34.5789 62.0265> 404 52<261.888 340.281>
VStem: 86 126<149.845 316.707> 351 126<184.042 379.138>
LayerCount: 2
Fore
SplineSet
264 105 m 3
 264 94 237 83 208 83 c 0
 142 83 86 151 86 232 c 0
 86 348 205 456 314 456 c 0
 407 456 477 395 477 289 c 0
 477 152 334 -102 40 -183 c 1
 33 -183 30 -155 30 -149 c 1
 145 -100 249 -25 309 116 c 0
 343 196 351 275 351 330 c 0
 351 378 337 404 302 404 c 0
 248 404 212 306 212 226 c 0
 212 180 221 159 230 150 c 0
 240 140 256 134 263 132 c 1
 264 127 264 115 264 105 c 3
EndSplineSet
EndChar

StartChar: uni02BE
Encoding: 702 702 420
Width: 187
Flags: W
HStem: 446 39<20.1104 70.9621> 663 38<61.948 96.8537>
VStem: 15 152
LayerCount: 2
Fore
SplineSet
65 701 m 1
 148 701 177 628 167 574 c 0
 155 514 96 446 15 446 c 1
 14 456 18 475 23 485 c 1
 67 485 102 530 110 574 c 24
 119 619 101 663 57 663 c 1
 56 673 59 689 65 701 c 1
EndSplineSet
EndChar

